<svg width="354" height="395" xmlns="http://www.w3.org/2000/svg" xmlns:xlink="http://www.w3.org/1999/xlink" xml:space="preserve" overflow="hidden"><defs><clipPath id="clip0"><rect x="102" y="878" width="354" height="395"/></clipPath></defs><g clip-path="url(#clip0)" transform="translate(-102 -878)"><path d="M82.3982 96.3457C83.7789 85.2298 83.4512 78.5368 84.5277 63.8872 86.3531 39.0344 88.272 24.338 87.9912 19.1428 87.6636 13.4093 89.723 10.5309 94.8714 8.5651 118.086-0.210617 190.047-4.53997 228.262 6.95037 239.074 10.2266 248.692 9.54798 251.664 15.7963 249.886 29.9545 250.073 14.6964 249.067 91.3377 249.067 94.3799 249.441 97.4222 249.652 100.371 267.414 105.262 278.904 106.268 285.316 119.467 287.136 122.78 287.637 126.658 286.72 130.325 284.56 139.523 283.608 148.964 283.889 158.408 283.748 172.753 281.548 180.452 285.082 190.421L291.12 193.089C291.588 196.038 289.435 196.342 288.101 197.278 283.631 200.367 284.708 199.338 285.901 219.557 287.203 219.161 288.464 218.644 289.669 218.012 298.14 212.232 307.408 212.115 316.956 214.245 318.266 214.438 319.507 214.961 320.559 215.766 321.633 216.752 322.321 218.087 322.502 219.533 322.502 220.399 321.027 221.569 319.951 222.084 318.224 222.75 316.448 223.283 314.639 223.676 315.715 226.343 318.289 226.32 320.091 226.694 333.29 229.432 341.504 238.255 347.753 249.301 353.041 258.661 344.5 295.707 347.331 349.274 347.936 355.796 344.429 362.008 338.532 364.859 326.504 371.225 313.305 373.822 300.13 376.256 248.996 385.617 243.567 383.534 175.982 387.512 146.332 389.268 121.152 386.74 82.3748 383.043 73.3182 382.177 37.4665 372.208 33.0435 370.967 27.5407 369.367 22.147 367.413 16.8962 365.117 13.6886 363.665 10.6707 361.826 7.90985 359.641 2.73054 356.066-0.255069 350.086-2.90132e-07 343.798 0.912675 324.28 1.61473 330.646 2.52741 267.952 2.8904 263.154 2.8904 258.335 2.52741 253.536 1.61007 248.641 3.89198 243.702 8.21407 241.227 23.1913 231 33.535 227.513 45.8912 222.763 47.4123 178.978 43.0361 210.898 49.4951 135.146 50.0437 131.903 49.9243 128.583 49.144 125.387 46.5464 117.15 52.6777 113.406 59.6281 108.374 61.0322 107.345 62.5767 106.526 64.3085 105.426 61.6641 93.4205 60.3535 90.0272 63.817 87.8508 66.7777 86.092 70.554 86.564 72.9906 88.9975 75.8456 91.2675 78.7475 93.6077 82.3982 96.3457ZM122.532 110.527 120.005 111.978 120.005 112.212 120.145 111.861 122.486 110.48 124.662 110.48C123.937 112.516 123.235 114.552 121.994 118.039 124.334 116.705 125.879 116.331 126.511 115.325 127.938 113.101 126.09 111.768 124.545 110.504ZM115.161 112.47 114.669 113.031C115.284 111.863 115.771 110.631 116.12 109.357 117.822 108.446 119.59 107.664 121.409 107.017 127.026 105.285 134.187 112.119 128.43 118.39 127.522 119.232 126.561 120.014 125.551 120.73 134.701 121.035 139.054 108.538 128.313 104.677 123.328 102.898 119.677 104.419 116.331 109.498 115.863 110.457 115.512 111.463 115.161 112.47ZM149.14 127.891 143.992 128.055 143.992 128.055C145.165 129.381 147.191 129.505 148.518 128.332 148.669 128.198 148.807 128.051 148.93 127.891 151.888 126.816 154.636 125.232 157.05 123.211 161.192 118.858 159.788 114.529 153.961 113.359 150.685 112.324 147.106 113.139 144.6 115.488 152.861 119.771 154.64 118.109 152.019 126.768ZM237.834 223.161C231.609 230.368 252.062 236.079 252.319 221.593 252.628 218.435 250.951 215.416 248.107 214.011 243.596 211.429 237.963 211.885 233.926 215.157 229.783 218.878 227.326 227.069 229.245 231.539 231.585 236.734 238.091 238.559 243.286 237.108 244.363 236.827 245.205 235.751 246.96 234.464 244.433 234.113 242.959 233.996 241.508 233.715 233.387 232.17 230.954 225.641 236.032 219.112 238.185 216.351 240.712 214.432 244.503 215.391 246.988 215.879 248.728 218.129 248.575 220.657 248.575 226.507 241.087 228.169 237.646 223.161 245.346 223.161 243.216 223.746 245.065 220.072 243.965 219.557 242.725 218.457 241.835 218.644 239.689 219.166 238.094 220.967 237.834 223.161ZM223.184 248.224C218.106 251.383 216.491 254.496 218.504 258.123 220.727 262.014 224.858 264.422 229.339 264.442 233.179 264.887 236.898 262.925 238.7 259.504 247.756 244.924 226.999 231.796 214.432 246.212 210.075 251.08 208.623 257.892 210.617 264.114 212.021 269.59 224.658 273.475 232.404 268.35 230.566 268.294 228.738 268.043 226.952 267.601 224.029 266.732 221.252 265.43 218.714 263.74 207.505 255.245 219.44 240.993 229.245 243.216 238.068 245.182 237.857 255.877 230.837 257.936 228.039 258.835 224.975 258.053 222.95 255.923 220.259 253.302 221.967 250.681 223.207 248.107 227.888 249.02 220.563 253.419 226.999 255.128 229.112 256.004 231.535 255.002 232.412 252.889 233.289 250.776 232.286 248.353 230.173 247.476 230.091 247.442 230.008 247.41 229.924 247.382 227.726 246.203 225.024 246.541 223.184 248.224ZM254.847 215.461 255.081 215.461 254.683 215.461C254.262 197.793 266.735 193.347 280.729 190.679 280.729 130.817 284.052 138.68 282.063 132.548 264.629 136.41 222.108 142.26 206.077 143.384 183.636 144.554 161.14 144.179 138.75 142.26 85.3 138.586 111.721 143.22 53.099 131.004 51.274 135.465 50.2902 140.226 50.1971 145.045 49.5185 157.097 48.2314 187.637 48.8164 203.105 50.1503 238.372 48.6994 217.146 48.6994 241.765 57.1007 244.105 65.0807 247.452 73.131 248.482 93.7715 251.103 115.722 251.805 127.681 253.419 158.22 257.562 171.115 256.789 193.37 256.438 193.37 255.994 193.37 255.572 193.37 255.128 167.441 254.379 173.432 256.649 165.288 254.098 180.803 241.742 194.938 230.322 210.875 239.238 212.201 239.815 213.581 240.261 214.993 240.572 215.344 235.891 215.625 231.89 215.929 227.443 212.068 226.577 196.178 223.301 192.34 222.365 188.502 221.429 184.197 224.307 180.452 221.406 183.377 215.227 188.573 211.296 198.074 208.511 209.26 205.258 219.299 208.207 228.192 215.11 239.004 206.335 247.452 206.569 254.847 215.415ZM346.348 261.657C345.333 262.054 344.348 262.523 343.4 263.061 326.48 275.581 313.235 275.675 280.215 282.508 266.653 285.455 252.851 287.163 238.98 287.61 180.803 288.92 139.031 294.513 82.1875 283.935 70.0887 281.595 58.1304 278.647 46.055 276.096 25.7421 271.79 19.6108 266.782 7.02058 258.872 6.58425 259.748 6.2618 260.676 6.0611 261.633 3.72091 298.796 6.34192 305.021 3.90812 322.268 3.16079 329.489 2.8482 336.749 2.97204 344.008 2.71708 350.132 5.96634 355.868 11.3499 358.798 16.5209 362.133 22.0563 364.865 27.8483 366.942 51.8118 374.384 75.9158 381.311 101.237 382.902 122.111 384.189 142.939 386.787 163.907 385.898 272.375 381.217 237.085 383.136 296.69 374.361 309.493 372.231 322.041 368.781 334.133 364.064 341.434 361.372 343.891 357.184 343.844 349.414 343.587 306.542 343.376 324.117 346.302 268.865 346.348 266.782 346.348 264.582 346.348 261.657ZM164.001 114.389C172.121 108.702 182.722 112.704 193.464 116.237 197.489 117.571 203.714 121.62 208.23 121.222 220.795 120.392 233.266 118.498 245.51 115.559 245.84 114.741 246.06 113.883 246.165 113.008 245.229 15.9601 248.505 33.1605 246.726 22.9573 245.041 23.4721 243.591 23.8934 242.186 24.4082 215.368 34.0732 169.641 34.6582 144.741 30.2119 133.719 28.2227 122.532 27.31 111.697 23.9402 105.309 21.9276 98.4519 21.0617 91.3845 19.6576 91.0101 21.9978 90.5654 23.7998 90.3782 25.7421 85.5106 79.5665 87.6636 56.9369 86.0723 94.2629 85.6276 104.841 90.7526 102.641 98.7561 100.769 92.6716 90.4718 89.5357 86.0255 90.2612 83.5682 90.9867 81.111 93.3971 81.5557 95.3862 81.5557 105.9 81.9514 114.693 89.6698 116.448 100.043 116.725 100.701 117.096 101.316 117.548 101.869 123.796 98.5455 129.506 100.769 134.959 103.6 142.775 93.9353 153.68 91.8993 159.905 99.1539 156.933 102.009 152.557 103.951 151.738 108.117ZM273.802 272.913C263.505 275.082 252.771 273.418 243.614 268.233 232.826 273.124 228.075 274.973 224.284 277.991 220.17 281.745 214.782 283.795 209.213 283.725 201.514 283.327 193.838 282.789 186.162 282.227 184.618 282.227 183.026 281.642 183.401 279.185 184.15 278.998 185.016 278.483 185.741 278.623 192.317 279.91 197.044 276.751 201.865 272.843 206.007 269.473 207.715 265.939 205.562 260.931 205.19 260.266 204.776 259.625 204.322 259.012 184.501 259.012 168.26 260.393 145.162 258.17 132.01 256.906 118.952 254.706 105.706 254.823 101.518 254.823 87.921 252.179 80.1048 252.062 68.7782 251.875 58.6686 247.382 48.2548 243.988 47.0355 243.357 45.9028 242.57 44.8849 241.648 45.1657 236.804 45.4465 232.077 45.7274 227.233 41.3512 226.086 38.3791 228.379 35.1497 229.573 25.879 232.985 17.1828 237.791 9.36077 243.825 3.6741 248.06 3.6741 252.296 9.07994 256.649 10.1096 257.468 11.2563 258.147 12.3562 258.989 22.0666 265.533 32.8929 270.244 44.2998 272.89 64.2383 277.336 84.0831 281.97 104.49 284.755 147.76 290.675 221.265 285.925 225.758 285.878 246.82 285.62 261.587 284.848 315.762 273.241 325.915 271.009 335.39 266.388 343.4 259.761 346.793 257.023 347.191 255.362 345.412 251.828 337.432 235.938 323.812 228.684 306.752 227.069 301.651 226.577 298 229.549 294.373 233.621 300.808 234.791 296.713 233.27 328.165 242.608 329.756 243.076 331.699 243.567 331.441 246.492 312.72 253.63 303.687 257.632 285.948 246.96 283.421 251.009 281.853 255.198 278.927 257.772 276.002 260.346 271.696 261.236 267.507 263.084 269.403 266.056 271.158 268.771 273.802 272.913ZM249.886 117.665C247.396 118.549 244.857 119.283 242.28 119.865 191.03 128.266 195.032 122.72 187.941 125.902 172.028 133.04 164.539 122.626 152.44 130.583 146.379 134.561 141.184 132.174 137.135 125.692 136.666 125.143 136.122 124.663 135.521 124.264L125.2 129.296C126.464 136.316 124.451 138.446 117.758 136.901 113.663 135.965 114.108 135.895 101.728 128.898 100.043 129.764 98.3817 131.238 96.6733 131.378 90.4043 132.084 84.2313 129.412 80.4558 124.358 79.3342 122.666 78.303 120.916 77.3667 119.116 71.6448 118.704 66.6025 115.205 64.2149 109.989 60.2127 111.173 56.6478 113.509 53.9648 116.705 52.2559 118.422 51.5953 120.921 52.2331 123.258 52.9819 127.798 56.3752 128.664 59.7685 129.436 106.689 139.92 102.805 137.884 164.539 140.224 209.775 141.933 223.699 138.844 270.947 131.683 274.411 131.013 277.804 130.018 281.08 128.711 283.047 128.212 284.238 126.213 283.739 124.246 283.667 123.96 283.56 123.683 283.421 123.422 282.067 118.94 279.259 115.037 275.441 112.329 267.646 107.839 258.875 105.316 249.886 104.981ZM247.545 17.1536C245.603 12.6136 242.257 13.5731 222.856 8.35448 192.808 0.280823 149.538 2.10617 119.116 6.41213 111.534 7.48861 104.045 9.36077 96.5563 11.0925 94.2161 11.6074 91.8759 12.3796 91.6653 15.7729 93.6174 16.7008 95.6355 17.483 97.703 18.1131 160.256 31.5692 159.484 29.814 198.846 29.0418 210.939 28.7204 222.954 27.0006 234.651 23.9168 239.261 22.7701 244.082 21.5532 247.452 17.1536ZM285.691 194.704C268.654 192.06 255.76 202.099 257.842 214.713L270.222 219.089C271.58 217.675 272.695 216.046 273.522 214.268 275.346 206.598 279.617 199.731 285.691 194.704ZM271.158 229.339C262.406 226.671 254.777 231.983 251.056 238.255 245.58 247.616 250.822 257.515 261.68 257.983 276.985 258.661 280.402 253.653 279.63 244.152 277.945 245.954 276.611 247.639 274.949 249.02 270.241 253.119 263.101 252.624 259.002 247.916 256.801 245.387 255.836 242.01 256.368 238.7 256.583 235.496 258.943 232.846 262.101 232.264 265.169 231.446 268.192 230.47 271.158 229.339ZM210.921 243.591C202.52 235.868 182.044 240.267 176.872 251.36 195.312 251.36 187.917 250.541 205.282 254.449 207.294 250.518 209.096 247.007 210.921 243.497ZM224.12 224.541C226.788 219.206 226.694 218.012 222.763 215.532 215.152 210.459 205.547 209.411 197.021 212.723 193.57 213.602 190.479 215.532 188.175 218.246ZM85.5574 103.858C80.7294 99.085 75.4643 94.7757 69.8313 90.9867 68.7325 90.3633 67.402 90.3025 66.2508 90.8228 64.3319 92.1568 65.3616 95.5032 68.0996 107.766 69.3633 113.382 70.7674 114.389 77.1795 114.529ZM323.227 245.393C312.299 238.372 292.805 235.54 285.316 239.94 288.546 245.299 293.928 247.499 299.357 248.786 307.462 250.589 315.946 249.382 323.227 245.393ZM109.825 111.44 114.506 103.811C112.165 91.5015 104.092 84.3405 93.8417 86.1425 99.0603 94.4267 104.162 102.5 109.825 111.44ZM191.896 119.701C185.39 115.231 175.748 113.101 169.336 114.669 164.656 115.839 163.416 117.501 163.603 123.117 173.478 125.434 183.05 125.926 191.896 119.701ZM283.608 232.241C290.909 232.358 293.647 226.928 305.184 222.505 308.929 221.078 312.86 220.165 317.33 218.668 302.423 212.583 288.803 218.059 283.678 232.241ZM246.165 253.911C242.959 259.363 242.959 259.363 244.222 265.612 251.032 269.941 258.615 271.135 267.624 270.971L262.406 262.055C256.007 262.268 249.942 259.196 246.329 253.911ZM104.958 116.214C110.223 107.391 92.9056 99.0603 82.8194 113.148 80.4792 116.308 81.5089 119.748 84.8554 122.345 86.7743 111.37 93.4205 106.385 104.958 116.214ZM198.238 279.278C209.728 282.695 217.287 281.174 221.265 275.136L208.464 270.011ZM280.355 229.666C281.299 228.029 282.082 226.305 282.695 224.518 283.491 221.265 282.11 209.143 280.8 205.796 278.038 208.488 278.272 212.349 276.704 215.344 274.963 218.358 273.032 221.258 270.924 224.027ZM121.035 134.608 122.228 133.555C120.333 130.442 121.924 131.215 113.148 123.773 109.1 120.333 107.204 120.848 104.209 126.394 108.562 131.753 114.669 133.391 121.035 134.608ZM138.914 110.2C145.372 108.893 150.86 104.666 153.774 98.7561 146.964 97.0478 142.962 97.8902 139.85 101.798 138.071 104.185 136.293 106.806 138.914 110.2ZM262.406 246.165C266.15 250.003 273.732 248.903 276.049 241.227 277.289 237.061 276.049 235.517 271.111 234.885 269.871 242.608 270.456 242.654 262.406 246.165ZM224.12 227.747C218.176 230.088 217.451 231.609 219.44 237.108L226.46 235.704C225.618 232.662 224.869 230.228 224.12 227.747ZM256.064 226.484C263.81 224.588 263.81 224.588 264.512 220.118 257.889 216.538 255.853 218.082 256.064 226.484ZM97.3754 125.739C95.4564 123.843 93.3034 122.532 92.3908 120.613 91.2675 118.273 92.929 116.237 95.4798 115.114 90.2378 116.074 87.7572 119.607 89.0911 123.562 90.2144 126.909 92.929 127.611 97.3754 125.739ZM263.857 242.21C266.805 240.876 268.116 239.074 266.454 236.898 265.378 235.379 263.275 235.021 261.756 236.097 261.4 236.35 261.096 236.669 260.861 237.038ZM240.806 241.695C242.467 244.573 243.544 246.375 245.065 249.137L245.065 241.25ZM145.373 122.86 145.864 124.311C147.713 124.732 149.211 124.568 149.632 121.082ZM98.1008 121.222 98.5221 120.216C95.433 118.929 96.1819 118.999 95.4798 120.216ZM136.995 119.701 136.293 119.046C135.38 120.403 135.474 119.982 136.293 120.73 136.574 120.379 136.784 120.052 136.995 119.701Z" fill="#A2C8C4" transform="matrix(1 0 0 1.00291 102.55 882.459)"/></g></svg>