<svg width="247" height="245" xmlns="http://www.w3.org/2000/svg" xmlns:xlink="http://www.w3.org/1999/xlink" xml:space="preserve" overflow="hidden"><defs><clipPath id="clip0"><rect x="801" y="1649" width="247" height="245"/></clipPath></defs><g clip-path="url(#clip0)" transform="translate(-801 -1649)"><path d="M191.895 72.8473C193.62 72.8473 194.962 72.2722 196.113 71.3137 199.18 68.2464 197.263 61.1534 191.895 55.594 188.253 51.9516 183.844 49.8429 180.393 49.8429 178.668 49.8429 177.326 50.418 176.175 51.3765 173.108 54.4438 175.025 61.5368 180.393 67.0962 184.035 70.7386 188.445 72.8473 191.895 72.8473ZM178.668 54.0604C179.051 53.677 179.626 53.677 180.01 53.677 181.927 53.677 185.377 54.8272 188.828 58.2779 190.937 60.3866 192.662 63.0704 193.237 65.3709 193.62 66.9045 193.62 68.0547 193.045 68.6298 192.662 69.0132 192.087 69.0132 191.703 69.0132 189.786 69.0132 186.336 67.863 182.885 64.4124 178.476 59.8115 177.709 55.2106 178.668 54.0604Z" fill="#A2C8C4" transform="matrix(1.00035 0 0 1 801 1649.1)"/><path d="M125.949 30.8643C125.182 30.6726 124.607 30.6726 124.032 30.6726 119.815 30.6726 115.214 34.3149 112.722 39.6826 109.846 45.8171 111.188 51.9516 115.789 53.2936 116.364 53.4853 116.939 53.4853 117.706 53.4853 121.923 53.4853 126.524 49.8429 129.016 44.4752 131.7 38.5324 130.358 32.3979 125.949 30.8643ZM125.374 43.1333C123.457 47.3508 119.815 49.8429 117.514 49.8429 117.323 49.8429 116.939 49.8429 116.747 49.6512 116.364 49.4595 115.789 49.2678 115.405 48.3093 114.83 46.9674 114.639 44.2835 116.172 41.2162 118.089 36.9988 121.732 34.5066 124.032 34.5066 124.224 34.5066 124.607 34.5066 124.799 34.6983 125.182 34.89 125.757 35.0817 126.141 36.0402 126.716 37.1905 126.908 39.8743 125.374 43.1333Z" fill="#A2C8C4" transform="matrix(1.00035 0 0 1 801 1649.1)"/><path d="M200.522 134.192C202.822 134.192 205.314 133.809 207.998 132.659 215.283 129.783 219.884 123.84 218.159 119.431 217.2 116.556 213.749 115.022 209.532 115.022 207.231 115.022 204.739 115.405 202.055 116.556 194.771 119.431 190.17 125.374 191.895 129.783 193.045 132.659 196.496 134.192 200.522 134.192ZM203.589 120.006C205.698 119.24 207.615 118.856 209.532 118.856 212.024 118.856 214.133 119.623 214.516 120.773 215.091 122.69 212.216 126.908 206.465 129.208 204.356 129.975 202.439 130.358 200.522 130.358 198.03 130.358 195.921 129.592 195.538 128.441 194.962 126.524 197.838 122.307 203.589 120.006Z" fill="#A2C8C4" transform="matrix(1.00035 0 0 1 801 1649.1)"/><path d="M244.039 101.603 222.951 41.9831C220.076 34.1232 211.257 25.3049 203.397 22.4293L143.778 1.34192C141.669 0.57511 139.177 0.191703 136.685 0.191703 129.975 0.191703 122.882 2.68385 118.473 7.09303L72.2722 53.2936C69.2049 56.3608 66.9045 60.77 65.7543 65.5626L67.2879 64.7958C69.5884 63.6455 72.2722 62.8787 75.1478 62.3036 75.9146 60.9617 76.6814 59.8115 77.6399 58.853L124.032 12.4607C125.757 10.7354 128.25 9.39347 130.933 8.62666 130.933 8.62666 130.933 8.62666 130.933 8.62666L152.788 86.4583 150.871 88.3753 158.155 91.826C158.922 92.2094 159.497 92.5928 160.264 92.9762L236.562 114.83C235.795 117.323 234.453 119.815 232.92 121.348L186.527 167.741C184.227 170.041 180.393 171.766 176.367 172.533L176.367 180.201C182.31 179.434 188.253 176.751 192.087 173.108L238.479 126.716C244.422 120.773 246.914 109.463 244.039 101.603ZM138.793 7.85984C139.752 8.05155 140.71 8.24325 141.477 8.43495L201.097 29.5223C206.848 31.6311 213.941 38.7241 216.05 44.4752L237.137 104.095C237.521 105.053 237.712 106.012 237.712 107.162L160.456 85.1163 138.793 7.85984Z" fill="#A2C8C4" transform="matrix(1.00035 0 0 1 801 1649.1)"/><path d="M84.3495 116.364C91.826 116.364 97.7688 112.913 97.7688 108.696 97.7688 104.478 91.826 101.028 84.3495 101.028 76.8731 101.028 70.9303 104.478 70.9303 108.696 70.9303 112.913 76.8731 116.364 84.3495 116.364ZM84.3495 104.862C90.484 104.862 93.9347 107.546 93.9347 108.696 93.9347 109.846 90.484 112.53 84.3495 112.53 78.215 112.53 74.7644 109.846 74.7644 108.696 74.7644 107.546 78.215 104.862 84.3495 104.862Z" fill="#A2C8C4" transform="matrix(1.00035 0 0 1 801 1649.1)"/><path d="M22.2376 130.358C21.2791 130.358 20.5123 130.55 19.5538 130.933 15.1446 133.042 13.9944 140.71 16.8699 147.803 19.3621 153.554 23.5795 157.197 27.6053 157.197 28.5638 157.197 29.3306 157.005 30.2891 156.622 34.6983 154.513 35.8485 146.845 32.973 139.752 30.4809 134.001 26.0717 130.358 22.2376 130.358ZM28.5638 153.171C28.3721 153.363 27.9887 153.363 27.6053 153.363 25.4966 153.363 22.4293 150.871 20.5123 146.27 18.0201 140.519 19.3621 135.343 21.2791 134.384 21.4708 134.192 21.8542 134.192 22.2376 134.192 24.3463 134.192 27.4136 136.685 29.3306 141.285 31.8228 147.037 30.4809 152.213 28.5638 153.171Z" fill="#A2C8C4" transform="matrix(1.00035 0 0 1 801 1649.1)"/><path d="M22.2376 172.533C21.2791 172.533 20.5123 172.725 19.5538 173.108 15.1446 175.217 13.9944 182.885 16.8699 189.978 19.3621 195.729 23.5795 199.372 27.6053 199.372 28.5638 199.372 29.3306 199.18 30.2891 198.796 34.6983 196.688 35.8485 189.02 32.973 181.927 30.4809 176.175 26.0717 172.533 22.2376 172.533ZM28.5638 195.346C28.3721 195.538 27.9887 195.538 27.6053 195.538 25.4966 195.538 22.4293 193.045 20.5123 188.445 18.0201 182.693 19.3621 177.517 21.2791 176.559 21.4708 176.367 21.8542 176.367 22.2376 176.367 24.3463 176.367 27.4136 178.859 29.3306 183.46 31.8228 189.211 30.4809 194.387 28.5638 195.346Z" fill="#A2C8C4" transform="matrix(1.00035 0 0 1 801 1649.1)"/><path d="M60.5783 151.446C59.6198 151.446 58.853 151.637 57.8944 152.021 53.4853 154.13 52.335 161.798 55.2106 168.891 57.7027 174.642 61.9202 178.284 65.946 178.284 66.9045 178.284 67.6713 178.093 68.6298 177.709 73.039 175.6 74.1892 167.932 71.3137 160.839 68.8215 155.088 64.4124 151.446 60.5783 151.446ZM66.9045 174.258C66.7128 174.45 66.3294 174.45 65.946 174.45 63.8372 174.45 60.77 171.958 58.853 167.357 56.3608 161.606 57.7027 156.43 59.6198 155.472 59.8115 155.28 60.1949 155.28 60.5783 155.28 62.687 155.28 65.7543 157.772 67.6713 162.373 70.1635 168.124 68.8215 173.3 66.9045 174.258Z" fill="#A2C8C4" transform="matrix(1.00035 0 0 1 801 1649.1)"/><path d="M60.5783 193.62C59.6198 193.62 58.853 193.812 57.8944 194.196 53.4853 196.304 52.335 203.972 55.2106 211.066 57.7027 216.817 61.9202 220.459 65.946 220.459 66.9045 220.459 67.6713 220.267 68.6298 219.884 73.039 217.775 74.1892 210.107 71.3137 203.014 68.8215 197.263 64.4124 193.62 60.5783 193.62ZM66.9045 216.433C66.7128 216.625 66.3294 216.625 65.946 216.625 63.8372 216.625 60.77 214.133 58.853 209.532 56.3608 203.781 57.7027 198.605 59.6198 197.646 59.8115 197.455 60.1949 197.455 60.5783 197.455 62.687 197.455 65.7543 199.947 67.6713 204.548 70.1635 210.299 68.8215 215.475 66.9045 216.433Z" fill="#A2C8C4" transform="matrix(1.00035 0 0 1 801 1649.1)"/><path d="M149.145 130.933C148.378 130.55 147.42 130.358 146.461 130.358 142.627 130.358 138.218 134.001 135.726 139.752 132.851 146.845 134.001 154.321 138.41 156.622 139.177 157.005 140.135 157.197 141.094 157.197 144.928 157.197 149.337 153.554 151.829 147.803 154.705 140.71 153.554 133.234 149.145 130.933ZM148.187 146.27C146.27 150.871 143.011 153.363 141.094 153.363 140.71 153.363 140.519 153.363 140.135 153.171 138.218 152.213 136.876 147.037 139.368 141.285 141.285 136.685 144.544 134.192 146.461 134.192 146.845 134.192 147.037 134.192 147.42 134.384 149.337 135.343 150.679 140.519 148.187 146.27Z" fill="#A2C8C4" transform="matrix(1.00035 0 0 1 801 1649.1)"/><path d="M149.145 173.108C148.378 172.725 147.42 172.533 146.461 172.533 142.627 172.533 138.218 176.175 135.726 181.927 132.851 189.02 134.001 196.496 138.41 198.796 139.177 199.18 140.135 199.372 141.094 199.372 144.928 199.372 149.337 195.729 151.829 189.978 154.705 182.885 153.554 175.409 149.145 173.108ZM148.187 188.445C146.27 193.045 143.011 195.538 141.094 195.538 140.71 195.538 140.519 195.538 140.135 195.346 138.218 194.387 136.876 189.211 139.368 183.46 141.285 178.859 144.544 176.367 146.461 176.367 146.845 176.367 147.037 176.367 147.42 176.559 149.337 177.517 150.679 182.693 148.187 188.445Z" fill="#A2C8C4" transform="matrix(1.00035 0 0 1 801 1649.1)"/><path d="M110.805 152.021C110.038 151.637 109.079 151.446 108.121 151.446 104.287 151.446 99.8775 155.088 97.3854 160.839 94.5098 167.932 95.66 175.409 100.069 177.709 100.836 178.093 101.795 178.284 102.753 178.284 106.587 178.284 110.996 174.642 113.488 168.891 116.364 161.798 115.214 154.321 110.805 152.021ZM109.846 167.357C107.929 171.958 104.67 174.45 102.753 174.45 102.37 174.45 102.178 174.45 101.795 174.258 99.8775 173.3 98.5356 168.124 101.028 162.373 102.945 157.772 106.204 155.28 108.121 155.28 108.504 155.28 108.696 155.28 109.079 155.472 110.996 156.43 112.338 161.606 109.846 167.357Z" fill="#A2C8C4" transform="matrix(1.00035 0 0 1 801 1649.1)"/><path d="M110.805 194.196C110.038 193.812 109.079 193.62 108.121 193.62 104.287 193.62 99.8775 197.263 97.3854 203.014 94.5098 210.107 95.66 217.583 100.069 219.884 100.836 220.267 101.795 220.459 102.753 220.459 106.587 220.459 110.996 216.817 113.488 211.066 116.364 203.972 115.214 196.496 110.805 194.196ZM109.846 209.532C107.929 214.133 104.67 216.625 102.753 216.625 102.37 216.625 102.178 216.625 101.795 216.433 99.8775 215.475 98.5356 210.299 101.028 204.548 102.945 199.947 106.204 197.455 108.121 197.455 108.504 197.455 108.696 197.455 109.079 197.646 110.996 198.605 112.338 203.781 109.846 209.532Z" fill="#A2C8C4" transform="matrix(1.00035 0 0 1 801 1649.1)"/><path d="M134.001 88.9504 137.451 90.6757C138.602 89.1421 139.56 87.4168 140.327 85.4997 143.202 78.215 141.861 71.122 137.26 69.5884 136.685 69.3967 136.109 69.2049 135.343 69.2049 131.125 69.2049 126.524 73.4224 124.032 79.7486 123.457 81.0906 123.074 82.4325 122.882 83.7744L126.524 85.4997C126.716 84.1578 127.099 82.6242 127.674 81.0906 129.592 76.1063 133.234 73.039 135.534 73.039 135.726 73.039 135.918 73.039 136.109 73.039 136.685 73.2307 137.068 73.6141 137.451 74.3809 138.41 76.6814 138.218 80.3238 136.876 83.9661 136.109 85.8831 134.959 87.6085 134.001 88.9504Z" fill="#A2C8C4" transform="matrix(1.00035 0 0 1 801 1649.1)"/><path d="M187.486 150.104C186.527 147.228 183.077 145.695 178.859 145.695 176.559 145.695 174.067 146.078 171.383 147.228 170.424 147.612 169.466 147.995 168.507 148.57L168.507 120.773C168.507 120.39 168.507 120.198 168.507 119.815 168.507 119.815 168.507 119.815 168.507 119.815 174.067 116.747 177.326 111.763 175.984 107.929 175.025 105.053 171.575 103.52 167.357 103.52 165.632 103.52 163.715 103.712 161.798 104.287L161.798 104.287C159.689 101.986 157.389 100.069 154.705 98.7273L98.7273 71.8888C100.644 65.1792 99.3024 59.0447 95.0849 57.7027 94.5098 57.511 93.9347 57.3193 93.1679 57.3193 88.9504 57.3193 84.3495 61.5368 81.8574 67.863 81.6657 68.2464 81.6657 68.6298 81.474 69.0132 81.474 69.0132 81.474 69.0132 81.474 69.0132 77.4482 69.2049 73.4224 70.1635 70.3552 71.6971L13.8026 98.919C6.13451 102.561 0 112.338 0 120.773L0 185.952C0 194.387 5.94281 204.739 13.4192 208.957L70.9303 241.546C74.5726 243.655 79.3652 244.614 84.3495 244.614 89.3338 244.614 93.9347 243.655 97.7688 241.546L155.28 208.957C162.565 204.739 168.699 194.387 168.699 185.952L168.699 164.865C169.082 164.865 169.466 164.865 169.849 164.865 172.15 164.865 174.642 164.482 177.326 163.331 184.61 160.648 189.211 154.705 187.486 150.104ZM167.549 107.354C170.041 107.354 172.15 108.121 172.533 109.271 173.108 110.613 171.383 113.488 168.124 115.789 168.124 115.789 168.124 115.789 168.124 115.789 167.357 112.913 166.207 110.229 164.482 107.737 164.482 107.737 164.482 107.737 164.482 107.737 165.44 107.546 166.399 107.354 167.549 107.354ZM163.14 106.012C163.14 106.012 163.14 106.012 163.14 106.012 163.14 106.012 163.14 106.012 163.14 106.012ZM98.1522 71.6971C97.7688 71.5054 97.1937 71.3137 96.6185 71.122 97.1937 71.3137 97.7688 71.5054 98.1522 71.6971ZM93.3596 61.3451C93.5513 61.3451 93.743 61.3451 93.9347 61.3451 94.5098 61.5368 94.8932 61.9202 95.2766 62.687 96.2351 64.6041 96.0434 67.4796 95.2766 70.5469 95.2766 70.5469 95.2766 70.5469 95.2766 70.5469 92.4011 69.5884 89.1421 69.0132 85.6915 69.0132 87.6085 64.2207 91.0591 61.3451 93.3596 61.3451ZM17.0616 105.82 73.8058 78.7901C76.4897 77.4482 80.3238 76.8731 84.3495 76.8731 88.3753 76.8731 92.2094 77.6399 94.8932 78.7901L151.637 105.82C152.788 106.395 153.938 107.162 154.896 108.121L84.1578 147.228 13.8026 108.121C14.9529 107.162 15.9114 106.395 17.0616 105.82ZM17.0616 202.247C12.269 199.372 7.66814 191.703 7.66814 185.952L7.66814 120.773C7.66814 118.664 8.24325 116.556 9.39347 114.255 9.58517 114.255 9.58517 114.447 9.77688 114.447L80.7072 153.938 80.7072 236.754C78.5984 236.37 76.4897 235.795 74.9561 235.028L17.0616 202.247ZM161.031 185.952C161.031 191.703 156.43 199.372 151.637 202.247L93.9347 235.028C92.4011 235.987 90.484 236.562 88.1836 236.754L88.1836 153.746 159.114 114.639C159.306 114.639 159.306 114.447 159.497 114.447 160.456 116.556 161.223 118.856 161.223 120.965L161.223 185.952ZM169.849 161.031C169.466 161.031 169.082 161.031 168.699 161.031L168.699 153.171C169.849 152.213 171.191 151.446 172.917 150.871 175.025 150.104 176.942 149.72 178.859 149.72 181.351 149.72 183.46 150.487 183.844 151.637 184.419 153.554 181.543 157.772 175.792 160.072 173.875 160.648 171.766 161.031 169.849 161.031Z" fill="#A2C8C4" transform="matrix(1.00035 0 0 1 801 1649.1)"/></g></svg>