<svg width="634" height="261" xmlns="http://www.w3.org/2000/svg" xmlns:xlink="http://www.w3.org/1999/xlink" xml:space="preserve" overflow="hidden"><defs><clipPath id="clip0"><rect x="82" y="1347" width="634" height="261"/></clipPath></defs><g clip-path="url(#clip0)" transform="translate(-82 -1347)"><path d="M525.881 196.494 529.354 197.652C529.354 197.652 529.354 197.652 535.142 200.546 535.915 200.933 536.476 201.213 536.883 201.417 536.885 201.417 536.888 201.419 536.894 201.424 536.89 201.419 536.888 201.419 536.885 201.417 536.894 201.424 536.906 201.428 536.915 201.433 536.922 201.435 536.926 201.437 536.933 201.442L536.919 201.435C536.935 201.442 536.951 201.451 536.964 201.457L536.976 201.462C536.987 201.469 536.998 201.473 537.01 201.48 537.005 201.478 537.001 201.476 536.996 201.473 537.005 201.478 537.016 201.482 537.028 201.489 537.062 201.505 537.096 201.523 537.127 201.539 537.111 201.53 537.098 201.523 537.084 201.516 537.114 201.532 537.148 201.55 537.184 201.568 537.186 201.568 537.188 201.571 537.193 201.571L537.283 201.616C537.317 201.634 537.349 201.65 537.378 201.666 537.383 201.668 537.387 201.67 537.392 201.67L537.383 201.668C537.41 201.679 537.437 201.693 537.46 201.704 539.773 202.862 541.222 202.862 544.114 201.125 547.008 199.389 551.928 201.704 551.928 201.704 551.928 201.704 551.928 201.704 554.244 201.704 556.559 201.704 558.875 200.546 558.875 200.546L563.505 201.125C563.505 201.125 568.136 199.967 574.503 198.231L579.139 197.652 583.769 197.652C583.769 197.652 591.873 195.916 597.083 194.758 600.78 193.935 601.266 193.989 601.239 194.091 601.759 193.652 604.092 191.601 604.608 189.548 605.186 187.233 607.502 188.969 609.238 187.812 610.975 186.654 612.133 185.496 613.29 183.76 614.448 182.023 616.763 180.866 617.921 179.129 619.079 177.393 622.552 173.92 624.288 173.341 626.025 172.762 630.418 170.562 630.418 170.562 630.418 170.562 630.393 169.653 625.867 162.652 621.342 155.654 602.204 144.984 593.435 135.377 584.665 125.769 570.779 124.514 570.779 124.514 570.779 124.514 569.475 121.792 569.395 119.063 569.312 116.336 572.036 110.814 576.929 104.3 581.822 97.7859 582.854 90.1321 582.772 87.4029 582.679 84.3844 581.54 81.7705 582.06 78.7384 582.761 74.6548 584.423 70.8833 584.972 66.741 585.436 63.225 585.32 59.4421 586.204 56.0007 586.327 55.5395 586.46 54.99 586.593 54.384 586.557 54.3976 586.523 54.4067 586.483 54.4202 589.806 53.3394 578.836 31.0608 578.008 29.2315 577.63 28.4017 576.213 26.4119 576.296 25.4645 576.296 25.4645 576.403 24.2164 575.76 21.5981 575.116 18.9797 574.87 14.5592 574.994 13.7 575.116 12.8385 577.596 9.59612 577.596 9.59612L577.94 5.34525C577.94 5.34525 577.522 4.73927 577.128 5.49448 576.735 6.24969 575.959 9.50342 575.959 9.50342L574.162 11.2806 574.777 6.98229 574.042 2.03725C574.042 2.03725 573.59 0.377604 573.162 1.39736 572.737 2.41938 572.939 3.63133 572.939 3.63133L573.187 7.15865 572.357 10.8827 572.025 4.1333 570.951 0.725814C570.951 0.725814 569.938-0.664765 569.782 0.411521 569.628 1.48554 570.531 4.25992 570.531 4.25992L570.408 6.60468 570.031 10.9709 568.801 10.3581 565.859 5.53518 563.872 1.37249C563.872 1.37249 562.82 0.542665 562.642 1.65513 562.461 2.76759 564.163 6.96194 564.163 6.96194L566.081 11.3553C566.081 11.3553 568.251 17.311 567.295 17.7225 566.338 18.134 565.846 17.4286 564.785 17.1188 563.725 16.809 562.205 16.2098 561.586 16.1307 560.188 15.9543 559.503 17.2432 559.503 17.2432 559.503 17.2432 560.579 17.9419 561.993 18.3534 563.408 18.7672 565.717 22.2538 566.49 23.1175 567.261 23.9835 568.878 24.5827 570.124 24.689 571.374 24.7975 572.473 27.1672 572.473 27.1672 572.473 27.1672 574.022 35.02 575.403 41.8146 573.954 41.2583 572.315 40.8875 570.476 40.7428 562.556 40.112 557.527 46.3164 557.527 46.3164 557.527 46.3164 557.527 46.3164 555.903 46.2124 554.28 46.1107 548.584 47.6324 546.64 51.5961 544.695 55.5621 547.298 58.9424 550.395 59.1527 551.451 59.2228 552.396 59.1753 553.188 59.0804 553.224 60.1679 553.382 60.9118 553.577 61.4251 553.554 61.4884 551.478 61.0091 551.478 61.0091L553.337 61.961C552.894 62.8609 552.005 64.1656 550.325 65.122 549.688 65.4838 550.531 66.1938 551.429 66.6076 551.788 66.7749 552.374 66.8631 552.946 66.9083 552.742 68.2695 552.923 70.0897 552.923 70.0897 552.923 70.0897 552.824 71.9845 553.683 72.2264 555.062 72.6108 555.429 77.7164 556.935 77.843 557.814 77.9153 565.635 75.6949 565.635 75.6949 565.635 75.6949 566.002 76.4999 565.911 79.4393 565.87 80.7621 565.339 82.372 564.652 83.9231 564.631 83.9367 564.613 83.9502 564.595 83.9638 561.714 81.5263 548.397 87.9908 541.604 90.6137 536.239 92.6871 530.457 94.6565 526.089 94.8804 521.976 92.9856 512.881 89.707 511.129 89.0468 507.595 87.7104 501.999 86.2317 500.936 85.0288 500.066 84.0452 497.795 82.277 497.002 81.6688L497.165 77.2641C497.165 77.2641 496.803 77.2121 496.206 77.142L497.183 75.713C497.183 75.713 495.989 74.9872 493.961 74.5305 494.114 73.6147 494.295 72.7035 494.512 71.9279L495.394 72.301C495.394 72.301 499.27 71.2971 500.034 71.3446 500.8 71.3921 502.951 71.374 503.572 71.2587 504.194 71.1433 507.12 68.5612 507.579 68.5906 508.04 68.6177 510.381 67.9959 512.113 67.3356 513.842 66.6754 513.336 64.9547 514.159 64.0842 514.982 63.2137 515.572 61.0995 515.077 59.2251 514.58 57.3506 514.98 55.8402 515.122 53.5429 515.265 51.2479 511.145 50.8386 511.048 49.9116 510.953 48.9823 511.14 45.923 508.703 45.6178 506.265 45.3125 507.699 42.0203 503.012 40.8061 498.327 39.5942 495.478 44.0259 494.971 44.7631 494.499 45.4482 495.736 47.0897 495.912 47.3204 493.847 47.4764 490.535 47.8472 489.594 48.6815 488.192 49.9161 486.863 51.6572 486.863 51.6572 486.863 51.6572 483.801 52.4463 482.585 49.9772 482.006 48.7991 479.501 48.4238 479.372 50.4723 479.245 52.5232 480.912 54.6938 480.043 55.2953 478.696 56.2291 477.902 55.4468 478.058 56.7944 478.216 58.1397 485.095 59.7768 483.557 61.3166 480.111 64.7693 476.306 60.9232 476.17 62.8225 475.94 66.0649 474.235 67.2972 475.453 69.9133 476.12 71.3446 481.007 70.3271 481.841 71.1139 482.23 71.4825 482.354 73.5198 482.375 75.5841 479.376 76.2602 478.06 76.6333 478.06 76.6333L477.452 78.605 475.677 79.9481 474.847 79.6654 472.435 75.903 470.748 83.1724 474.072 81.298 475.343 81.2934 476.01 82.017 475.582 83.1408C470.574 86.0463 464.978 89.5578 461.141 91.4526 458.009 92.9969 454.147 94.9234 451.843 96.0381 450.559 96.6576 451.418 97.5236 450.498 97.9645 449.2 98.5863 447.352 98.1432 446.959 98.3286 445.785 98.8848 423.538 107.705 423.538 107.705 423.538 107.705 423.799 108.259 424.16 109.028L421.164 110.265C421.164 110.265 421.345 110.609 421.612 111.138 420.197 111.427 418.924 111.594 418.655 111.341 417.994 110.717 415.1 109.713 413.318 109.666 411.539 109.616 408.274 107.782 408.274 107.782 408.274 107.782 407.069 108.856 408.14 110.061 409.212 111.264 411.322 112.39 411.322 112.39 411.322 112.39 409.549 113.152 407.51 114.12 406.91 112.849 406.569 111.529 406.594 110.165 406.705 103.687 410.684 94.6837 411.742 87.9569 412.14 85.4177 412.475 82.8513 412.97 80.3279 412.895 80.2714 412.816 80.2058 412.737 80.1177 412.791 80.1787 412.895 80.2081 412.984 80.2646 412.979 80.2872 412.975 80.3076 412.97 80.3279 414.428 81.3839 415.756 77.531 415.769 76.7034 416.825 76.5225 418.042 76.3891 419.272 76.6966 422.616 77.531 417.497 87.3939 421.727 91.2197 425.958 95.0477 428.888 83.1905 433.858 80.4229 438.826 77.6576 444.024 83.247 450.043 83.3284 456.062 83.4098 455.022 75.6203 455.022 75.6203 455.022 75.6203 454.5 76.5135 453.265 78.9057 452.026 81.2957 448.402 77.6598 443.656 72.2558 438.912 66.8495 432.176 80.1606 426.58 80.7236 420.981 81.2867 424.662 74.5757 422.485 72.4254 421.139 71.0959 417.646 72.8166 415.177 74.3224 415.152 74.2931 415.127 74.2591 415.1 74.232 414.56 73.6554 413.852 73.4429 413.169 73.2462 412.721 73.115 414.286 70.2479 414.424 70.049 416.488 69.0541 417.938 67.9394 417.938 67.9394 417.938 67.9394 418.067 69.3797 420.506 68.4526 422.706 67.6183 426.643 64.2108 425.585 63.1119 424.529 62.0107 423.299 61.8321 423.299 61.8321 423.299 61.8321 426.84 60.8825 428.601 57.8164 428.832 57.4162 429.431 55.9419 432.081 54.4541 433.309 53.7645 434.887 52.0121 436.228 50.3299 437.329 49.3237 438.256 48.062 438.948 46.6217 438.991 46.5606 439.013 46.5267 439.013 46.5267 439.013 46.5267 439.002 46.5335 438.986 46.5403 439.766 44.8919 440.239 43.0084 440.302 40.9983 440.517 34.2421 436.06 28.6165 430.349 28.4356 424.635 28.2525 419.828 33.5842 419.613 40.3426 419.582 41.3782 418.919 41.7332 419.093 42.7009 416.28 42.4613 412.649 45.2153 412.649 45.2153 412.649 45.2153 412.715 45.2108 412.825 45.2085 411.064 45.8393 407.72 47.2435 406.469 49.1564 406.393 49.0592 406.327 48.9416 406.291 48.7901 406.313 48.9257 406.354 49.0863 406.417 49.2378 406.402 49.2649 406.384 49.292 406.368 49.3169 404.771 52.0596 403.293 52.487 402.352 53.2399 401.411 53.9906 399.363 56.2608 399.1 61.6512 398.836 67.0417 399.033 68.2604 400.041 69.2621 400.708 69.9246 401.821 70.4447 403.134 70.8132 403.241 71.1185 403.342 71.4893 403.419 71.9144 403.557 72.6741 403.616 73.4836 403.453 74.2343 403.446 74.2637 400.939 74.6933 400.638 74.8968 398.418 76.3936 400.896 78.9894 397.459 79.5546 389.83 80.8118 377.654 88.0813 375.574 88.5222 373.319 88.9993 363.852 85.5805 363.852 85.5805 363.852 85.5805 363.798 85.7048 363.698 85.9287 360.366 83.948 357.055 82.0147 355.64 81.3002 353.049 79.9956 343.663 77.5558 345.318 73.1602 345.024 73.2326 324.342 78.8175 324.342 78.8175L325.054 79.7966C318.931 82.6343 309.794 88.0496 308.003 88.9834 305.64 90.218 302.882 91.6561 302.882 91.6561L301.502 90.6273C301.502 90.6273 298.549 91.6561 293.428 91.4503 288.632 91.2581 278.482 87.6404 277.213 87.1813 276.947 87.5454 276.673 87.9637 276.399 88.4453 274.855 91.1451 273.734 95.7668 273.734 95.7668 273.734 95.7668 288.365 101.77 295.456 103.825 299.895 105.11 307.779 102.998 314.219 100.784 312.193 105.128 309.669 111.893 308.532 120.429 307.576 127.583 307.915 127.621 307.915 127.621L311.408 129.88 313.463 127.004C313.463 127.004 310.786 123.058 312.437 115.701 314.013 108.66 316.021 103.054 317.402 99.6445 317.436 99.631 317.475 99.6174 317.509 99.6038 317.457 100.881 317.5 102.191 317.656 103.527 317.803 104.757 318.038 106.007 318.395 107.274 322.711 122.482 324.446 129.625 328.348 134.35 328.857 134.965 330.876 141.228 331.466 141.918L329.239 153.49C329.239 153.49 304.598 170.218 300.281 180.71 295.965 191.203 282.177 231.329 282.177 231.329 282.177 231.329 282.728 232.089 283.547 233.022 283.517 233.052 283.481 233.081 283.45 233.111L286.701 235.914C286.708 235.905 286.715 235.894 286.721 235.885 287.789 236.532 288.829 236.751 289.575 235.973 291.87 233.576 305.014 208.661 309.647 203.436 314.282 198.211 315.435 194.83 315.435 194.83L315.485 190.034 321.956 186.462 320.713 186.858C320.864 186.79 321.02 186.722 321.178 186.656 322.304 186.195 325.431 184.244 329.447 181.521 329.309 183.511 329.21 185.49 329.169 187.405 329.038 193.356 329.456 198.651 330.935 201.539 335.762 210.968 355.818 244.914 355.818 244.914 355.818 244.914 356.836 244.929 358.127 244.803L358.127 244.81 362.016 243.867C362.912 243.417 363.508 242.779 363.414 241.863 363.079 238.693 353.315 214.059 352.366 207.434 351.421 200.813 349.727 197.96 349.727 197.96L346.392 195.142C346.392 195.142 346.392 195.113 346.392 195.061L346.392 195.043C346.392 195.016 346.392 194.979 346.394 194.941L346.394 194.923C346.401 194.315 346.473 192.501 346.982 190.242 347.091 189.768 347.215 189.275 347.364 188.766 348.314 185.535 364.736 160.699 366.55 147.417 375.784 142.728 378.604 137.69 377.995 137.69 377.378 137.69 362.991 130.497 360.732 127.21 358.471 123.922 349.223 112.822 347.988 104.189 347.05 97.5508 348.011 90.0869 347.877 83.3578 349.103 83.0933 349.976 83.7761 350.788 84.7303 351.884 86.0214 356.286 90.3492 360.815 93.5441 360.815 93.9353 360.886 94.1071 360.886 94.1071 360.886 94.1071 367.398 98.4846 375.841 99.4184 374.565 101.051 373.729 102.419 373.618 103.305 372.659 110.955 382.626 112.931 382.626 112.931 382.626 112.931 386.413 121.211 390.461 125.489 394.508 129.769 396.093 133.887 395.607 136.634 395.119 139.386 380.971 176.461 382.04 179.002 383.112 181.544 400.29 202.43 400.29 202.43 400.29 202.43 400.855 202.235 401.793 201.833 401.925 201.996 402.06 202.161 402.2 202.335 402.219 202.36 402.239 202.385 402.259 202.409 402.623 202.857 403.017 203.346 403.433 203.866 408.111 209.697 415.726 219.544 418.58 225.24 422.817 233.701 419.507 239.677 417.972 241.895 416.943 243.383 413.816 246.049 411.867 247.643 411.55 247.469 411.218 247.27 410.86 247.035L402.271 250.297 416.746 250.93C416.746 250.93 418.926 248.382 420.925 246.368 421.924 245.495 422.978 244.617 423.923 243.912 425.404 243.256 425.931 243.677 425.931 243.677L424.447 251.186 425.533 251.066C425.533 251.066 425.987 246.609 427.446 244.5 428.843 242.478 430.916 241.185 430.86 239.853 431.036 239.6 431.129 239.331 431.122 239.028 431.066 237.481 426.785 234.422 426.179 227.123 425.84 223.033 425.567 218.934 424.882 214.884 424.54 212.872 424.108 210.87 423.489 208.924 423.17 207.917 422.476 204.763 421.456 204.198 421.73 204.352 421.996 204.494 422.254 204.632 430.914 209.229 437.822 213.152 441.471 215.311 445.121 217.471 447.952 220.566 449.485 223.078 450.441 224.65 451.232 226.431 451.691 227.546 451.565 227.657 451.434 227.768 451.294 227.878L451.689 235.105C451.147 235.148 450.812 235.152 450.812 235.152L451.612 237.355C449.496 236.462 448.397 234.598 447.719 232.699 446.993 230.678 445.722 223.058 445.722 223.058L444.015 223.284C444.015 223.284 442.037 233.615 443.665 237.251 445.295 240.887 447.459 243.299 447.459 243.299L446.642 244.647 448.937 248.33C448.937 248.33 453.1 246.447 454.421 245.079L455.393 247.758C455.393 247.758 461.649 243.243 469.111 234.277 471.937 230.879 478.44 222.101 485.565 212.218 491.356 219.264 497.836 226.992 499.934 231.281 503.871 239.338 505.099 241.612 507.916 250.499L511.45 250.338C509.958 251.405 507.814 252.864 506.494 253.436 504.305 254.385 495.469 256.479 495.469 256.479L495.378 258.175C495.378 258.175 507.477 258.376 509.087 258.245 510.695 258.114 514.883 256.418 514.883 256.418L515.312 258.354 519.242 258.132C519.242 258.132 519.242 258.132 519.057 254.935 518.928 252.719 518.681 251.111 518.204 250.031L518.48 250.019C518.48 250.019 514.148 227.275 509.004 218.219 503.857 209.166 496.882 197.652 496.882 197.652L497.967 196.537 496.945 196.243C504.628 185.32 511.097 175.814 512.203 173.544 512.377 173.189 512.536 172.843 512.703 172.495 513.049 171.998 513.392 171.498 513.732 171.005 521.607 159.512 524.094 151.697 524.418 146.363 528.135 140.966 529.184 136.672 529.184 136.672 529.184 136.672 513.191 127.725 509.96 125.507 506.727 123.289 501.743 113.568 501.002 102.087 500.737 97.9781 500.142 94.3196 499.491 91.3124 499.998 91.4707 500.538 91.5792 501.128 91.6041 504.013 91.7239 504.61 91.0885 506.514 92.8838 508.418 94.6769 523.782 103.036 527.192 103.787 534.143 105.318 541.331 101.856 548.062 100.97 547.377 104.354 551.325 105.982 552.236 108.811 553.258 111.965 552.742 120.478 552.742 120.478L551.361 125.828C551.361 125.828 547.929 128.146 544.465 134.961 540.309 143.137 538.165 151.449 537.539 152.674 535.628 156.419 539.196 152.122 532.648 160.05 526.102 167.977 513.338 194.955 513.338 194.955 513.338 194.955 513.555 195.237 513.962 195.701L518.934 194.758ZM401.816 59.3087 408.954 64.5183C408.954 64.5183 407.797 65.0972 405.289 63.5551 402.782 62.0107 401.816 59.3087 401.816 59.3087ZM485.411 53.7148C486.225 52.5277 487.788 50.9268 489.208 50.764 490.827 50.5809 491.772 53.2399 491.01 54.4632 490.969 54.5265 497.823 58.8927 497.823 58.8927 497.979 58.9877 497.425 59.4195 497.205 59.2861L490.171 55.6751C490.169 55.6729 490.171 55.6661 490.169 55.6616 489.852 56.064 489.508 56.4439 489.135 56.7899 488.421 57.4524 487.826 57.4591 486.919 57.3122 486.128 57.1833 484.875 57.0295 484.618 56.1161 484.414 55.4015 484.936 54.2687 485.411 53.7148ZM412.366 120.146C412.357 120.137 412.346 120.13 412.339 120.121 412.488 120.053 412.577 120.015 412.577 120.015ZM475.494 198.475C475.77 199.199 476.315 200.148 477.057 201.263 471.429 211.836 461.615 230.391 459.3 232.507 457.478 234.178 454.448 234.793 452.542 235.021L456.793 223.456C456.793 223.456 452.637 216.74 452.331 214.834 452.031 212.928 452.673 212.501 452.673 212.501L459.375 216.195 459.592 215.126C459.592 215.126 455.483 213.337 453.914 211.307 452.347 209.276 451.762 206.78 450.353 206.604 448.94 206.43 446.837 206.828 446.837 206.828 446.837 206.828 446.902 206.941 447.018 207.135 444.856 208.177 441.293 210.959 438.539 207.321 435.439 203.228 427.746 190.808 423.278 188.795 421.935 188.192 420.511 187.642 419.175 187.167 420.59 184.96 420.97 183.694 420.97 183.694 420.97 183.694 411.546 176.594 412.957 173.906 414.365 171.217 426.132 156.536 428.33 146.483 430.528 136.433 426.293 130.287 420.38 126.197 418.428 124.847 416.251 123.345 414.214 121.711 415.292 121.071 416.491 120.297 417.795 119.37 419.833 117.928 421.981 116.813 423.808 115.997 424.212 117.003 424.215 117.008 424.215 117.008L426.951 115.87C427.143 116.582 427.272 117.114 427.272 117.114 427.272 117.114 447.061 112.605 455.827 109.89 458.475 109.067 462.407 107.506 466.676 105.587 468.051 109.618 471.137 118.391 473 121.532 477.5 129.118 486.723 141.735 490.971 146.723 491.286 147.092 491.589 147.46 491.885 147.826 492.319 150.433 493.038 152.855 493.038 152.855 493.038 152.855 473.337 192.804 475.494 198.475ZM553.954 120.955 568.425 120.377 569.873 124.428C569.873 124.428 567.847 125.586 562.926 125.586 558.006 125.586 553.086 125.586 553.086 125.586ZM537.46 201.704C537.457 201.704 537.457 201.704 537.457 201.704 537.448 201.699 537.444 201.697 537.435 201.693 537.444 201.697 537.451 201.699 537.46 201.704ZM327.231 65.9654C327.34 66.1101 327.595 66.2616 327.939 66.4109 327.659 66.3747 327.496 66.3521 327.496 66.3521L328.321 66.5646C330.069 67.2135 333.192 67.8173 333.192 67.8173 333.192 67.8173 332.708 69.5493 332.298 71.7606L343.036 70.9783C342.874 69.6623 347.805 67.2249 347.864 67.1932 350.853 65.5471 353.955 63.953 356.736 61.9655 362.122 58.1194 360.115 51.786 359.703 48.4984 359.292 45.2085 360.935 38.2217 360.935 38.2217 360.935 38.2217 360.935 38.2217 359.292 40.277 357.648 42.3324 358.224 44.5776 357.813 43.9604 357.401 43.3453 353.539 40.6885 353.333 35.7571 353.128 30.8234 356.621 28.768 356.621 28.768 356.621 28.768 356.621 28.768 354.36 28.976 352.099 29.1795 351.072 33.496 351.072 33.496 351.072 33.496 350.252 30.8234 351.072 28.3565 351.893 25.8919 356.621 21.7812 356.621 21.7812 356.621 21.7812 355.387 21.1639 351.276 21.987 347.167 22.8077 345.524 28.5645 345.524 28.5645 345.524 28.5645 345.112 24.6596 344.495 25.2746 343.88 25.8919 340.798 31.8522 342.234 38.2217 342.593 39.8045 343.116 41.3488 343.697 42.7733 340.825 43.7817 337.097 45.3057 337.097 46.4431 337.097 47.2141 336.846 48.2384 336.493 49.1677 336.271 49.2604 336.029 49.3576 335.778 49.4526 335.792 49.2491 335.808 49.1157 335.808 49.1157L335.749 49.4639C334.795 49.8211 333.689 50.1422 332.78 50.1422 330.725 50.1422 328.466 49.5249 328.466 49.5249L327.643 50.7595C327.643 50.7595 329.083 52.4033 330.315 53.6356 329.492 55.8967 329.083 59.8017 328.26 61.6512 327.437 63.5008 326.616 65.1424 327.231 65.9654ZM607.495 199.694C608.682 198.717 609.856 197.426 610.76 197.085 611.662 196.741 616.883 189.067 616.883 189.067 616.883 189.067 617.684 185.6 618.864 184.624 620.051 183.647 623.379 182.91 623.379 182.91L623.888 180.081 625.683 179.084 626.545 177.492 629.826 175.507 631.286 173.585 628.946 171.903 622.552 176.235 620.815 180.287 616.184 186.075C616.184 186.075 612.133 191.864 608.659 193.021 605.186 194.179 604.608 195.337 604.608 195.337L596.504 197.652C596.504 197.652 590.715 201.125 587.821 201.125 584.927 201.125 571.03 202.283 567.557 202.862 564.084 203.44 558.875 205.177 555.401 204.598 551.928 204.019 546.14 204.019 546.14 204.019 546.14 204.019 541.681 205.177 539.194 205.177 536.754 205.177 533.295 204.729 530.801 204.019 529.489 203.646 528.164 201.842 527.328 201.125 525.867 199.872 524.508 201.77 521.829 200.836 520.716 200.447 521.56 197.645 520.477 197.331 516.949 196.304 513.962 195.701 513.962 195.701L512.967 197.492C512.967 197.492 514.258 199.637 515.792 199.9 517.325 200.162 518.29 201.693 518.29 201.693L520.841 205.05 522.417 206.561 525.302 205.756 528.555 207.922 530.077 207.872 533.932 208.121C536.368 216.541 539.565 226.947 542.029 232.654 546.619 243.288 546.949 252.14 546.242 254.996 546.02 255.887 545.5 256.687 544.894 257.366 544.399 257.343 544.114 257.189 544.114 257.189L539.282 260.323 549.161 260.027C549.161 260.027 550.859 252.061 552.363 250.055 553.866 248.048 553.866 248.048 553.866 248.048L555.695 255.098 556.948 254.521C556.948 254.521 555.105 247.88 555.802 245.438 556.498 242.992 557.154 241.78 556.57 240.733 556.521 240.64 556.46 240.55 556.399 240.462 556.369 240.075 556.245 239.747 555.996 239.48 554.802 238.207 548.415 238.616 548.736 228.758 549.055 218.9 550.698 218.952 550.016 208.236 550.013 208.211 550.011 208.187 550.009 208.159 551.209 208.275 552.035 208.399 552.035 208.399L554.784 208.621 558.162 209.448 560.55 207.963C560.55 207.963 561.522 209.652 563.926 208.632 566.327 207.614 568.688 205.349 569.613 205.631 570.535 205.914 573.861 205.179 575.078 205.139 576.296 205.098 578.666 203.144 579.016 204.383 579.166 204.933 581.581 204.917 584.219 204.729 584.886 204.68 587.722 208.829 588.208 209.396 594.43 216.6 600.648 224.186 607.836 230.461 615.888 237.599 619.658 244.916 620.184 247.6 620.352 248.436 620.23 249.314 619.985 250.123 619.558 250.3 619.257 250.284 619.257 250.284L616.426 254.822 624.623 250.679C624.623 250.679 622.916 243.311 623.391 241.029 623.865 238.748 623.865 238.748 623.865 238.748L628.177 243.957 629.005 242.978C629.005 242.978 624.838 238.119 624.46 235.788 624.085 233.457 624.159 232.177 623.257 231.528 623.176 231.471 623.09 231.417 623.002 231.367 622.823 231.053 622.59 230.825 622.278 230.7 620.774 230.099 615.558 232.961 611.947 224.541 608.711 217.025 607.38 207.981 601.406 201.955 601.643 201.833 601.777 201.758 601.777 201.758 601.777 201.758 606.308 200.671 607.495 199.694ZM252.285 49.023C251.647 49.2446 251.086 49.2649 251.086 49.2649 251.086 49.2649 251.012 48.7449 251.105 48.105 250.759 48.6861 250.34 49.0614 250.34 49.0614 250.34 49.0614 249.949 48.7109 249.61 48.1615 249.718 48.8285 249.639 49.3847 249.639 49.3847 249.639 49.3847 249.115 49.3689 248.502 49.1654 249.013 49.6063 249.309 50.0834 249.309 50.0834 249.309 50.0834 248.895 50.409 248.296 50.6464 248.972 50.6577 249.508 50.8296 249.508 50.8296 249.508 50.8296 249.4 51.3451 249.092 51.9127 249.617 51.4853 250.139 51.2773 250.139 51.2773 250.139 51.2773 250.385 51.7408 250.517 52.3717 250.643 51.7069 250.908 51.2117 250.908 51.2117 250.908 51.2117 251.396 51.4084 251.903 51.8087 251.573 51.2185 251.455 50.6691 251.455 50.6691 251.455 50.6691 251.955 50.504 252.601 50.4859 251.968 50.244 251.525 49.898 251.525 49.898 251.525 49.898 251.803 49.4526 252.285 49.023ZM487.722 56.2856C488.367 56.3829 488.862 56.4371 489.416 55.9804 489.784 55.6751 490.379 54.6305 490.524 54.1489 490.379 53.2309 489.988 51.4243 488.473 51.7838 487.399 52.0393 485.956 53.8685 485.956 53.8685 485.956 53.8685 485.992 53.8188 485.997 53.8097 485.68 54.4406 485.004 54.9606 485.739 55.596 486.239 56.0256 487.087 56.1907 487.722 56.2856ZM268.273 240.821C268.967 238.372 269.623 237.16 269.037 236.116 268.988 236.023 268.927 235.933 268.863 235.844 268.836 235.458 268.712 235.128 268.461 234.863 267.267 233.592 260.879 234.006 261.189 224.148 261.499 214.289 263.143 214.341 262.451 203.626 262.363 202.251 262.179 201.001 261.933 199.868 268.293 198.303 274.835 196.185 276.714 193.553 279.92 189.067 268.081 181.128 273.153 169.517 276.49 161.877 284.282 143.698 275.823 131.234 270.272 123.051 266.132 119.336 264.465 118.027 264.495 118.021 264.524 118.018 264.554 118.011 264.346 117.76 262.577 115.579 261.854 113.116 261.083 110.498 262.317 104.467 265.399 96.9244 266.317 94.6837 266.697 92.6849 266.763 90.9122 267.588 91.4006 268.497 91.7804 269.598 91.8596 270.242 91.9093 270.767 91.9116 271.217 91.9116 271.312 91.4322 271.432 90.9167 271.577 90.374 271.891 89.1892 272.465 88.0722 273.035 87.1633 271.389 86.4917 270.046 85.845 269.598 85.2843 268.612 84.0497 265.659 81.5851 265.659 81.5851 265.659 81.5851 265.282 81.6326 264.694 81.7027 264.49 81.0085 264.223 80.1064 263.859 79.1431 263.907 79.1273 263.952 79.116 264.004 79.0979 266.561 78.207 267.651 76.6672 268.153 74.3224 268.655 71.9799 272.44 67.7178 267.69 68.984 263.242 70.1665 264.036 67.2859 259.482 69.9404 258.6 67.2746 257.7 64.7648 257.024 62.922 259.699 61.1741 262.462 58.5332 264.875 54.5175 266.661 51.5464 261.469 39.7773 250.424 37.618 242.497 36.0669 237.906 41.1656 237.906 41.1656 237.906 41.1656 237.906 41.1656 236.251 41.1747 234.598 41.1837 231.358 43.117 229.635 47.1983 227.915 51.2818 232.073 54.4315 233.377 54.9878 233.791 55.1664 234.155 55.2591 234.479 55.293 234.725 56.4597 235.114 57.0205 235.41 57.2896 235.399 57.3845 235.381 57.4976 235.358 57.6242L232.028 58.5309 235.094 58.7389C234.865 59.4874 234.508 60.3059 233.931 60.8395 232.631 62.0424 231.912 62.2391 231.912 62.2391 231.912 62.2391 231.575 63.3516 232.441 63.58 233.31 63.8061 234.298 63.8626 234.298 63.8626L234.085 65.2554C234.085 65.2554 234.411 65.373 234.868 65.4589 235.2 65.52 235.605 65.5652 236.012 65.5268 236.975 65.4363 238.218 65.2238 238.218 65.2238L238.124 65.9925 235.72 67.3786 235.521 67.4939C235.521 67.4939 235.808 68.724 236.326 68.6335 236.832 68.5499 237.149 68.6471 237.273 69.3752 237.323 69.6714 237.382 70.2163 237.502 70.768 238.083 73.4067 240.681 72.3078 242.469 71.738 244.323 71.1456 246.164 70.5125 247.998 69.8636 247.998 69.8636 248.421 70.6414 248.513 73.574 248.552 74.6865 248.246 76.0228 247.792 77.3682 246.119 77.02 243.017 76.6582 242.707 78.6819 242.515 79.939 242.562 80.9701 243.154 81.6416 240.712 82.9734 238.171 84.5087 235.853 85.7953 230.822 88.5855 225.366 91.3259 221.073 92.149 216.736 90.8375 207.278 88.8387 205.451 88.4227 201.767 87.5861 196.022 86.8874 194.803 85.8428 193.838 85.0152 191.479 83.6427 190.539 83.1068L190.704 78.6005C190.704 78.6005 190.344 78.5485 189.747 78.4806L190.724 77.0516C190.724 77.0516 189.53 76.3258 187.502 75.869 187.755 74.3383 188.097 72.8233 188.531 71.9234 191.445 71.5413 196.75 70.37 201.858 66.7658 209.426 61.4251 203.639 55.6367 203.639 55.6367L212.987 57.8639C212.987 57.8639 212.987 57.8639 209.871 54.3026 206.755 50.7414 201.858 44.5098 194.292 43.6189 188.988 42.9949 188.714 46.5245 189.024 48.6929 186.957 48.8647 184.013 49.2423 183.136 50.0179 181.734 51.2547 180.402 52.998 180.402 52.998 180.402 52.998 177.341 53.7826 176.126 51.3157 175.548 50.1377 173.04 49.7624 172.913 51.8109 172.784 53.8617 174.453 56.0324 173.585 56.6338 172.237 57.5654 171.444 56.7853 171.6 58.133 171.756 59.4783 169.845 62.2617 169.709 64.1611 169.479 67.4035 167.776 68.6358 168.993 71.2496 169.662 72.6832 174.548 71.6657 175.382 72.4525 175.771 72.8188 175.893 74.8561 175.914 76.925 172.918 77.5988 171.602 77.9719 171.602 77.9719L168.893 85.0808C166.603 86.7133 165.531 88.1039 165.531 88.1039L163.681 93.2524C161.533 94.6407 159.519 95.9002 157.843 96.8204 154.782 98.5027 151.01 100.592 148.756 101.808 147.499 102.487 148.396 103.312 147.496 103.794 146.228 104.472 144.36 104.108 143.976 104.309 142.827 104.917 120.987 114.703 120.987 114.703 120.987 114.703 121.272 115.244 121.668 115.997L118.726 117.363C118.726 117.363 118.923 117.699 119.214 118.215 118.914 118.292 118.62 118.36 118.342 118.418 117.381 114.36 116.06 109.13 114.927 105.96 112.872 100.205 105.062 84.5856 103.007 84.1741 102.885 84.1515 102.706 84.1356 102.487 84.1266 102.344 83.7761 102.209 83.4166 102.082 83.0571 102.139 83.0661 102.191 83.0752 102.249 83.082 102.394 83.247 102.609 83.3397 102.83 83.3126 102.959 83.2968 103.075 83.2425 103.17 83.1611 103.378 83.1702 103.599 83.1747 103.841 83.1747 107.493 83.1747 108.187 80.9158 109.578 81.7864 110.968 82.6546 112.707 83.1769 114.618 81.7864 116.53 80.3958 115.314 79.3534 117.225 79.3534 119.138 79.3534 120.528 78.1347 121.048 76.9182 121.57 75.7017 124.003 74.4853 124.352 73.617 124.7 72.7487 127.133 70.3158 124.352 70.3158 121.57 70.3158 116.947 69.9879 116.601 68.075 116.252 66.1621 118.353 63.4443 118.213 59.4444 118.034 54.3818 114.846 52.0099 111.662 51.0218 110.667 50.7143 108.709 48.937 108.709 47.3746 108.709 45.8077 107.145 45.1135 106.276 45.2876 105.408 45.4617 103.321 43.5488 102.453 44.5912 101.582 45.6358 101.408 44.4171 100.714 45.9818 100.02 47.5465 97.7588 43.7229 97.9329 47.1983 98.107 50.6758 95.8889 49.2039 96.5853 50.0744 97.2591 50.9155 94.236 52.4553 97.899 53.6786 93.9782 54.8159 91.7556 57.0521 91.4571 59.2884 91.4458 59.3788 91.43 59.4602 91.4164 59.5461 89.1824 60.5749 86.3153 59.4987 85.8948 59.9848 84.8185 60.5682 86.243 62.9378 87.1113 63.6342 87.1836 63.6907 87.2447 63.7473 87.308 63.8061 86.1503 64.611 84.9926 65.4996 84.5381 66.1033L71.3039 56.0007 71.0665 56.4643C69.1219 54.9878 67.1344 53.561 65.1514 52.1433 63.1164 50.6871 60.645 49.6131 60.9005 46.6873 60.9842 45.7059 61.4636 44.8286 62.3205 44.3447 63.7224 44.2159 64.195 44.5596 63.7405 45.3803 63.6614 45.5522 63.0192 46.2667 62.8406 45.9841 62.6235 45.6426 61.4002 45.2311 61.7982 45.8552 62.7411 47.3339 65.2373 47.2797 65.0564 45.1045 64.8688 42.8841 61.3686 43.0604 60.3398 44.3628 58.2686 46.988 60.7604 49.9206 62.827 51.3949 65.4748 53.2829 68.1632 55.1076 70.759 57.0612L70.3067 57.943 84.4138 66.2933C84.4092 66.3023 84.4025 66.3114 84.3979 66.3204 84.0158 67.0869 82.2702 72.7849 83.4867 73.8273 83.6834 73.9969 84.0022 74.1936 84.3957 74.4016 84.3527 74.3948 84.3278 74.388 84.3278 74.388 84.3278 74.388 84.416 74.4265 84.5675 74.4943 86.6364 75.5593 90.4283 76.9137 90.4305 76.9137 92.348 77.5988 91.4051 83.1362 91.0908 84.3143 90.2519 87.464 88.8184 88.9834 85.6981 89.5804 80.4297 90.5866 74.89 90.9235 69.556 91.638 69.556 91.638 63.7473 87.2153 60.5908 85.732 55.804 83.4844 49.751 79.2924 49.751 79.2924 49.751 79.2924 49.4028 75.2834 48.1796 74.2049 46.9563 73.1241 44.7653 72.0749 44.7653 72.0749L43.9287 71.7945 44.8558 68.2491C47.9987 68.3373 51.0693 66.6777 52.6226 63.7043 54.7933 59.5507 53.1834 54.4247 49.0298 52.2541 44.8784 50.0834 39.7502 51.6933 37.5818 55.847 35.4111 60.0006 37.0188 65.1265 41.1724 67.2972 41.6066 67.5211 42.052 67.6974 42.5019 67.8421L41.6631 71.0371 41.0933 70.8471C40.2408 71.9641 40.5438 72.6176 41.1498 73.002L41.0775 73.2756 38.7757 72.9816C38.2511 72.916 37.7536 73.4271 37.6655 74.1257 37.5773 74.8199 37.93 75.4372 38.4501 75.5073L38.389 75.4982C37.7514 75.4168 37.1567 75.9527 37.064 76.6944 36.9894 77.2664 37.2404 77.7932 37.6519 78.0397 37.2924 78.0804 36.9781 78.4422 36.9193 78.9215 36.8492 79.4597 37.1296 79.9413 37.5411 79.9933 37.5411 79.9933 38.0973 80.0634 38.0973 80.0657 38.1041 80.1222 38.1177 80.1674 38.1267 80.2239 37.8712 80.3392 37.6722 80.6038 37.6293 80.9362 37.5682 81.4155 37.8531 81.8474 38.2669 81.8994L38.8005 81.9672 37.5976 86.5595 39.8994 87.1633 41.1362 82.4489C42.4183 82.7451 43.9626 82.987 45.4911 83.5907 50.5605 85.5986 60.6428 95.9748 62.7818 97.6842 66.6279 100.764 74.033 103.344 78.7746 101.331 77.2008 102.738 69.651 111.167 67.8557 110.862 67.8557 110.862 57.6378 109.125 54.0878 109.752 50.3118 110.416 43.2074 110.416 43.2074 110.416 43.2074 110.416 41.1905 106.367 39.5286 106.098 37.8644 105.826 35.3682 106.098 35.3682 106.098L34.9476 107.032 34.0884 103.283C36.8243 101.949 38.7146 99.1471 38.7146 95.9002 38.7146 91.3621 35.0381 87.6833 30.5 87.6833 25.9642 87.6833 22.2854 91.3621 22.2854 95.9002 22.2854 100.436 25.9642 104.115 30.5 104.115 30.9726 104.115 31.4339 104.065 31.8838 103.988L32.9488 108.635C31.7368 108.77 30.1541 109.078 30.3282 109.752 30.604 110.83 31.5514 114.477 33.2133 116.634 33.6678 117.225 34.2648 117.448 34.968 117.453L36.0646 122.249 38.3121 121.733 37.2313 117.003C38.7395 116.521 40.4828 115.791 42.3007 115.538 46.183 115 65.5923 119.316 68.3644 118.776 71.1388 118.235 71.1388 118.235 71.1388 118.235 71.1388 118.235 77.0561 115.212 83.1227 111.771 83.5545 112.589 84.0791 113.394 84.7145 114.172 87.6833 117.799 92.1332 117.139 92.1332 117.139 92.1332 117.139 97.6593 120.637 99.7576 125.172 99.4614 125.444 99.3076 125.665 99.3596 125.815 99.4546 126.079 99.7011 126.509 100.031 127.002 100.058 127.042 100.156 127.036 100.296 126.993 100.407 130.913 91.4006 131.673 89.0535 132.066 81.9899 133.247 75.1274 133.315 69.0676 137.566 62.5828 142.115 56.4778 148.346 48.7516 150.759 42.1741 152.817 34.3665 153.637 34.3665 153.637 34.3665 153.637 34.3688 153.658 34.3733 153.703 34.3755 153.719 34.3778 153.741 34.3823 153.769 34.3869 153.796 34.3891 153.825 34.3959 153.873 34.4027 153.909 34.4072 153.945 34.414 153.995 34.4276 154.085 34.4434 154.191 34.4637 154.316 34.475 154.377 34.4841 154.442 34.4976 154.519 35.0878 157.943 37.9707 170.643 49.3305 179.658 44.2679 185.836 27.0654 206.308 18.7943 209.654 15.0341 211.176 6.93254 210.708 4.44307 210.52L0 203.723 2.24075 215.786C2.24075 215.786 9.98955 216.838 12.02 218.133 14.0505 219.429 14.0505 219.429 14.0505 219.429L7.43225 221.688 8.0744 222.845C8.0744 222.845 14.2992 220.602 16.6892 221.093 19.0814 221.581 20.2889 222.124 21.2498 221.489 22.2108 220.855 22.5613 218.707 22.5613 218.707 22.5613 218.707 22.4618 218.696 22.2854 218.674 22.3759 218.253 22.3646 217.613 22.853 216.184 24.0129 212.792 27.703 210.954 34.1675 208.175 40.6343 205.396 53.8776 199.475 57.1268 193.799 58.5467 191.321 59.9418 188.972 61.0611 187.111 69.088 191.902 73.5039 194.328 77.3275 196.368 80.0136 203.789 86.1096 220.207 90.071 227.689 95.2738 237.52 96.2642 245.97 95.8007 248.755 95.656 249.639 95.206 250.458 94.6633 251.166L90.772 254.152 100.205 253.117C100.205 253.117 101.225 245.364 102.512 243.329 103.798 241.294 103.798 241.294 103.798 241.294L106.086 247.903 107.24 247.256C107.24 247.256 104.972 241.038 105.453 238.646 105.933 236.251 106.469 235.042 105.829 234.085 105.193 233.126 103.776 232.403 103.776 232.403 103.776 232.403 103.699 232.695 103.561 233.188 103.479 233.059 103.387 232.937 103.276 232.837 102.039 231.709 96.6373 232.912 96.1941 223.451 95.7487 213.989 97.3269 213.914 95.8572 203.71 95.7102 202.683 95.5135 201.738 95.2806 200.865 97.5055 200.793 99.7011 200.625 101.772 200.494 108.35 200.083 111.64 196.386 111.64 196.386 111.64 196.386 105.885 189.397 112.46 176.244 119.036 163.091 131.207 158.279 131.207 147.114 131.207 129.57 119.664 124.261 119.664 124.261 119.664 124.261 119.649 124.182 119.619 124.046 120.311 123.648 120.985 123.291 121.618 122.972 122.068 123.96 122.07 123.965 122.07 123.965L124.754 122.71C124.976 123.413 125.127 123.938 125.127 123.938 125.127 123.938 144.702 118.57 153.341 115.472 155.51 114.694 158.539 113.367 161.902 111.735 163.387 115.857 165.255 120.704 166.539 122.871 169.764 128.304 175.41 136.32 179.916 142.264 179.446 144.254 180.151 147.874 180.698 150.153 173.133 158.904 157.025 177.558 152.968 182.426 147.614 188.843 145.4 193.107 133.828 209.134 131.598 212.218 121.195 221.631 121.195 221.631L123.599 224.959C123.361 225.36 122.554 226.402 120.517 226.569 117.989 226.777 116.101 225.43 114.633 223.858 113.166 222.289 108.978 215.797 108.978 215.797L107.502 216.679C107.502 216.679 109.779 226.949 112.716 229.642 115.653 232.337 118.595 233.694 118.595 233.694L118.378 235.252 121.946 237.726C121.946 237.726 126.387 232.848 125.76 231.731 125.419 231.121 125.891 229.857 126.393 228.83L129.875 233.649C129.875 233.649 131.725 229.194 140.781 221.844 144.464 218.857 157.285 204.413 163.564 197.238 163.591 197.455 163.632 197.648 163.695 197.81 165.85 203.481 184.3 222.782 188.133 230.619 192.069 238.673 193.297 240.945 196.115 249.834L198.224 249.739C196.734 250.797 194.649 252.21 193.356 252.771 191.169 253.723 182.331 255.814 182.331 255.814L182.243 257.51C182.243 257.51 194.34 257.709 195.949 257.58 197.559 257.451 201.747 255.756 201.747 255.756L202.177 257.689 206.106 257.467C206.106 257.467 206.106 257.467 205.921 254.27 205.794 252.095 205.555 250.505 205.093 249.427L206.681 249.354C206.681 249.354 202.346 226.61 197.202 217.557 192.056 208.501 185.08 196.987 185.08 196.987L186.166 195.873 183.563 195.12C183.563 195.12 194.005 181.906 201.93 170.34 205.591 164.999 208.085 160.452 209.742 156.579 220.306 147.944 220.627 145.034 220.627 145.034 220.627 145.034 206.733 129.064 203.499 126.846 200.266 124.627 195.285 114.907 194.543 103.425 194.256 98.9662 193.582 95.0409 192.865 91.9003 193.783 92.2304 194.769 92.4361 195.897 92.3276 198.769 92.0518 199.276 91.3418 201.405 92.8567 203.538 94.3739 219.904 100.544 223.383 100.82 226.174 101.042 230.89 99.6491 235.783 97.7271 235.675 98.9165 236.016 99.8684 236.572 100.691 236.767 104.542 241.14 105.171 242.659 107.547 244.446 110.342 246.103 118.706 246.103 118.706L246.107 119.827 241.698 126.932 211.725 160.167 199.707 188.657C199.707 188.657 210.649 195.527 217.957 196.967 219.705 197.311 221.636 197.742 223.587 198.195 225.507 202.846 227.444 207.235 229.027 210.185 234.121 219.664 235.128 227.833 234.698 230.533 234.565 231.374 234.149 232.156 233.64 232.835 233.181 232.853 232.903 232.733 232.903 232.733L228.681 236.016 237.802 234.958C237.802 234.958 238.741 227.451 239.975 225.473 241.208 223.494 241.208 223.494 241.208 223.494L243.46 229.877 244.572 229.244C244.572 229.244 242.34 223.243 242.793 220.923 243.243 218.606 243.754 217.432 243.13 216.51 243.075 216.428 243.012 216.349 242.949 216.272 242.89 215.917 242.75 215.621 242.497 215.395 241.294 214.312 235.412 215.2 234.926 206.048 234.809 203.859 234.809 202.19 234.854 200.779 236.22 201.044 237.239 201.184 237.735 201.125 238.757 201.008 242.135 201.281 245.777 201.487 248.276 210.194 251.815 221.875 254.487 228.048 259.088 238.682 259.428 247.534 258.722 250.39 258.501 251.279 257.983 252.079 257.377 252.76 256.882 252.739 256.594 252.583 256.594 252.583L251.767 255.722 261.648 255.416C261.648 255.416 263.337 247.448 264.838 245.44 266.342 243.43 266.342 243.43 266.342 243.43L268.176 250.48 269.428 249.904C269.428 249.904 267.579 243.263 268.273 240.821ZM38.4636 158.485C38.432 158.485 38.4026 158.478 38.3709 158.476 38.138 157.655 37.9549 156.923 37.8169 156.296 38.0024 156.177 38.2239 156.104 38.4636 156.104 39.1193 156.104 39.653 156.638 39.653 157.294 39.653 157.952 39.1193 158.485 38.4636 158.485ZM43.4855 169.736C43.1079 169.158 42.7552 168.581 42.4228 168.007 42.4251 168.007 42.4273 168.007 42.4296 168.007 43.0876 168.007 43.6212 168.538 43.6212 169.196 43.6212 169.393 43.5692 169.574 43.4855 169.736ZM42.4296 162.453C41.7716 162.453 41.2403 161.92 41.2403 161.262 41.2403 160.606 41.7716 160.07 42.4296 160.07 43.0876 160.07 43.6212 160.606 43.6212 161.262 43.6212 161.92 43.0876 162.453 42.4296 162.453ZM42.4296 154.517C41.8168 154.517 41.3194 154.053 41.2538 153.459 41.9683 153.343 42.7529 153.21 43.5873 153.054 43.6076 153.142 43.6212 153.233 43.6212 153.328 43.6212 153.986 43.0876 154.517 42.4296 154.517ZM47.5623 173.404C47.4877 173.777 47.2344 174.085 46.8975 174.241 46.382 173.655 45.8936 173.065 45.4323 172.472 45.6471 172.172 45.9999 171.975 46.3978 171.975 46.8998 171.975 47.3317 172.287 47.5058 172.728 47.5306 172.791 47.5487 172.857 47.5623 172.925 47.5804 173.002 47.5872 173.083 47.5872 173.164 47.5872 173.246 47.5804 173.327 47.5623 173.404ZM46.3978 166.419C45.7398 166.419 45.2062 165.888 45.2062 165.23 45.2062 164.572 45.7398 164.038 46.3978 164.038 47.0536 164.038 47.5872 164.572 47.5872 165.23 47.5872 165.888 47.0536 166.419 46.3978 166.419ZM47.5623 157.536C47.5487 157.603 47.5306 157.669 47.5058 157.73 47.3317 158.173 46.8998 158.485 46.3978 158.485 45.8213 158.485 45.3419 158.076 45.2311 157.536 45.2153 157.456 45.2062 157.377 45.2062 157.294 45.2062 157.212 45.2153 157.133 45.2311 157.054 45.3419 156.511 45.8213 156.104 46.3978 156.104 46.8998 156.104 47.3317 156.416 47.5058 156.857 47.5306 156.921 47.5487 156.988 47.5623 157.054 47.5804 157.133 47.5872 157.212 47.5872 157.294 47.5872 157.377 47.5804 157.456 47.5623 157.536ZM55.5214 149.371C55.5146 150.024 54.9855 150.551 54.332 150.551 54.0584 150.551 53.8097 150.454 53.6085 150.3 54.2574 150.015 54.8951 149.701 55.5214 149.371ZM51.1959 177.983C50.8929 177.854 50.5877 177.729 50.2779 177.614 49.9297 177.309 49.5928 176.999 49.2626 176.687 49.439 176.251 49.8641 175.941 50.3661 175.941 51.0218 175.941 51.5554 176.475 51.5554 177.133 51.5554 177.465 51.4175 177.766 51.1959 177.983ZM50.3661 170.388C49.7081 170.388 49.1745 169.854 49.1745 169.196 49.1745 168.538 49.7081 168.007 50.3661 168.007 51.0218 168.007 51.5554 168.538 51.5554 169.196 51.5554 169.854 51.0218 170.388 50.3661 170.388ZM50.3661 162.453C49.7081 162.453 49.1745 161.92 49.1745 161.262 49.1745 160.606 49.7081 160.07 50.3661 160.07 51.0218 160.07 51.5554 160.606 51.5554 161.262 51.5554 161.92 51.0218 162.453 50.3661 162.453ZM50.3661 154.517C49.7081 154.517 49.1745 153.986 49.1745 153.328 49.1745 152.67 49.7081 152.136 50.3661 152.136 51.0218 152.136 51.5554 152.67 51.5554 153.328 51.5554 153.986 51.0218 154.517 50.3661 154.517ZM54.332 174.354C53.6741 174.354 53.1427 173.822 53.1427 173.164 53.1427 172.506 53.6741 171.975 54.332 171.975 54.99 171.975 55.5214 172.506 55.5214 173.164 55.5214 173.822 54.99 174.354 54.332 174.354ZM54.332 166.419C53.6741 166.419 53.1427 165.888 53.1427 165.23 53.1427 164.572 53.6741 164.038 54.332 164.038 54.99 164.038 55.5214 164.572 55.5214 165.23 55.5214 165.888 54.99 166.419 54.332 166.419ZM54.332 158.485C53.6741 158.485 53.1427 157.952 53.1427 157.294 53.1427 156.638 53.6741 156.104 54.332 156.104 54.99 156.104 55.5214 156.638 55.5214 157.294 55.5214 157.952 54.99 158.485 54.332 158.485ZM58.3003 178.322C57.6423 178.322 57.1087 177.788 57.1087 177.133 57.1087 176.475 57.6423 175.941 58.3003 175.941 58.956 175.941 59.4896 176.475 59.4896 177.133 59.4896 177.788 58.956 178.322 58.3003 178.322ZM58.3003 170.388C57.6423 170.388 57.1087 169.854 57.1087 169.196 57.1087 168.538 57.6423 168.007 58.3003 168.007 58.956 168.007 59.4896 168.538 59.4896 169.196 59.4896 169.854 58.956 170.388 58.3003 170.388ZM58.3003 162.453C57.6423 162.453 57.1087 161.92 57.1087 161.262 57.1087 160.606 57.6423 160.07 58.3003 160.07 58.956 160.07 59.4896 160.606 59.4896 161.262 59.4896 161.92 58.956 162.453 58.3003 162.453ZM58.3003 154.517C57.6423 154.517 57.1087 153.986 57.1087 153.328 57.1087 152.67 57.6423 152.136 58.3003 152.136 58.956 152.136 59.4896 152.67 59.4896 153.328 59.4896 153.986 58.956 154.517 58.3003 154.517ZM87.2175 133.796C87.0819 134.305 86.6228 134.68 86.0711 134.68 85.637 134.68 85.2617 134.445 85.0536 134.097 85.7704 133.997 86.4917 133.9 87.2175 133.796ZM62.2663 182.29C61.6105 182.29 61.0769 181.757 61.0769 181.099 61.0769 180.443 61.6105 179.909 62.2663 179.909 62.9242 179.909 63.4579 180.443 63.4579 181.099 63.4579 181.757 62.9242 182.29 62.2663 182.29ZM63.433 173.404C63.4194 173.472 63.3991 173.537 63.3742 173.601 63.2001 174.042 62.7705 174.354 62.2663 174.354 61.6919 174.354 61.2126 173.947 61.1018 173.404 61.086 173.327 61.0769 173.246 61.0769 173.164 61.0769 173.083 61.086 173.002 61.1018 172.925 61.2126 172.382 61.6919 171.975 62.2663 171.975 62.7705 171.975 63.2001 172.287 63.3742 172.728 63.3991 172.791 63.4194 172.857 63.433 172.925 63.4488 173.002 63.4579 173.083 63.4579 173.164 63.4579 173.246 63.4488 173.327 63.433 173.404ZM62.2663 166.419C61.6105 166.419 61.0769 165.888 61.0769 165.23 61.0769 164.572 61.6105 164.038 62.2663 164.038 62.9242 164.038 63.4579 164.572 63.4579 165.23 63.4579 165.888 62.9242 166.419 62.2663 166.419ZM63.433 157.536C63.4194 157.603 63.3991 157.669 63.3742 157.73 63.2001 158.173 62.7705 158.485 62.2663 158.485 61.6919 158.485 61.2126 158.076 61.1018 157.536 61.086 157.456 61.0769 157.377 61.0769 157.294 61.0769 157.212 61.086 157.133 61.1018 157.054 61.2126 156.511 61.6919 156.104 62.2663 156.104 62.7705 156.104 63.2001 156.416 63.3742 156.857 63.3991 156.921 63.4194 156.988 63.433 157.054 63.4488 157.133 63.4579 157.212 63.4579 157.294 63.4579 157.377 63.4488 157.456 63.433 157.536ZM62.2663 150.551C61.6105 150.551 61.0769 150.017 61.0769 149.359 61.0769 148.704 61.6105 148.17 62.2663 148.17 62.9242 148.17 63.4579 148.704 63.4579 149.359 63.4579 150.017 62.9242 150.551 62.2663 150.551ZM66.2345 186.256C65.5765 186.256 65.0452 185.725 65.0452 185.067 65.0452 184.409 65.5765 183.875 66.2345 183.875 66.8925 183.875 67.4238 184.409 67.4238 185.067 67.4238 185.725 66.8925 186.256 66.2345 186.256ZM66.2345 178.322C65.5765 178.322 65.0452 177.788 65.0452 177.133 65.0452 176.475 65.5765 175.941 66.2345 175.941 66.8925 175.941 67.4238 176.475 67.4238 177.133 67.4238 177.788 66.8925 178.322 66.2345 178.322ZM66.2345 170.388C65.5765 170.388 65.0452 169.854 65.0452 169.196 65.0452 168.538 65.5765 168.007 66.2345 168.007 66.8925 168.007 67.4238 168.538 67.4238 169.196 67.4238 169.854 66.8925 170.388 66.2345 170.388ZM66.2345 162.453C65.5765 162.453 65.0452 161.92 65.0452 161.262 65.0452 160.606 65.5765 160.07 66.2345 160.07 66.8925 160.07 67.4238 160.606 67.4238 161.262 67.4238 161.92 66.8925 162.453 66.2345 162.453ZM66.2345 154.517C65.5765 154.517 65.0452 153.986 65.0452 153.328 65.0452 152.67 65.5765 152.136 66.2345 152.136 66.8925 152.136 67.4238 152.67 67.4238 153.328 67.4238 153.986 66.8925 154.517 66.2345 154.517ZM66.2345 146.583C65.5765 146.583 65.0452 146.049 65.0452 145.393 65.0452 144.735 65.5765 144.202 66.2345 144.202 66.8925 144.202 67.4238 144.735 67.4238 145.393 67.4238 146.049 66.8925 146.583 66.2345 146.583ZM70.2547 190.218C69.8975 190.014 69.5312 189.804 69.1536 189.584 69.0654 189.419 69.0111 189.234 69.0111 189.033 69.0111 188.377 69.5447 187.843 70.2027 187.843 70.8584 187.843 71.3921 188.377 71.3921 189.033 71.3921 189.673 70.8878 190.19 70.2547 190.218ZM70.2027 182.29C69.5447 182.29 69.0111 181.757 69.0111 181.099 69.0111 180.443 69.5447 179.909 70.2027 179.909 70.8584 179.909 71.3921 180.443 71.3921 181.099 71.3921 181.757 70.8584 182.29 70.2027 182.29ZM70.2027 174.354C69.5447 174.354 69.0111 173.822 69.0111 173.164 69.0111 172.506 69.5447 171.975 70.2027 171.975 70.8584 171.975 71.3921 172.506 71.3921 173.164 71.3921 173.822 70.8584 174.354 70.2027 174.354ZM70.2027 166.419C69.5447 166.419 69.0111 165.888 69.0111 165.23 69.0111 164.572 69.5447 164.038 70.2027 164.038 70.8584 164.038 71.3921 164.572 71.3921 165.23 71.3921 165.888 70.8584 166.419 70.2027 166.419ZM70.2027 158.485C69.5447 158.485 69.0111 157.952 69.0111 157.294 69.0111 156.638 69.5447 156.104 70.2027 156.104 70.8584 156.104 71.3921 156.638 71.3921 157.294 71.3921 157.952 70.8584 158.485 70.2027 158.485ZM70.2027 150.551C69.5447 150.551 69.0111 150.017 69.0111 149.359 69.0111 148.704 69.5447 148.17 70.2027 148.17 70.8584 148.17 71.3921 148.704 71.3921 149.359 71.3921 150.017 70.8584 150.551 70.2027 150.551ZM70.2027 142.615C69.5447 142.615 69.0111 142.083 69.0111 141.425 69.0111 140.767 69.5447 140.236 70.2027 140.236 70.8584 140.236 71.3921 140.767 71.3921 141.425 71.3921 142.083 70.8584 142.615 70.2027 142.615ZM75.3513 193.078C74.7566 192.75 74.1325 192.406 73.4745 192.04 73.669 191.898 73.9087 191.809 74.1687 191.809 74.8267 191.809 75.3603 192.343 75.3603 193.001 75.3603 193.028 75.3535 193.053 75.3513 193.078ZM74.1687 186.256C73.5107 186.256 72.9794 185.725 72.9794 185.067 72.9794 184.409 73.5107 183.875 74.1687 183.875 74.8267 183.875 75.3603 184.409 75.3603 185.067 75.3603 185.725 74.8267 186.256 74.1687 186.256ZM74.1687 178.322C73.5107 178.322 72.9794 177.788 72.9794 177.133 72.9794 176.475 73.5107 175.941 74.1687 175.941 74.8267 175.941 75.3603 176.475 75.3603 177.133 75.3603 177.788 74.8267 178.322 74.1687 178.322ZM74.1687 170.388C73.5107 170.388 72.9794 169.854 72.9794 169.196 72.9794 168.538 73.5107 168.007 74.1687 168.007 74.8267 168.007 75.3603 168.538 75.3603 169.196 75.3603 169.854 74.8267 170.388 74.1687 170.388ZM74.1687 162.453C73.5107 162.453 72.9794 161.92 72.9794 161.262 72.9794 160.606 73.5107 160.07 74.1687 160.07 74.8267 160.07 75.3603 160.606 75.3603 161.262 75.3603 161.92 74.8267 162.453 74.1687 162.453ZM74.1687 154.517C73.5107 154.517 72.9794 153.986 72.9794 153.328 72.9794 152.67 73.5107 152.136 74.1687 152.136 74.8267 152.136 75.3603 152.67 75.3603 153.328 75.3603 153.986 74.8267 154.517 74.1687 154.517ZM74.1687 146.583C73.5107 146.583 72.9794 146.049 72.9794 145.393 72.9794 144.735 73.5107 144.202 74.1687 144.202 74.8267 144.202 75.3603 144.735 75.3603 145.393 75.3603 146.049 74.8267 146.583 74.1687 146.583ZM74.1687 138.649C73.5107 138.649 72.9794 138.115 72.9794 137.457 72.9794 137.353 72.9974 137.253 73.0223 137.156 73.5786 136.88 74.1393 136.627 74.7068 136.401 75.0935 136.598 75.3603 136.996 75.3603 137.457 75.3603 138.115 74.8267 138.649 74.1687 138.649ZM79.3037 189.275C79.2901 189.342 79.2697 189.408 79.2449 189.469 79.0708 189.912 78.6389 190.224 78.1369 190.224 77.5626 190.224 77.081 189.817 76.9702 189.275 76.9544 189.196 76.9476 189.116 76.9476 189.033 76.9476 188.951 76.9544 188.87 76.9702 188.793 77.081 188.25 77.5626 187.843 78.1369 187.843 78.6389 187.843 79.0708 188.155 79.2449 188.596 79.2697 188.66 79.2901 188.725 79.3037 188.793 79.3195 188.87 79.3285 188.951 79.3285 189.033 79.3285 189.116 79.3195 189.196 79.3037 189.275ZM78.1369 182.29C77.479 182.29 76.9476 181.757 76.9476 181.099 76.9476 180.443 77.479 179.909 78.1369 179.909 78.7927 179.909 79.3285 180.443 79.3285 181.099 79.3285 181.757 78.7927 182.29 78.1369 182.29ZM79.3037 173.404C79.2901 173.472 79.2697 173.537 79.2449 173.601 79.0708 174.042 78.6389 174.354 78.1369 174.354 77.5626 174.354 77.081 173.947 76.9702 173.404 76.9544 173.327 76.9476 173.246 76.9476 173.164 76.9476 173.083 76.9544 173.002 76.9702 172.925 77.081 172.382 77.5626 171.975 78.1369 171.975 78.6389 171.975 79.0708 172.287 79.2449 172.728 79.2697 172.791 79.2901 172.857 79.3037 172.925 79.3195 173.002 79.3285 173.083 79.3285 173.164 79.3285 173.246 79.3195 173.327 79.3037 173.404ZM78.1369 166.419C77.479 166.419 76.9476 165.888 76.9476 165.23 76.9476 164.572 77.479 164.038 78.1369 164.038 78.7927 164.038 79.3285 164.572 79.3285 165.23 79.3285 165.888 78.7927 166.419 78.1369 166.419ZM79.3037 157.536C79.2901 157.603 79.2697 157.669 79.2449 157.73 79.0708 158.173 78.6389 158.485 78.1369 158.485 77.5626 158.485 77.081 158.076 76.9702 157.536 76.9544 157.456 76.9476 157.377 76.9476 157.294 76.9476 157.212 76.9544 157.133 76.9702 157.054 77.081 156.511 77.5626 156.104 78.1369 156.104 78.6389 156.104 79.0708 156.416 79.2449 156.857 79.2697 156.921 79.2901 156.988 79.3037 157.054 79.3195 157.133 79.3285 157.212 79.3285 157.294 79.3285 157.377 79.3195 157.456 79.3037 157.536ZM78.1369 150.551C77.479 150.551 76.9476 150.017 76.9476 149.359 76.9476 148.704 77.479 148.17 78.1369 148.17 78.7927 148.17 79.3285 148.704 79.3285 149.359 79.3285 150.017 78.7927 150.551 78.1369 150.551ZM79.3037 141.665C79.2901 141.733 79.2697 141.798 79.2449 141.862 79.0708 142.303 78.6389 142.615 78.1369 142.615 77.5626 142.615 77.081 142.208 76.9702 141.665 76.9544 141.588 76.9476 141.507 76.9476 141.425 76.9476 141.344 76.9544 141.262 76.9702 141.186 77.081 140.643 77.5626 140.236 78.1369 140.236 78.6389 140.236 79.0708 140.548 79.2449 140.989 79.2697 141.052 79.2901 141.118 79.3037 141.186 79.3195 141.262 79.3285 141.344 79.3285 141.425 79.3285 141.507 79.3195 141.588 79.3037 141.665ZM82.1052 194.193C81.4472 194.193 80.9136 193.659 80.9136 193.001 80.9136 192.343 81.4472 191.809 82.1052 191.809 82.7609 191.809 83.2945 192.343 83.2945 193.001 83.2945 193.659 82.7609 194.193 82.1052 194.193ZM82.1052 186.256C81.4472 186.256 80.9136 185.725 80.9136 185.067 80.9136 184.409 81.4472 183.875 82.1052 183.875 82.7609 183.875 83.2945 184.409 83.2945 185.067 83.2945 185.725 82.7609 186.256 82.1052 186.256ZM82.1052 178.322C81.4472 178.322 80.9136 177.788 80.9136 177.133 80.9136 176.475 81.4472 175.941 82.1052 175.941 82.7609 175.941 83.2945 176.475 83.2945 177.133 83.2945 177.788 82.7609 178.322 82.1052 178.322ZM82.1052 170.388C81.4472 170.388 80.9136 169.854 80.9136 169.196 80.9136 168.538 81.4472 168.007 82.1052 168.007 82.7609 168.007 83.2945 168.538 83.2945 169.196 83.2945 169.854 82.7609 170.388 82.1052 170.388ZM82.1052 162.453C81.4472 162.453 80.9136 161.92 80.9136 161.262 80.9136 160.606 81.4472 160.07 82.1052 160.07 82.7609 160.07 83.2945 160.606 83.2945 161.262 83.2945 161.92 82.7609 162.453 82.1052 162.453ZM82.1052 154.517C81.4472 154.517 80.9136 153.986 80.9136 153.328 80.9136 152.67 81.4472 152.136 82.1052 152.136 82.7609 152.136 83.2945 152.67 83.2945 153.328 83.2945 153.986 82.7609 154.517 82.1052 154.517ZM82.1052 146.583C81.4472 146.583 80.9136 146.049 80.9136 145.393 80.9136 144.735 81.4472 144.202 82.1052 144.202 82.7609 144.202 83.2945 144.735 83.2945 145.393 83.2945 146.049 82.7609 146.583 82.1052 146.583ZM82.1052 138.649C81.4472 138.649 80.9136 138.115 80.9136 137.457 80.9136 136.801 81.4472 136.268 82.1052 136.268 82.7609 136.268 83.2945 136.801 83.2945 137.457 83.2945 138.115 82.7609 138.649 82.1052 138.649ZM86.0734 195.778C86.2792 195.78 86.4668 195.836 86.6364 195.927 86.4487 195.877 86.2611 195.827 86.0734 195.778ZM86.0711 190.224C85.4154 190.224 84.8818 189.693 84.8818 189.033 84.8818 188.377 85.4154 187.843 86.0711 187.843 86.7291 187.843 87.2627 188.377 87.2627 189.033 87.2627 189.693 86.7291 190.224 86.0711 190.224ZM86.0711 182.29C85.4154 182.29 84.8818 181.757 84.8818 181.099 84.8818 180.443 85.4154 179.909 86.0711 179.909 86.7291 179.909 87.2627 180.443 87.2627 181.099 87.2627 181.757 86.7291 182.29 86.0711 182.29ZM86.0711 174.354C85.4154 174.354 84.8818 173.822 84.8818 173.164 84.8818 172.506 85.4154 171.975 86.0711 171.975 86.7291 171.975 87.2627 172.506 87.2627 173.164 87.2627 173.822 86.7291 174.354 86.0711 174.354ZM86.0711 166.419C85.4154 166.419 84.8818 165.888 84.8818 165.23 84.8818 164.572 85.4154 164.038 86.0711 164.038 86.7291 164.038 87.2627 164.572 87.2627 165.23 87.2627 165.888 86.7291 166.419 86.0711 166.419ZM86.0711 158.485C85.4154 158.485 84.8818 157.952 84.8818 157.294 84.8818 156.638 85.4154 156.104 86.0711 156.104 86.7291 156.104 87.2627 156.638 87.2627 157.294 87.2627 157.952 86.7291 158.485 86.0711 158.485ZM86.0711 150.551C85.4154 150.551 84.8818 150.017 84.8818 149.359 84.8818 148.704 85.4154 148.17 86.0711 148.17 86.7291 148.17 87.2627 148.704 87.2627 149.359 87.2627 150.017 86.7291 150.551 86.0711 150.551ZM86.0711 142.615C85.4154 142.615 84.8818 142.083 84.8818 141.425 84.8818 140.767 85.4154 140.236 86.0711 140.236 86.7291 140.236 87.2627 140.767 87.2627 141.425 87.2627 142.083 86.7291 142.615 86.0711 142.615ZM90.0394 194.193C89.3814 194.193 88.85 193.659 88.85 193.001 88.85 192.343 89.3814 191.809 90.0394 191.809 90.6974 191.809 91.2287 192.343 91.2287 193.001 91.2287 193.659 90.6974 194.193 90.0394 194.193ZM90.0394 186.256C89.3814 186.256 88.85 185.725 88.85 185.067 88.85 184.409 89.3814 183.875 90.0394 183.875 90.6974 183.875 91.2287 184.409 91.2287 185.067 91.2287 185.725 90.6974 186.256 90.0394 186.256ZM90.0394 178.322C89.3814 178.322 88.85 177.788 88.85 177.133 88.85 176.475 89.3814 175.941 90.0394 175.941 90.6974 175.941 91.2287 176.475 91.2287 177.133 91.2287 177.788 90.6974 178.322 90.0394 178.322ZM90.0394 170.388C89.3814 170.388 88.85 169.854 88.85 169.196 88.85 168.538 89.3814 168.007 90.0394 168.007 90.6974 168.007 91.2287 168.538 91.2287 169.196 91.2287 169.854 90.6974 170.388 90.0394 170.388ZM90.0394 162.453C89.3814 162.453 88.85 161.92 88.85 161.262 88.85 160.606 89.3814 160.07 90.0394 160.07 90.6974 160.07 91.2287 160.606 91.2287 161.262 91.2287 161.92 90.6974 162.453 90.0394 162.453ZM90.0394 154.517C89.3814 154.517 88.85 153.986 88.85 153.328 88.85 152.67 89.3814 152.136 90.0394 152.136 90.6974 152.136 91.2287 152.67 91.2287 153.328 91.2287 153.986 90.6974 154.517 90.0394 154.517ZM90.0394 146.583C89.3814 146.583 88.85 146.049 88.85 145.393 88.85 144.735 89.3814 144.202 90.0394 144.202 90.6974 144.202 91.2287 144.735 91.2287 145.393 91.2287 146.049 90.6974 146.583 90.0394 146.583ZM90.0394 138.649C89.3814 138.649 88.85 138.115 88.85 137.457 88.85 136.801 89.3814 136.268 90.0394 136.268 90.6974 136.268 91.2287 136.801 91.2287 137.457 91.2287 138.115 90.6974 138.649 90.0394 138.649ZM94.2473 198.134C93.8878 198.027 93.526 197.919 93.1665 197.813 92.9494 197.596 92.816 197.299 92.816 196.969 92.816 196.311 93.3496 195.778 94.0076 195.778 94.6633 195.778 95.197 196.311 95.197 196.969 95.197 197.544 94.79 198.023 94.2473 198.134ZM95.1743 189.275C95.0613 189.817 94.5819 190.224 94.0076 190.224 93.431 190.224 92.9517 189.817 92.8409 189.275 92.8251 189.196 92.816 189.116 92.816 189.033 92.816 188.951 92.8251 188.87 92.8409 188.793 92.9517 188.25 93.431 187.843 94.0076 187.843 94.5819 187.843 95.0613 188.25 95.1743 188.793 95.1879 188.87 95.197 188.951 95.197 189.033 95.197 189.116 95.1879 189.196 95.1743 189.275ZM94.0076 182.29C93.3496 182.29 92.816 181.757 92.816 181.099 92.816 180.443 93.3496 179.909 94.0076 179.909 94.6633 179.909 95.197 180.443 95.197 181.099 95.197 181.757 94.6633 182.29 94.0076 182.29ZM95.1743 173.404C95.0613 173.947 94.5819 174.354 94.0076 174.354 93.431 174.354 92.9517 173.947 92.8409 173.404 92.8251 173.327 92.816 173.246 92.816 173.164 92.816 173.083 92.8251 173.002 92.8409 172.925 92.9517 172.382 93.431 171.975 94.0076 171.975 94.5819 171.975 95.0613 172.382 95.1743 172.925 95.1879 173.002 95.197 173.083 95.197 173.164 95.197 173.246 95.1879 173.327 95.1743 173.404ZM94.0076 166.419C93.3496 166.419 92.816 165.888 92.816 165.23 92.816 164.572 93.3496 164.038 94.0076 164.038 94.6633 164.038 95.197 164.572 95.197 165.23 95.197 165.888 94.6633 166.419 94.0076 166.419ZM95.1743 157.536C95.0613 158.076 94.5819 158.485 94.0076 158.485 93.431 158.485 92.9517 158.076 92.8409 157.536 92.8251 157.456 92.816 157.377 92.816 157.294 92.816 157.212 92.8251 157.133 92.8409 157.054 92.9517 156.511 93.431 156.104 94.0076 156.104 94.5819 156.104 95.0613 156.511 95.1743 157.054 95.1879 157.133 95.197 157.212 95.197 157.294 95.197 157.377 95.1879 157.456 95.1743 157.536ZM94.0076 150.551C93.3496 150.551 92.816 150.017 92.816 149.359 92.816 148.704 93.3496 148.17 94.0076 148.17 94.6633 148.17 95.197 148.704 95.197 149.359 95.197 150.017 94.6633 150.551 94.0076 150.551ZM95.1743 141.665C95.0613 142.208 94.5819 142.615 94.0076 142.615 93.431 142.615 92.9517 142.208 92.8409 141.665 92.8251 141.588 92.816 141.507 92.816 141.425 92.816 141.344 92.8251 141.262 92.8409 141.186 92.9517 140.643 93.431 140.236 94.0076 140.236 94.5819 140.236 95.0613 140.643 95.1743 141.186 95.1879 141.262 95.197 141.344 95.197 141.425 95.197 141.507 95.1879 141.588 95.1743 141.665ZM94.0076 134.68C93.3496 134.68 92.816 134.147 92.816 133.491 92.816 133.281 92.8748 133.089 92.9698 132.917 93.5418 132.813 94.1365 132.693 94.7289 132.55 95.0115 132.767 95.197 133.104 95.197 133.491 95.197 134.147 94.6633 134.68 94.0076 134.68ZM97.9736 194.193C97.3156 194.193 96.7842 193.659 96.7842 193.001 96.7842 192.343 97.3156 191.809 97.9736 191.809 98.6316 191.809 99.1652 192.343 99.1652 193.001 99.1652 193.659 98.6316 194.193 97.9736 194.193ZM97.9736 186.256C97.3156 186.256 96.7842 185.725 96.7842 185.067 96.7842 184.409 97.3156 183.875 97.9736 183.875 98.6316 183.875 99.1652 184.409 99.1652 185.067 99.1652 185.725 98.6316 186.256 97.9736 186.256ZM97.9736 178.322C97.3156 178.322 96.7842 177.788 96.7842 177.133 96.7842 176.475 97.3156 175.941 97.9736 175.941 98.6316 175.941 99.1652 176.475 99.1652 177.133 99.1652 177.788 98.6316 178.322 97.9736 178.322ZM97.9736 170.388C97.3156 170.388 96.7842 169.854 96.7842 169.196 96.7842 168.538 97.3156 168.007 97.9736 168.007 98.6316 168.007 99.1652 168.538 99.1652 169.196 99.1652 169.854 98.6316 170.388 97.9736 170.388ZM97.9736 162.453C97.3156 162.453 96.7842 161.92 96.7842 161.262 96.7842 160.606 97.3156 160.07 97.9736 160.07 98.6316 160.07 99.1652 160.606 99.1652 161.262 99.1652 161.92 98.6316 162.453 97.9736 162.453ZM97.9736 154.517C97.3156 154.517 96.7842 153.986 96.7842 153.328 96.7842 152.67 97.3156 152.136 97.9736 152.136 98.6316 152.136 99.1652 152.67 99.1652 153.328 99.1652 153.986 98.6316 154.517 97.9736 154.517ZM97.9736 146.583C97.3156 146.583 96.7842 146.049 96.7842 145.393 96.7842 144.735 97.3156 144.202 97.9736 144.202 98.6316 144.202 99.1652 144.735 99.1652 145.393 99.1652 146.049 98.6316 146.583 97.9736 146.583ZM97.9736 138.649C97.3156 138.649 96.7842 138.115 96.7842 137.457 96.7842 136.801 97.3156 136.268 97.9736 136.268 98.6316 136.268 99.1652 136.801 99.1652 137.457 99.1652 138.115 98.6316 138.649 97.9736 138.649ZM101.942 198.159C101.284 198.159 100.752 197.625 100.752 196.969 100.752 196.311 101.284 195.778 101.942 195.778 102.598 195.778 103.133 196.311 103.133 196.969 103.133 197.625 102.598 198.159 101.942 198.159ZM101.942 190.224C101.284 190.224 100.752 189.693 100.752 189.033 100.752 188.377 101.284 187.843 101.942 187.843 102.598 187.843 103.133 188.377 103.133 189.033 103.133 189.693 102.598 190.224 101.942 190.224ZM101.942 182.29C101.284 182.29 100.752 181.757 100.752 181.099 100.752 180.443 101.284 179.909 101.942 179.909 102.598 179.909 103.133 180.443 103.133 181.099 103.133 181.757 102.598 182.29 101.942 182.29ZM101.942 174.354C101.284 174.354 100.752 173.822 100.752 173.164 100.752 172.506 101.284 171.975 101.942 171.975 102.598 171.975 103.133 172.506 103.133 173.164 103.133 173.822 102.598 174.354 101.942 174.354ZM101.942 166.419C101.284 166.419 100.752 165.888 100.752 165.23 100.752 164.572 101.284 164.038 101.942 164.038 102.598 164.038 103.133 164.572 103.133 165.23 103.133 165.888 102.598 166.419 101.942 166.419ZM101.942 158.485C101.284 158.485 100.752 157.952 100.752 157.294 100.752 156.638 101.284 156.104 101.942 156.104 102.598 156.104 103.133 156.638 103.133 157.294 103.133 157.952 102.598 158.485 101.942 158.485ZM101.942 150.551C101.284 150.551 100.752 150.017 100.752 149.359 100.752 148.704 101.284 148.17 101.942 148.17 102.598 148.17 103.133 148.704 103.133 149.359 103.133 150.017 102.598 150.551 101.942 150.551ZM101.942 142.615C101.284 142.615 100.752 142.083 100.752 141.425 100.752 140.767 101.284 140.236 101.942 140.236 102.598 140.236 103.133 140.767 103.133 141.425 103.133 142.083 102.598 142.615 101.942 142.615ZM101.942 134.68C101.284 134.68 100.752 134.147 100.752 133.491 100.752 132.833 101.284 132.299 101.942 132.299 102.598 132.299 103.133 132.833 103.133 133.491 103.133 134.147 102.598 134.68 101.942 134.68ZM105.91 194.193C105.252 194.193 104.718 193.659 104.718 193.001 104.718 192.343 105.252 191.809 105.91 191.809 106.566 191.809 107.099 192.343 107.099 193.001 107.099 193.659 106.566 194.193 105.91 194.193ZM105.91 186.256C105.252 186.256 104.718 185.725 104.718 185.067 104.718 184.409 105.252 183.875 105.91 183.875 106.566 183.875 107.099 184.409 107.099 185.067 107.099 185.725 106.566 186.256 105.91 186.256ZM105.91 178.322C105.252 178.322 104.718 177.788 104.718 177.133 104.718 176.475 105.252 175.941 105.91 175.941 106.566 175.941 107.099 176.475 107.099 177.133 107.099 177.788 106.566 178.322 105.91 178.322ZM105.91 170.388C105.252 170.388 104.718 169.854 104.718 169.196 104.718 168.538 105.252 168.007 105.91 168.007 106.566 168.007 107.099 168.538 107.099 169.196 107.099 169.854 106.566 170.388 105.91 170.388ZM105.91 162.453C105.252 162.453 104.718 161.92 104.718 161.262 104.718 160.606 105.252 160.07 105.91 160.07 106.566 160.07 107.099 160.606 107.099 161.262 107.099 161.92 106.566 162.453 105.91 162.453ZM105.91 154.517C105.252 154.517 104.718 153.986 104.718 153.328 104.718 152.67 105.252 152.136 105.91 152.136 106.566 152.136 107.099 152.67 107.099 153.328 107.099 153.986 106.566 154.517 105.91 154.517ZM105.91 146.583C105.252 146.583 104.718 146.049 104.718 145.393 104.718 144.735 105.252 144.202 105.91 144.202 106.566 144.202 107.099 144.735 107.099 145.393 107.099 146.049 106.566 146.583 105.91 146.583ZM105.91 138.649C105.252 138.649 104.718 138.115 104.718 137.457 104.718 136.801 105.252 136.268 105.91 136.268 106.566 136.268 107.099 136.801 107.099 137.457 107.099 138.115 106.566 138.649 105.91 138.649ZM105.91 130.712C105.252 130.712 104.718 130.181 104.718 129.523 104.718 128.865 105.252 128.333 105.91 128.333 106.566 128.333 107.099 128.865 107.099 129.523 107.099 130.181 106.566 130.712 105.91 130.712ZM108.687 189.033C108.687 188.951 108.696 188.87 108.712 188.793 108.732 188.687 108.773 188.59 108.82 188.495 108.868 188.974 108.933 189.424 109.012 189.849 108.863 189.691 108.757 189.494 108.712 189.275 108.696 189.196 108.687 189.116 108.687 189.033ZM109.659 195.8C109.431 195.968 109.166 196.144 108.879 196.323 109.053 196.053 109.331 195.861 109.659 195.8ZM109.297 182.134C108.935 181.931 108.687 181.546 108.687 181.099 108.687 180.443 109.22 179.909 109.876 179.909 109.89 179.909 109.901 179.911 109.914 179.914 109.663 180.682 109.462 181.422 109.297 182.134ZM111.043 173.404C110.932 173.947 110.45 174.354 109.876 174.354 109.302 174.354 108.82 173.947 108.712 173.404 108.696 173.327 108.687 173.246 108.687 173.164 108.687 173.083 108.696 173.002 108.712 172.925 108.82 172.382 109.302 171.975 109.876 171.975 110.45 171.975 110.932 172.382 111.043 172.925 111.059 173.002 111.068 173.083 111.068 173.164 111.068 173.246 111.059 173.327 111.043 173.404ZM109.876 166.419C109.22 166.419 108.687 165.888 108.687 165.23 108.687 164.572 109.22 164.038 109.876 164.038 110.534 164.038 111.068 164.572 111.068 165.23 111.068 165.888 110.534 166.419 109.876 166.419ZM111.043 157.536C110.932 158.076 110.45 158.485 109.876 158.485 109.302 158.485 108.82 158.076 108.712 157.536 108.696 157.456 108.687 157.377 108.687 157.294 108.687 157.212 108.696 157.133 108.712 157.054 108.82 156.511 109.302 156.104 109.876 156.104 110.45 156.104 110.932 156.511 111.043 157.054 111.059 157.133 111.068 157.212 111.068 157.294 111.068 157.377 111.059 157.456 111.043 157.536ZM109.876 150.551C109.22 150.551 108.687 150.017 108.687 149.359 108.687 148.704 109.22 148.17 109.876 148.17 110.534 148.17 111.068 148.704 111.068 149.359 111.068 150.017 110.534 150.551 109.876 150.551ZM111.043 141.665C110.932 142.208 110.45 142.615 109.876 142.615 109.302 142.615 108.82 142.208 108.712 141.665 108.696 141.588 108.687 141.507 108.687 141.425 108.687 141.344 108.696 141.262 108.712 141.186 108.82 140.643 109.302 140.236 109.876 140.236 110.45 140.236 110.932 140.643 111.043 141.186 111.059 141.262 111.068 141.344 111.068 141.425 111.068 141.507 111.059 141.588 111.043 141.665ZM109.876 134.68C109.22 134.68 108.687 134.147 108.687 133.491 108.687 132.833 109.22 132.299 109.876 132.299 110.534 132.299 111.068 132.833 111.068 133.491 111.068 134.147 110.534 134.68 109.876 134.68ZM113.844 170.388C113.186 170.388 112.655 169.854 112.655 169.196 112.655 168.538 113.186 168.007 113.844 168.007 114.502 168.007 115.034 168.538 115.034 169.196 115.034 169.854 114.502 170.388 113.844 170.388ZM113.844 162.453C113.186 162.453 112.655 161.92 112.655 161.262 112.655 160.606 113.186 160.07 113.844 160.07 114.502 160.07 115.034 160.606 115.034 161.262 115.034 161.92 114.502 162.453 113.844 162.453ZM113.844 154.517C113.186 154.517 112.655 153.986 112.655 153.328 112.655 152.67 113.186 152.136 113.844 152.136 114.502 152.136 115.034 152.67 115.034 153.328 115.034 153.986 114.502 154.517 113.844 154.517ZM113.844 146.583C113.186 146.583 112.655 146.049 112.655 145.393 112.655 144.735 113.186 144.202 113.844 144.202 114.502 144.202 115.034 144.735 115.034 145.393 115.034 146.049 114.502 146.583 113.844 146.583ZM113.844 138.649C113.186 138.649 112.655 138.115 112.655 137.457 112.655 136.801 113.186 136.268 113.844 136.268 114.502 136.268 115.034 136.801 115.034 137.457 115.034 138.115 114.502 138.649 113.844 138.649ZM113.844 130.712C113.186 130.712 112.655 130.181 112.655 129.523 112.655 128.865 113.186 128.333 113.844 128.333 114.502 128.333 115.034 128.865 115.034 129.523 115.034 130.181 114.502 130.712 113.844 130.712ZM118.995 165.289C118.669 165.653 118.339 166.021 118.014 166.399 117.948 166.41 117.88 166.419 117.813 166.419 117.155 166.419 116.621 165.888 116.621 165.23 116.621 164.572 117.155 164.038 117.813 164.038 118.468 164.038 119.002 164.572 119.002 165.23 119.002 165.25 118.997 165.269 118.995 165.289ZM117.813 158.485C117.155 158.485 116.621 157.952 116.621 157.294 116.621 156.638 117.155 156.104 117.813 156.104 118.468 156.104 119.002 156.638 119.002 157.294 119.002 157.952 118.468 158.485 117.813 158.485ZM117.813 150.551C117.155 150.551 116.621 150.017 116.621 149.359 116.621 148.704 117.155 148.17 117.813 148.17 118.468 148.17 119.002 148.704 119.002 149.359 119.002 150.017 118.468 150.551 117.813 150.551ZM117.813 142.615C117.155 142.615 116.621 142.083 116.621 141.425 116.621 140.767 117.155 140.236 117.813 140.236 118.468 140.236 119.002 140.767 119.002 141.425 119.002 142.083 118.468 142.615 117.813 142.615ZM117.813 134.68C117.155 134.68 116.621 134.147 116.621 133.491 116.621 132.833 117.155 132.299 117.813 132.299 118.468 132.299 119.002 132.833 119.002 133.491 119.002 134.147 118.468 134.68 117.813 134.68ZM129.41 144.247C129.484 144.993 129.539 145.767 129.566 146.569 128.978 146.492 128.523 145.999 128.523 145.393 128.523 144.842 128.901 144.38 129.41 144.247ZM125.369 132.367C125.776 132.98 126.174 133.642 126.552 134.362 126.339 134.558 126.059 134.68 125.747 134.68 125.089 134.68 124.557 134.147 124.557 133.491 124.557 132.966 124.897 132.525 125.369 132.367ZM124.58 141.186C124.691 140.643 125.17 140.236 125.747 140.236 126.321 140.236 126.803 140.643 126.913 141.186 126.929 141.262 126.938 141.344 126.938 141.425 126.938 141.507 126.929 141.588 126.913 141.665 126.803 142.208 126.321 142.615 125.747 142.615 125.17 142.615 124.691 142.208 124.58 141.665 124.564 141.588 124.557 141.507 124.557 141.425 124.557 141.344 124.564 141.262 124.58 141.186ZM125.747 148.17C126.402 148.17 126.938 148.704 126.938 149.359 126.938 150.017 126.402 150.551 125.747 150.551 125.089 150.551 124.557 150.017 124.557 149.359 124.557 148.704 125.089 148.17 125.747 148.17ZM124.58 157.054C124.691 156.511 125.17 156.104 125.747 156.104 126.099 156.104 126.414 156.26 126.631 156.505 126.199 157.133 125.731 157.75 125.233 158.365 124.903 158.205 124.657 157.902 124.58 157.536 124.564 157.456 124.557 157.377 124.557 157.294 124.557 157.212 124.564 157.133 124.58 157.054ZM121.778 128.333C121.819 128.333 121.858 128.34 121.896 128.345 122.237 128.65 122.59 128.989 122.954 129.362 122.961 129.414 122.97 129.468 122.97 129.523 122.97 130.181 122.436 130.712 121.778 130.712 121.12 130.712 120.589 130.181 120.589 129.523 120.589 128.865 121.12 128.333 121.778 128.333ZM121.778 136.268C122.436 136.268 122.97 136.801 122.97 137.457 122.97 138.115 122.436 138.649 121.778 138.649 121.12 138.649 120.589 138.115 120.589 137.457 120.589 136.801 121.12 136.268 121.778 136.268ZM121.778 144.202C122.436 144.202 122.97 144.735 122.97 145.393 122.97 146.049 122.436 146.583 121.778 146.583 121.12 146.583 120.589 146.049 120.589 145.393 120.589 144.735 121.12 144.202 121.778 144.202ZM121.778 152.136C122.436 152.136 122.97 152.67 122.97 153.328 122.97 153.986 122.436 154.517 121.778 154.517 121.12 154.517 120.589 153.986 120.589 153.328 120.589 152.67 121.12 152.136 121.778 152.136ZM121.778 160.07C122.348 160.07 122.825 160.473 122.941 161.009 122.511 161.481 122.07 161.956 121.622 162.435 121.039 162.358 120.589 161.866 120.589 161.262 120.589 160.606 121.12 160.07 121.778 160.07ZM254.137 50.6758C254.062 50.6894 253.987 50.6984 253.913 50.703 254.001 50.7391 254.089 50.7821 254.175 50.8319 255.34 51.5034 256.013 52.5209 255.676 53.1043 255.34 53.6876 254.123 53.6153 252.956 52.9415 252.891 52.903 252.827 52.8601 252.766 52.8171 252.812 52.903 252.852 52.9912 252.886 53.0862 253.345 54.3501 253.207 55.5621 252.574 55.7905 251.943 56.0211 251.057 55.1845 250.596 53.9183 250.571 53.8459 250.548 53.7735 250.53 53.7012 250.508 53.7962 250.483 53.8889 250.449 53.9816 249.99 55.2478 249.103 56.0867 248.473 55.856 247.839 55.6254 247.699 54.4134 248.161 53.1495 248.185 53.0771 248.217 53.007 248.249 52.9415 248.172 52.998 248.093 53.0545 248.007 53.1043 246.84 53.7758 245.624 53.8504 245.287 53.2671 244.95 52.6837 245.624 51.6662 246.788 50.9947 246.854 50.9562 246.921 50.9223 246.989 50.8906 246.894 50.8861 246.797 50.8771 246.7 50.8612 245.373 50.6261 244.394 49.9003 244.511 49.2378 244.626 48.5753 245.798 48.2271 247.123 48.46 247.197 48.4735 247.272 48.4916 247.344 48.512 247.272 48.4464 247.204 48.3763 247.139 48.3017 246.275 47.2706 245.992 46.0835 246.508 45.6517 247.023 45.2198 248.142 45.7037 249.006 46.7347 249.056 46.7935 249.101 46.8546 249.142 46.9179 249.131 46.8207 249.122 46.7234 249.122 46.6262 249.122 46.2034 249.176 45.8099 249.269 45.464 249.477 44.7043 249.879 44.1887 250.34 44.1887 250.471 44.1887 250.596 44.2294 250.711 44.3041 251.204 44.6161 251.559 45.5386 251.559 46.6262 251.559 46.7008 251.554 46.7777 251.548 46.8523 251.6 46.7709 251.656 46.6895 251.72 46.6149 252.583 45.5838 253.705 45.0977 254.218 45.5318 254.734 45.9637 254.451 47.1508 253.585 48.1818 253.535 48.2406 253.483 48.2949 253.431 48.3469 253.522 48.3175 253.617 48.2926 253.714 48.2768 255.041 48.0417 256.208 48.3899 256.325 49.0524 256.443 49.7149 255.464 50.4429 254.137 50.6758ZM406.25 48.4419C406.25 48.4419 406.255 48.5753 406.284 48.7607 406.264 48.6657 406.25 48.5617 406.25 48.4419ZM281.609 234.506C281.491 234.309 281.39 234.139 281.295 233.981 281.098 234.002 280.89 234.015 280.666 234.013 278.19 233.99 276.476 232.516 275.19 230.865 273.903 229.213 270.419 222.549 270.419 222.549L268.904 223.275C268.904 223.275 270.193 233.436 272.807 236.308 275.418 239.177 278.156 240.753 278.156 240.753L277.808 242.246 281.055 244.959C281.055 244.959 285.81 240.62 285.301 239.478 285.15 239.143 285.252 238.644 285.462 238.105 284.598 237.522 282.516 236.016 281.609 234.506ZM362.364 245.456C362.339 245.436 362.317 245.4 362.292 245.373L357.976 246.022C357.13 246.707 353.704 249.461 351.873 250.352 349.775 251.369 341.207 253.818 341.207 253.818L341.207 255.448C341.207 255.448 353.096 255.043 354.67 254.838 356.244 254.634 360.264 252.798 360.264 252.798L360.791 254.634 364.637 254.225C364.637 254.225 364.637 254.225 364.286 251.166 363.936 248.106 363.411 246.27 362.364 245.456ZM536.971 201.46C536.969 201.46 536.967 201.457 536.964 201.457 536.958 201.453 536.949 201.448 536.94 201.446ZM630.418 170.562C630.418 170.562 629.873 171.057 628.946 171.903L630.418 170.562" fill="#A2C8C4" transform="matrix(1.00415 0 0 1 82.0459 1347.64)"/></g></svg>