<svg width="214" height="365" xmlns="http://www.w3.org/2000/svg" xmlns:xlink="http://www.w3.org/1999/xlink" xml:space="preserve" overflow="hidden"><defs><clipPath id="clip0"><rect x="875" y="859" width="214" height="365"/></clipPath></defs><g clip-path="url(#clip0)" transform="translate(-875 -859)"><path d="M106.578 152.799C106.93 152.742 107.24 152.669 107.547 152.905 108.781 153.587 108.388 155.146 107.083 155.426 104.804 155.74 103.761 153.017 106.578 152.799ZM106.815 156.516C108.208 156.371 109.363 154.995 109.006 153.572 108.666 152.338 107.21 151.611 105.994 151.727 102.037 152.335 103.372 156.673 106.815 156.516ZM80.6734 50.1179C81.8516 50.1976 83.0002 50.4988 84.0101 51.172 85.9885 52.4949 84.7631 54.4614 82.891 54.9339 81.5268 55.2764 79.4923 55.2971 78.4145 54.2665 76.6813 52.6159 78.9018 50.484 80.6734 50.1179ZM82.7788 56.2567C84.8664 55.9113 87.2405 53.9388 86.1066 51.609 85.3211 49.9909 82.953 49.0047 81.0189 49.1434 78.8073 49.1021 76.2029 50.9919 76.6074 53.4309 77.0681 56.2302 80.514 56.6317 82.7788 56.2567ZM209.85 117.442C209.215 118.268 208.252 118.877 207.307 119.411 203.232 121.726 198.794 122.978 194.191 123.702 194.406 123.666 195.035 122.653 195.204 122.476 197.944 119.55 200.699 116.467 204.295 114.61 205.287 114.064 206.604 113.452 207.907 113.479 210.151 113.565 211.353 115.472 209.85 117.442ZM192.201 131.606C194.359 130.732 196.651 130.136 198.93 129.879 200.182 129.737 202.583 129.2 203.294 130.638 204.322 132.708 201.115 133.842 199.733 134.296 194.607 135.844 189.266 136.709 183.93 137.119 185.031 135.702 186.72 134.577 188.229 133.629 189.472 132.849 190.81 132.17 192.201 131.606ZM173.958 161.477C176.253 161.79 177.823 162.498 178.768 163.632 179.634 164.737 179.961 166.57 178.709 167.619 178.187 168.008 177.428 168.18 176.25 168.162 170.536 168.079 165.011 165.056 159.224 165.333 163.381 162.203 168.8 160.768 173.958 161.477ZM143.432 161.037C144.229 158.19 146.155 158.084 147.076 160.889 148.561 164.805 147.306 170.598 145.623 174.584 144.755 170.126 142.366 165.534 143.432 161.037ZM156.773 147.569C157.124 146.329 158.243 146.013 159.085 147.091 161.072 150.923 159.619 157.124 157.6 162.174 157.597 160.499 156.336 148.942 156.773 147.569ZM179.521 127.992C179.093 125.275 178.969 122.523 179.152 119.807 179.199 119.104 179.273 118.378 179.592 117.852 180.395 116.81 180.998 117.203 181.411 118.897 182.669 124.142 182.657 129.778 181.364 135.055 180.528 132.776 179.899 130.404 179.521 127.992ZM202.769 95.0477C203.268 92.898 204.189 90.4944 205.949 88.9826 206.56 88.522 207.52 88.1765 208.27 88.4954 210.021 89.2454 209.932 91.8055 209.699 93.3941 209.353 95.715 208.066 97.4365 206.631 99.1934 205.471 100.649 204.012 101.7 202.704 103.106 202.364 100.437 202.205 97.6461 202.769 95.0477ZM179.188 147.74C181.01 146.928 182.867 146.341 185.096 145.703 186.168 145.434 187.302 145.207 188.35 145.372 191.244 145.818 191.356 148.7 188.964 150.197 187.526 151.036 185.651 151.115 183.992 151.183 183.956 151.163 172.399 151.676 172.37 151.665 174.295 150.277 176.926 148.738 179.188 147.74ZM162.611 173.837C165.156 173.97 166.954 174.572 168.106 175.683 169.201 176.796 169.801 178.798 168.561 180.121 167.441 181.187 165.466 180.936 163.499 180.508L148.842 177.313C152.955 174.832 157.798 173.589 162.611 173.837ZM146.68 187.092C148.378 186.989 150.283 187.851 150.123 189.818 149.781 193.963 144.043 193.273 141.303 192.83 139.103 192.481 136.901 192.088 134.834 191.232 137.264 190.701 139.473 189.762 141.799 188.731 143.329 188.052 144.977 187.196 146.68 187.092ZM132.3 179.693C132.504 177.788 132.991 175.883 133.912 174.197 134.246 173.589 134.946 172.122 135.728 172.228 136.629 172.352 136.511 173.926 136.487 174.626 136.304 179.058 133.986 183.017 132.708 187.178 132.297 184.695 132.031 182.188 132.3 179.693ZM112.085 226.308C110.925 230.091 109.351 233.685 107.987 237.378 106.519 239.05 105.102 240.762 103.744 242.525 101.5 244.075 99.155 245.59 97.1707 247.518 101.65 235.852 107.789 224.882 115.071 214.739 114.211 218.628 113.255 222.499 112.085 226.308ZM121.844 240.553C130.28 242.578 136.549 249.119 142.446 255.086 132.217 249.671 122.075 247.521 110.801 250.953 103.868 252.777 96.8695 255.822 92.4315 261.698 92.9866 259.17 94.6845 257.103 96.3823 255.225 104.122 247.049 116.018 245.029 126.802 244.687 126.967 244.681 126.962 244.45 126.802 244.436 115.245 243.234 102.557 245.809 94.5545 254.812 95.9099 249.99 100.345 246.724 104.559 244.191 109.729 241.07 115.821 239.141 121.844 240.553ZM115.853 271.976C119.37 274.477 122.346 277.569 125.184 280.794 127.198 283.165 129.53 285.314 132.424 286.549 128.816 286.732 125.196 286.342 121.602 285.949 109.351 284.986 97.6993 281.724 93.716 268.749 98.3075 268.442 100.814 271.215 104.116 273.84 107.674 276.595 111.521 279.031 115.959 280.008 116.328 280.103 116.47 279.559 116.113 279.441 111.406 277.847 107.352 274.374 103.478 271.389 101.228 269.605 98.9985 267.73 96.025 267.355 102.778 265.622 110.187 267.949 115.853 271.976ZM82.1646 286.873C82.8674 278.411 83.6705 269.948 84.639 261.488 84.8605 261.55 85.082 261.615 85.3034 261.683 86.1981 262.9 87.0751 264.116 87.896 265.368 87.7306 267.435 87.583 269.505 87.4501 271.578 85.4304 276.589 83.6853 281.7 82.1646 286.873ZM81.5238 295.779 81.5475 295.59C81.5504 295.649 81.5386 295.714 81.5238 295.779ZM81.4648 295.941C81.4589 295.894 81.4914 295.841 81.515 295.806 81.5002 295.853 81.4855 295.897 81.4648 295.941ZM76.5336 272.496C74.8151 271.929 72.9519 272.092 71.1743 272.26 69.0099 272.464 66.8632 272.877 64.7815 273.509 60.4556 274.817 56.6258 277.498 52.1937 278.458 44.1178 280.117 36.1423 276.524 28.0811 276.53 35.8942 273.388 43.5243 269.797 50.9151 265.752 55.1081 263.455 59.4841 260.785 64.3415 260.301 72.2284 259.415 78.3762 266.159 80.3663 273.217 77.1832 269.239 73.0611 265.244 67.7106 264.878 60.9989 264.453 55.7282 269.986 49.1936 270.473 48.8865 270.497 48.8777 270.958 49.1936 270.955 55.2823 270.919 60.1042 266.227 66.1073 266.08 71.2481 265.967 75.4854 269.561 78.5238 273.367 77.8565 273.001 77.1714 272.709 76.5336 272.496ZM78.4972 257.918C67.501 255.131 57.5176 248.697 50.2714 239.986 43.0282 231.683 40.4415 220.698 34.9936 211.358 42.8333 216.715 50.4604 222.405 58.5127 227.436 65.499 231.417 69.8337 233.572 74.818 240.275 75.3111 242.041 75.8574 243.792 76.4746 245.519 72.8899 242.838 68.7205 240.925 64.9498 238.515 58.3739 234.364 52.3472 229.391 45.9839 224.93 45.7713 224.782 45.5853 225.121 45.7832 225.275 51.8512 229.929 57.4585 235.143 63.7332 239.534 68.2923 242.623 73.1851 245.195 77.6143 248.484 79.1439 252.193 81.0307 255.709 83.3369 258.987 81.6862 258.612 80.0268 258.308 78.4972 257.918ZM71.1625 209.197C75.5356 218.608 79.3122 228.296 82.4304 238.188 82.8024 242.094 83.4491 245.939 84.5741 249.701 84.2729 251.892 83.9806 254.085 83.703 256.279 74.759 242.307 73.7255 225.175 71.1625 209.197ZM66.7923 173.557C65.7027 163.969 64.563 154.387 63.4734 144.799 70.5985 158.264 79.7315 170.814 84.0632 185.566 88.147 199.087 88.3596 213.263 88.2178 227.274 87.2907 231.963 86.4698 236.682 85.7582 241.427 85.1912 239.546 84.6036 237.674 83.9894 235.808 82.7847 219.29 79.9707 202.978 76.2797 186.835 76.1881 186.422 75.5858 186.602 75.6507 187.01 77.9362 201.027 80.4667 215.038 81.704 229.196 78.4559 220.249 74.6645 211.5 70.3298 203.026 69.0453 193.213 67.9114 183.381 66.7923 173.557ZM99.6275 189.006C100.103 189.744 100.637 190.453 101.234 191.126 97.2298 208.45 92.7681 225.715 90.3084 243.346 90.3616 236.806 90.4177 230.271 90.4826 223.728 92.8655 211.984 95.9365 200.421 99.6275 189.006ZM97.7701 179.642C99.344 179.465 101.077 179.442 102.439 178.659 101.393 181.29 100.395 183.933 99.4385 186.59 98.4995 184.391 97.9119 182.055 97.7701 179.642ZM89.2956 180.702C86.4196 179.527 87.4826 176.539 86.7414 174.183 86.3723 173.007 85.4009 172.16 85.0111 171.008 84.4973 169.497 85.3625 167.967 86.4107 166.928 88.3094 165.047 90.8813 163.665 93.1254 162.236 95.4729 160.742 97.8528 159.304 100.242 157.877 101.316 159.534 103.115 160.55 105.09 160.892 105.111 165.2 104.644 169.517 103.404 173.651 103.067 174.818 102.778 176.247 101.727 176.994 100.047 178.193 97.5398 177.646 95.6412 178.305 93.4886 179.052 91.7937 181.724 89.2956 180.702ZM84.0869 157.88C81.7423 158.105 78.3437 158.899 76.8939 156.457 75.7511 154.532 77.3102 152.356 76.4421 150.295 75.6212 148.349 73.9086 146.722 75.3702 144.581 76.5395 142.871 79.0907 143.175 80.5671 141.728 81.9195 140.406 82.643 137.742 84.5711 137.134 86.6056 136.493 89.3458 138.82 90.9521 139.918 95.0447 142.718 98.4818 146.279 101.553 150.147 99.9523 151.322 98.9454 153.123 99.3056 155.4 94.2386 156.363 89.2306 157.384 84.0869 157.88ZM99.2702 136.118C98.6353 133.83 98.0093 131.488 97.6166 129.141 97.4217 127.977 97.3006 126.654 98.0448 125.65 98.9601 124.416 100.301 125.022 101.57 124.765 103.307 124.41 104.068 122.769 105.489 121.918 106.593 121.26 107.925 121.121 108.834 122.125 109.425 122.78 109.676 123.637 110.387 124.201 111.914 125.405 114.353 124.316 115.395 126.244 116.559 128.394 115.082 131.426 114.406 133.543 112.741 138.746 110.845 143.866 108.769 148.921 107.154 148.381 105.403 148.349 103.862 148.995 102.329 144.69 100.499 140.547 99.2702 136.118ZM113.999 141.681C113.036 144.138 111.542 146.642 111.111 149.234 110.934 149.415 110.76 149.598 110.585 149.778 110.476 149.71 110.367 149.645 110.255 149.583 111.096 147.54 111.899 145.484 112.67 143.415 113.11 142.836 113.553 142.257 113.999 141.681ZM134.662 118.877C142.266 112.115 151.172 107.004 159.918 101.827 158.241 104.479 156.897 107.379 155.441 110.107 149.341 121.862 142.354 133.227 134.06 143.571 134.228 142.662 134.745 141.767 134.84 140.857 135.037 138.932 133.632 137.506 131.804 137.187 128.346 136.659 123.761 139.254 120.849 140.987 127.933 134.057 134.704 126.817 141.59 119.692 141.77 119.509 141.498 119.24 141.309 119.411 132.153 127.942 122.771 136.189 114.052 145.177 115.112 142.688 116.142 140.19 117.146 137.68 122.518 130.989 128.261 124.57 134.662 118.877ZM136.059 151.003C135.433 152.849 134.019 154.228 133.901 156.265 133.824 157.564 134.196 158.81 133.174 159.835 130.717 162.256 124.393 159.989 121.395 159.236 118.782 158.489 116.213 157.561 113.709 156.498 114.43 154.588 113.488 152.081 111.693 150.602 111.858 150.233 112.02 149.863 112.183 149.494 115.159 146.976 118.136 144.386 121.419 142.304 123.279 141.126 125.246 140.107 127.331 139.393 129.271 138.728 134.128 137.668 132.962 141.368 132.412 143.11 131.807 144.646 132.873 146.347 134.007 148.157 136.974 148.307 136.059 151.003ZM123.395 163.925C124.788 165.336 126.079 167.013 126.823 168.865 127.735 171.138 126.049 172.228 124.779 173.811 124.384 174.304 124.018 174.838 123.82 175.444 123.507 176.394 123.722 177.351 123.56 178.311 123.096 181.075 119.577 178.954 117.935 178.703 115.953 178.402 114.651 179.545 112.847 180.035 106.505 181.473 106.354 165.017 106.738 161.022 109.112 161.034 111.69 159.844 112.959 157.981 114.944 158.94 117.025 159.835 119.16 160.597 120.69 161.548 122.128 162.643 123.395 163.925ZM105.961 185.247C104.966 186.694 103.93 188.105 102.873 189.505 103.894 184.582 104.892 179.657 105.855 174.72 106.327 176.932 106.956 179.356 108.687 180.897 107.721 182.294 106.906 183.874 105.961 185.247ZM103.693 177.575C104.659 176.323 105.173 174.587 105.515 172.86 105.536 172.999 105.56 173.137 105.583 173.279 104.16 178.946 102.781 184.621 101.429 190.302 100.906 189.502 100.434 188.675 100.008 187.825 101.101 184.488 102.247 181.169 103.44 177.874 103.528 177.779 103.614 177.682 103.693 177.575ZM105.852 150.147C108.613 149.872 112.732 152.698 111.666 155.804 111.17 157.08 109.632 157.768 108.403 158.131 101.691 159.953 98.5438 152.155 105.852 150.147ZM88.2208 235.881C88.2385 240.774 88.271 245.664 88.3094 250.557 87.8251 248.679 87.3202 246.81 86.7916 244.947 87.2346 241.92 87.7129 238.896 88.2208 235.881ZM85.02 258.246C85.2296 256.501 85.4481 254.759 85.6755 253.017 86.2631 254.641 86.9304 256.279 87.707 257.862 87.9048 258.76 88.1027 259.66 88.2917 260.564 87.58 260.23 86.8359 259.953 86.0741 259.713 85.7168 259.226 85.3654 258.739 85.02 258.246ZM97.1914 224.209C102.722 212.241 112.611 203.144 119.704 192.192 118.33 198.499 117.158 204.848 115.838 211.169 111.486 217.066 107.491 223.232 103.971 229.666 100.318 236.315 97.2475 243.278 94.7051 250.421 93.0309 252.966 92.3606 255.949 91.5456 258.869 91.3301 259.244 91.1293 259.622 90.9462 260.009 90.8015 259.725 90.6598 259.445 90.5151 259.161 91.3567 249.736 92.523 240.352 94.2445 231.045 95.154 228.733 96.1195 226.444 97.1914 224.209ZM143.001 212.537C144.076 208.722 145.57 204.877 148.071 201.756 148.405 202.397 148.473 203.197 148.659 203.894 149.426 206.737 150.176 209.584 150.909 212.436 150.909 212.436 146.388 212.56 146.379 212.56 146.037 212.572 142.951 212.711 143.001 212.537ZM152.06 196.822C153.546 195.112 155.167 193.509 156.974 192.139 158.471 191.005 161.143 188.796 163.175 189.632 164.007 189.971 164.565 190.816 164.719 191.702 165.15 194.164 162.876 196.603 161.252 198.21 158.305 201.159 154.372 202.547 150.628 204.115 150.241 202.952 150.141 201.573 149.418 200.56 150.052 199.149 151.048 197.967 152.06 196.822ZM165.944 193.984C168.2 192.924 171.575 192.466 173.908 193.556 175.131 194.129 175.981 195.487 175.37 196.81 173.344 199.949 169.243 201.537 165.708 202.217 165.162 202.311 164.636 202.423 164.12 202.736 162.389 202.317 160.567 202.134 158.751 202.181 161.757 200.144 164.796 197.581 165.944 193.984ZM169.565 208.072C172.234 211.89 168.685 214.181 165.744 214.754 162.002 215.575 157.378 214.698 153.017 212.354 152.568 210.845 151.659 207.715 151.219 206.194 156.404 203.285 165.537 203.418 169.565 208.072ZM52.8581 183.006C52.7872 184.904 51.8069 186.437 50.8472 188.014 49.9289 189.52 48.9633 191.031 47.7468 192.319 46.5775 193.559 44.98 194.891 43.1906 194.944 40.9553 195.012 40.1965 193.11 39.8894 191.223 39.3136 187.695 40.1787 183.717 41.4101 180.348 43.9731 180.106 46.0223 177.392 45.5942 174.862 47.354 175.777 49.2763 176.214 50.7055 177.676 52.114 179.117 52.9348 180.974 52.8581 183.006ZM30.4345 189.333C27.6736 187.807 27.0299 183.72 26.9472 180.888 26.8557 177.95 26.8911 174.183 29.1294 171.974 32.0349 169.098 35.9887 171.673 38.8027 173.223 37.5655 175.314 37.5744 179.489 40.4474 180.26 39.5705 182.138 38.7998 184.104 38.3539 186.118 36.9159 188.451 32.7259 190.603 30.4345 189.333ZM38.5518 157C41.0528 155.58 44.7172 155.379 46.9288 157.443 47.9003 158.35 48.482 159.608 48.3491 160.948 48.2487 161.967 47.67 162.82 47.3422 163.771 46.9141 164.279 46.5125 164.802 46.1286 165.312 44.6906 167.235 43.5774 169.34 42.6739 171.555 42.6414 171.558 42.6059 171.558 42.5764 171.567 41.416 171.073 40.2585 171.513 39.414 172.408 37.037 170.938 35.6167 168.091 35.4277 165.363 35.2299 162.513 35.847 158.533 38.5518 157ZM39.7299 175.314C39.9484 174.195 40.7723 172.55 42.3313 172.91 43.8668 173.267 43.9849 174.614 43.9849 175.408 43.9347 176.592 43.2201 177.803 42.1689 178.364 40.1256 179.453 39.4258 176.861 39.7299 175.314ZM54.237 162.106C56.2213 162.67 56.5874 164.985 56.6583 166.762 56.7351 168.673 56.4044 170.563 55.8994 172.399 55.4211 174.135 54.736 175.452 52.7045 175.231 51.1159 175.054 49.5066 174.401 48.0184 173.843 47.1326 173.509 46.5184 173.226 45.166 173.433 44.9593 172.697 44.3953 172.074 43.7989 171.877 45.5145 168.324 49.5214 160.993 54.237 162.106ZM40.8992 132.826C38.5429 130.877 38.7348 128.674 41.9504 128.146 47.3777 127.534 50.9033 133.472 54.0244 137.119 50.0234 135.182 44.2713 135.722 40.8992 132.826ZM44.918 119.721C42.1424 119.467 36.5704 120.707 35.3923 117.259 35.032 116.21 35.156 114.917 36.1098 114.217 36.9868 113.571 38.1236 113.665 39.1453 113.863 43.4121 114.755 47.2566 117.353 49.8875 120.796 48.296 120.123 46.418 119.857 44.918 119.721ZM53.9034 108.698C54.8099 106.735 57.0363 102.698 59.2686 102.261 60.5383 102.055 61.7076 102.938 62.1476 104.104 63.9724 109.673 55.111 114.684 51.8571 117.988 51.7035 117.489 51.55 116.993 51.3935 116.494 52.0372 113.836 52.7813 111.179 53.9034 108.698ZM56.7558 133.13C56.7439 129.474 56.9241 125.553 58.9408 122.382 59.4782 121.552 60.2519 120.521 61.309 120.389 62.4133 120.25 63.2933 121.112 63.6771 122.089 64.3976 123.92 63.249 126.02 62.372 127.588 60.7007 130.558 58.5954 133.316 57.4969 136.579 57.1987 135.439 56.6583 134.329 56.7558 133.13ZM43.3294 104.275C38.1443 102.539 29.1176 106.815 26.0171 100.838 24.7061 97.9886 27.3813 96.4916 29.9237 96.7012 32.0467 96.8754 34.1816 97.7199 36.16 98.4581 39.3785 99.7072 43.9495 101.795 45.3402 105.061 44.7231 104.697 44.0056 104.458 43.3294 104.275ZM36.1984 85.395C34.0842 84.7985 31.8548 84.5534 29.6727 84.3408 26.3153 84.019 18.6381 84.1902 18.8123 79.0671 18.9865 73.879 27.4049 77.3191 29.8823 78.509 33.408 80.201 36.5498 82.7168 39.0094 85.7552 39.0773 85.9501 39.1423 86.145 39.2102 86.3399 38.1797 85.8999 37.0104 85.6223 36.1984 85.395ZM40.415 73.6989C40.7368 71.8682 41.1473 69.881 42.2073 68.3189 43.6424 66.0187 46.2527 65.8976 46.4387 69.0069 46.4534 74.384 43.0843 78.5858 40.5213 83.1567 40.285 82.4717 40.0459 81.7866 39.8096 81.1016 39.7978 78.6094 39.9957 76.0995 40.415 73.6989ZM46.9702 91.9147C47.5578 89.8714 48.4554 87.6834 49.9555 86.1361 51.8246 84.2079 54.8512 84.1607 55.7695 86.9895 57.051 90.9285 53.8295 94.776 51.4407 97.5162 50.0824 99.0723 48.2369 100.995 47.1503 103.094 46.7074 101.721 46.2645 100.348 45.8156 98.9749 45.9928 96.5831 46.3117 94.2061 46.9702 91.9147ZM27.4935 64.0757C23.8852 64.2411 19.896 64.8523 16.6774 62.7972 15.3634 61.9409 13.2404 59.7174 14.3506 58.0136 15.2955 56.5668 17.4953 55.9969 19.1017 56.2006 20.9796 56.4369 22.899 57.3611 24.5968 58.1642 27.0654 59.3838 30.1245 61.3444 31.2377 63.8897 29.9739 63.8661 28.6451 64.0256 27.4935 64.0757ZM31.7928 52.8581C31.9847 51.1572 32.345 49.4535 32.9503 47.8472 33.6088 46.105 35.844 43.7457 37.3027 46.1434 38.9238 48.8068 37.9582 52.8905 36.907 55.5776 35.9001 58.1524 34.5123 60.5855 33.216 63.0423 32.658 61.5806 32.091 60.1219 31.5182 58.6662 31.5152 56.7233 31.5772 54.7774 31.7928 52.8581ZM15.5317 42.7861C12.7266 42.349 7.35542 41.5577 7.40267 37.6895 7.46172 32.7938 13.6774 36.1364 15.7118 37.4208 18.3487 39.0833 20.8261 41.1414 22.9344 43.4563 20.4334 43.4475 17.9944 43.1581 15.5317 42.7861ZM11.9234 26.9532C10.3732 26.8469 8.82001 26.7406 7.26979 26.6343 5.76977 26.5309 3.51678 26.7583 2.19688 25.9817 0.900604 25.2199 1.37305 23.77 2.47149 23.1529 4.76287 22.1253 7.41153 22.4679 9.59365 23.6076 11.4982 24.5791 13.4677 25.6185 15.1065 27.0211 13.9549 26.9295 12.7384 27.0093 11.9234 26.9532ZM7.63889 10.571C7.01585 9.22455 6.57884 7.80425 6.56112 6.31308 6.54636 5.14968 6.82097 2.72248 7.96665 2.03153 8.49225 1.71558 9.6468 1.86026 10.069 2.25299 10.7777 3.06205 11.1055 4.1664 11.3683 5.19102 11.7521 6.73534 11.95 8.32394 12.0504 9.90664 12.2334 12.4136 12.0858 14.8614 11.9027 17.3713 11.8821 17.3743 11.8614 17.3743 11.8407 17.3802 10.3702 15.1626 8.76096 12.9835 7.63889 10.571ZM16.8605 18.4639C17.0052 17.1617 18.4343 8.05819 21.3989 10.5415 22.6686 11.6045 22.2464 14.073 21.8773 15.4284 20.9944 18.4461 19.521 21.2602 18.0889 24.0446 17.7286 24.7297 17.327 25.462 17.0967 26.2268 16.9373 25.9108 16.7749 25.5949 16.6124 25.2789 16.5475 23.0023 16.6124 20.7139 16.8605 18.4639ZM24.3015 32.1206C24.4758 30.5172 24.6765 28.7898 25.2819 27.278 25.8813 25.775 28.1018 23.5309 29.7317 25.2642 30.7888 26.3892 30.4345 28.7307 30.2308 30.1008 29.5693 34.7722 27.4167 39.0478 25.0338 43.0636 24.8508 42.6473 24.6677 42.228 24.4846 41.8116 24.0683 38.6108 23.9531 35.3243 24.3015 32.1206ZM70.631 79.8171C69.4941 79.6459 68.186 80.1124 67.1437 79.5691 65.1299 78.5208 65.6083 74.818 66.0157 73.0139 67.1732 67.8819 70.8938 62.8208 73.5513 58.368 74.0887 59.0146 79.9175 62.0354 83.7237 61.6279 84.4353 63.2755 84.8398 65.0088 85.2473 66.7687 85.7198 68.8061 86.3664 70.8022 86.7533 72.8633 87.1312 74.8859 87.3468 77.1212 86.5731 79.0819 85.6548 81.3349 84.391 81.9343 82.0524 81.4618 80.1508 81.2463 79.0228 82.6991 77.2511 82.8231 75.5385 82.9412 74.0208 81.2758 72.6093 80.5228 71.9863 80.1921 71.3308 79.9234 70.631 79.8171ZM61.8139 65.2569C60.1544 66.3907 57.4379 68.688 55.2853 67.7077 54.2695 67.2441 54.0776 66.2254 53.5874 65.3336 53.1799 64.5954 52.6366 64.0757 51.8689 63.7244 51.0214 63.3316 49.985 63.3139 49.2409 62.7293 48.3964 62.0649 47.6434 60.5147 47.7054 59.431 47.8206 57.4644 49.3383 55.9585 49.1995 53.8915 49.0637 51.8718 47.4308 49.3738 49.0283 47.5932 50.735 45.6916 53.6228 46.1877 55.8374 46.5981 61.2942 47.608 66.6654 49.0962 71.9302 50.8472 71.3574 52.8433 71.5463 54.9457 72.3938 56.741 68.9892 59.7263 65.5581 62.6997 61.8139 65.2569ZM56.428 35.5606C54.6238 33.8509 53.0825 30.5585 55.4565 28.7307 56.3335 28.0545 57.3788 27.6293 58.2381 26.9207 59.2213 26.1116 59.7204 25.0781 60.1574 23.9088 61.7106 19.1371 64.8051 21.8773 68.251 22.2405 69.4085 22.3232 70.4479 22.0515 71.3633 21.3281 72.7274 20.2503 74.0503 18.0003 75.8367 20.0347 77.0769 21.4432 77.0976 23.9856 77.3663 25.7573 77.6882 27.8597 77.9923 29.965 78.2817 32.0733 78.5888 34.3056 78.8722 36.5379 79.1468 38.7732 79.3594 40.4888 80.0179 42.5262 79.95 44.3186 77.7206 44.4485 75.4942 45.8717 74.2865 46.9908 71.4075 45.7359 68.691 43.9229 66.0305 42.2782 62.7618 40.2555 59.2332 38.2181 56.428 35.5606ZM85.5013 21.5407C87.459 19.7217 89.5761 22.1667 91.8527 21.7798 94.0289 21.4078 95.5585 19.3025 97.6875 19.0751 98.6648 18.9717 99.6954 19.3556 100.395 20.0406 101.945 21.6381 101.065 24.1214 102.258 25.9197 102.881 26.9886 103.717 27.6087 103.333 28.9522 102.627 31.4089 100.64 33.3932 98.8125 35.0615 96.7869 36.91 95.0919 39.036 93.1785 40.9908 91.4895 42.7861 89.5377 44.3127 87.7926 46.0341 86.3664 45.0538 84.7572 44.3422 83.1065 44.1148 83.0918 38.9002 83.2483 33.6914 83.6646 28.4916 83.8418 26.2592 83.7148 23.2001 85.5013 21.5407ZM107.485 36.1157C109.271 35.9356 113.582 35.3686 114.513 37.4061 114.926 38.3126 114.034 39.8303 114.14 40.8786 114.235 41.8235 114.657 42.6709 115.186 43.4504 115.815 44.3776 116.639 45.2162 117.07 46.2674 117.628 47.6375 116.969 48.2369 116.054 49.1612 115.519 49.7015 115.014 50.2862 114.808 51.0332 114.507 52.1317 115.18 53.3955 114.669 54.3788 113.683 56.2745 110.603 56.7587 108.71 56.7646 105.805 56.7764 102.917 55.8522 100.073 55.3414 97.6225 54.9014 95.1451 54.6327 92.6618 54.5116 93.0929 51.8866 91.5014 49.1936 89.4462 47.3659 94.8941 42.5794 99.7544 36.7742 107.485 36.1157ZM109.316 65.1978C109.463 66.8573 108.288 67.4951 107.154 68.375 105.391 69.7481 105.498 71.4784 105.619 73.5247 105.905 77.6941 102.164 76.2797 99.4857 76.4893 97.0054 76.7669 94.7967 79.5455 92.4492 77.3191 91.398 76.321 90.9639 74.8712 90.5358 73.5336 89.2188 69.3524 88.02 65.1358 86.8566 60.9103 88.9324 60.2371 90.9108 58.7725 91.8557 56.9595 96.4827 57.6505 108.477 59.6613 109.316 65.1978ZM73.6694 53.0529C73.6133 49.7488 76.1852 46.8816 79.2915 46.1729 83.6794 45.1158 88.1824 47.481 90.0249 51.6592 92.2661 56.741 85.9619 59.1948 82.017 59.3011 78.0573 59.4044 73.755 57.5825 73.6694 53.0529ZM95.5083 102.893C96.9286 102.359 98.5822 101.198 99.0428 99.8164 100.404 99.6688 101.798 99.7367 103.162 99.595 103.581 99.6717 104.004 99.7426 104.426 99.8105 105.66 100.011 106.962 100.156 108.064 100.8 111.087 102.565 109.714 107.228 107.464 109.026 105.14 110.881 101.278 111.332 98.6796 109.776 96.465 108.45 95.904 105.247 95.5083 102.893ZM94.0673 107.24C93.8724 108.781 93.5565 110.32 92.4876 111.512 90.521 113.698 86.9068 114.97 84.1016 113.801 81.075 112.543 80.0888 109.218 81.9077 106.531 83.3989 104.325 86.0387 102.415 88.5338 101.192 88.835 101.154 89.1302 101.11 89.4226 101.051 89.898 103.132 92.1362 103.688 94.0703 103.292 94.3036 104.597 94.2652 105.914 94.0673 107.24ZM81.3526 90.5919C87.5092 86.0859 91.9945 90.2405 93.3498 96.6894 91.9974 97.1678 90.4944 97.9916 89.7356 99.1727 87.0308 99.1343 84.0573 99.0487 81.6479 97.6727 78.7659 96.0309 78.884 92.6146 81.3526 90.5919ZM91.5574 101.272C90.0309 100.067 92.151 98.7032 93.214 98.1629 94.1382 97.5605 95.2927 97.4247 96.3026 97.9119 98.4227 98.8833 96.9758 100.218 95.5555 100.879 94.5959 101.39 92.5614 102.081 91.5574 101.272ZM97.8558 88.4688C100.401 86.6174 104.19 87.0308 106.564 89.0033 108.861 90.9108 108.551 94.2681 106.413 96.1668 104.334 98.0152 101.5 97.8322 98.9129 98.3046 98.0949 96.8489 96.1697 96.2435 94.5545 96.4443 95.1481 93.6598 95.4109 90.2494 97.8558 88.4688ZM136.508 67.8376C135.492 64.2736 136.142 60.5324 137.482 57.1367 139.853 60.0127 141.401 63.5177 141.864 67.2441 142.219 69.8573 141.607 72.3111 141.802 74.942 139.154 73.1733 137.344 70.9469 136.508 67.8376ZM141.743 59.2952C143.237 54.0067 145.889 48.4466 151.089 46.043 154.904 44.3156 156.912 46.3088 156.906 50.1976 156.935 52.4712 156.339 54.7892 155.76 57.1603 154.883 60.6741 154.053 64.1289 152.486 67.3652 150.944 70.3032 148.703 73.067 146.184 75.1812 145.49 75.3407 144.805 75.5208 144.12 75.7009 143.55 74.1418 144.105 72.4676 144.224 70.8672 144.498 66.8868 143.604 62.8149 141.743 59.2981 141.743 59.2981 141.743 59.2952 141.743 59.2952ZM157.75 57.6298C158.181 55.7134 158.669 53.7291 158.802 51.6474 159.073 51.1691 159.286 50.67 159.46 50.1799 160.133 48.3196 160.331 46.1847 161.728 44.7408 162.439 43.9495 163.804 43.6512 164.689 44.1916 164.89 44.3186 165.038 44.478 165.135 44.6759 167.211 48.9899 167.527 49.545 172.136 50.9801L172.627 51.1513C173.595 51.4171 173.799 52.5451 173.687 53.4781 173.444 55.3148 171.903 56.3926 170.391 57.3995 165.436 57.3079 160.458 59.0383 156.643 62.1771 157.051 60.6623 157.405 59.1416 157.75 57.6298ZM169.606 43.979C171.891 43.4386 173.403 44.7762 172.907 47.1237 172.774 47.8885 172.461 48.7035 172.207 49.6425 169.089 48.5942 168.36 48.3757 166.945 45.2812 167.816 44.7142 168.69 44.2034 169.606 43.979ZM175.697 60.3227C178.021 62.5403 176.031 65.936 174.153 67.814 171.218 70.8879 167.182 72.63 163.104 73.7432 161.202 74.2629 159.25 74.6733 157.278 75.0749 155.04 74.322 152.615 74.2157 150.292 74.4578 152.97 71.4696 155.022 67.9292 156.103 64.0462 159.924 60.5235 165.135 58.6367 170.306 58.8463 172.095 58.9822 174.33 59.1564 175.697 60.3227ZM162.307 80.7354C156.64 83.2394 148.836 82.5307 144.974 77.4076 148.963 76.4627 153.354 75.7423 157.222 77.4785L157.231 77.5228C157.251 77.5169 157.272 77.5139 157.29 77.508 159.106 78.3112 160.736 79.4953 162.307 80.7354ZM168.755 149.447C166.901 144.947 166.042 139.898 166.665 135.096 166.931 133.658 168.28 130.26 170.335 131.222 170.867 131.47 171.224 132.005 171.395 132.566 171.773 133.788 171.735 135.327 171.726 136.596 171.717 138.073 171.587 139.549 171.404 141.014 171.091 143.53 170.731 146.031 170.084 148.479L169.508 150.649C169.473 150.779 168.755 149.447 168.755 149.447ZM190.429 109.425C190.086 107.627 189.732 105.763 190.296 104.195 191.049 102.306 193.583 101.012 194.454 103.623 195.133 105.474 194.737 107.963 194.563 109.903 194.3 112.806 193.742 115.694 192.915 118.49 192.774 118.974 192.455 119.65 192.298 120.43 191.808 116.709 191.087 112.918 190.429 109.425ZM212.383 114.3C211.692 112.345 209.661 111.43 207.957 111.391 204.239 111.374 200.108 114.645 197.386 117.09 199.32 113.689 201.115 110.207 202.748 106.643L202.757 106.649C204.115 103.941 206.906 102.403 208.736 100.059 211.24 96.8312 213.738 91.0761 210.549 87.5712 209.534 86.5525 208.01 86.0712 206.593 86.3221 204.877 86.6292 203.944 87.893 202.919 89.1509 199.491 93.8488 200.102 100.197 200.938 105.592 199.361 109.094 197.622 112.522 195.744 115.874 196.355 113.048 196.704 110.107 196.881 106.614 197.046 103.431 196.228 101.364 194.448 100.469 192.103 99.2613 189.136 101.125 188.33 103.49 187.577 105.592 187.999 107.833 188.374 109.815 189.245 114.424 190.234 119.606 190.621 124.339 188.427 127.726 186.106 131.036 183.682 134.267 184.76 129.046 184.677 123.548 183.446 118.413 183.009 116.594 181.553 114.462 179.386 115.398 178.5 115.782 177.859 116.609 177.516 117.51 175.937 122.06 177.759 131.346 179.439 135.885 179.495 136.035 180.351 137.695 180.667 138.179 177.567 142.109 174.339 145.939 171.026 149.704 172.635 144.401 173.681 138.82 173.654 133.275 173.049 128.476 168.363 127.496 165.862 131.606 163.446 135.991 165.345 143.869 167.102 148.31 167.583 149.533 168.026 151.124 168.812 152.173 167.642 153.764 166.116 155.184 164.778 156.64 163.192 158.359 161.604 160.08 159.992 161.775 161.973 156.472 163.213 149.772 160.753 145.836 158.929 143.403 155.589 144.061 154.765 146.984 154.461 148.036 154.538 149.084 154.609 150.014L155.698 164.76C155.698 165.153 155.683 165.623 155.846 166.151 153.209 168.918 150.56 171.679 147.915 174.443 149.648 170.105 150.575 164.297 149.06 160.228 148.346 158.099 147.026 156.829 145.434 156.74 143.323 156.622 141.894 158.562 141.404 160.535 140.521 164.108 141.569 167.716 142.496 170.905 142.966 172.514 143.456 174.174 143.728 175.821 143.798 176.657 143.816 177.818 144.194 178.331 144.194 178.331 144.191 178.346 144.191 178.346 140.654 182.07 137.131 185.808 133.688 189.62 134.775 184.674 137.657 180.212 138.005 175.092 138.102 173.69 138.099 171.812 136.824 170.893 133.664 168.626 131.281 175.821 130.877 177.735 129.973 182.005 131.769 191.333 131.795 191.725 126.823 197.288 122.001 202.999 117.492 208.955 118.809 202.249 119.99 195.514 121.664 188.888 121.827 188.238 120.923 187.836 120.575 188.43 112.903 201.62 100.437 211.769 95.1244 226.344 97.4099 214.607 100.1 202.958 102.509 191.253 103.962 189.54 105.403 187.816 106.761 186.029 107.751 184.727 108.955 183.209 109.738 181.636 110.792 182.22 112.02 182.386 113.19 182.093 114.403 181.795 115.449 180.945 116.686 180.744 119.06 180.354 121.106 182.551 123.563 181.476 124.342 181.137 124.927 180.534 125.216 179.728 125.659 178.479 125.063 177.141 125.482 175.904 126.12 174.008 128.311 173.111 128.757 171.044 129.412 167.728 125.565 163.807 123.217 161.846 127.1 162.69 132.542 164.323 135.229 160.396 135.876 159.354 135.861 158.294 135.841 157.107 135.817 155.494 136.428 154.482 137.16 153.117 138.123 151.328 138.755 148.936 137.078 147.345 136.452 146.751 135.56 146.441 134.896 145.904 143.491 135.581 150.339 123.964 156.425 112.023 158.618 107.845 160.529 103.109 163.685 99.5507 164.297 98.8597 163.52 97.7081 162.667 98.2278 152.722 104.269 142.334 110.042 133.605 117.823 128.332 122.523 123.383 127.709 118.897 133.242 124.103 119.919 128.388 106.23 134.798 93.4059 137.37 88.2533 140.149 83.2069 142.759 78.075 146.787 85.6341 158.494 86.0593 165.191 82.0317 165.814 81.6626 166.08 80.6026 165.442 80.0917 163.939 78.887 162.389 77.6793 160.724 76.6901 166.127 75.3584 171.679 73.3328 175.526 69.0866 179.955 64.4537 179.663 58.1406 172.308 57.5353 174.381 56.1445 175.904 53.2272 174.354 50.8797 174.478 49.2911 175.284 47.0292 174.673 45.2103 174.07 42.8569 171.339 41.9859 169.249 42.8392 168.203 43.2319 167.353 43.8579 166.564 44.4957 165.871 42.4849 163.417 42.0833 161.731 42.9898 159.868 44.0174 159.123 46.1434 158.592 48.0391 157.139 41.6522 150.867 43.1758 147.108 46.5981 143.816 49.4653 141.932 53.4693 140.713 57.5442 139.915 56.3158 139 55.1642 137.975 54.1071 137.471 53.5904 136.428 53.6524 136.095 54.3492 134.028 58.6662 132.79 63.5324 134.095 68.2658 134.657 70.2973 135.658 72.1546 137.128 73.6723 138.415 74.9982 140.039 75.7659 141.581 76.6931 136.103 85.6961 131.101 95.0772 127.257 104.904 123.427 114.693 120.527 124.8 116.819 134.633 116.503 135.474 116.178 136.316 115.85 137.155 115.23 137.978 114.622 138.811 114.025 139.65 114.811 137.4 115.555 135.138 116.258 132.861 116.934 130.658 117.911 128.116 116.901 125.863 116.526 125.027 115.93 124.304 115.106 123.891 114.058 123.362 112.918 123.657 111.849 123.285 110.73 122.896 110.479 121.584 109.688 120.817 109.032 120.176 108.132 119.881 107.225 119.893 105.081 119.916 104.006 121.357 102.515 122.594 102.684 121.121 102.335 119.388 102.134 118.044 101.872 116.272 101.429 114.533 100.876 112.829 103.773 113.252 106.971 112.46 109.023 110.473 112.756 106.696 112.203 99.6717 106.13 98.7505 110.411 96.7721 111.731 90.7691 107.848 87.7159 105.196 85.6696 101.269 85.1705 98.2957 86.7857 95.0093 88.5692 94.398 91.8262 93.902 95.1687 92.7858 87.2611 85.9412 84.6627 79.7551 89.6411 77.1301 91.9827 76.5927 96.0811 79.2886 98.5822 80.9835 100.156 83.3841 101.03 85.8024 101.24 71.4755 108.161 83.2365 122.901 93.8813 113.216 94.8498 112.218 95.3607 111.022 95.6146 109.729 96.3646 111.016 97.8233 112.062 99.3765 112.49 99.9227 114.386 100.318 116.299 100.569 118.257 100.77 119.831 100.558 121.706 100.959 123.253 99.0723 123.253 97.6461 123.271 96.5624 125.122 95.4138 127.106 96.1107 129.578 96.5861 131.654 98.0831 137.724 99.967 143.813 102.881 149.373 102.772 149.423 102.663 149.477 102.554 149.533 99.8312 145.225 96.1166 141.613 91.9472 138.705 90.087 137.409 87.4796 135.306 85.0761 135.442 82.9559 135.56 81.7128 137.491 80.6764 139.095 79.8053 140.447 79.0199 141.235 77.4519 141.699 76.3151 142.036 75.2993 142.375 74.4932 143.288 73.2176 144.737 72.9696 146.754 73.758 148.49 74.2452 149.568 75.2108 150.584 75.3023 151.806 75.4086 153.209 74.6586 154.437 75.0011 155.872 75.5001 157.957 77.2541 159.442 79.3565 159.69 82.5189 160.062 86.0593 159.345 89.1952 158.926 92.4994 158.483 95.8331 157.966 99.0694 157.13 94.6815 159.501 90.1519 162.058 86.2631 165.15 84.6745 166.414 83.3103 168.174 83.3752 170.309 83.4048 171.254 83.8064 172.077 84.2936 172.866 85.1469 174.239 85.4304 175.308 85.4865 176.929 85.5485 178.857 86.0623 180.57 87.7247 181.706 89.207 182.719 91.0112 182.885 92.6293 182.099 94.0378 181.39 95.1717 180.082 96.778 179.808 96.9109 182.681 97.6314 185.436 98.969 187.898 95.6057 197.383 92.7917 207.036 90.4826 216.827 90.7159 199.134 87.0603 181.237 77.7708 166.018 76.1616 163.254 74.5375 160.499 72.9046 157.753 72.6654 151.706 71.9243 145.679 71.691 139.626 70.9144 121.094 72.6152 102.536 76.1379 84.3408 76.9027 84.518 77.6882 84.4825 78.4352 84.2286 79.6045 83.83 80.5406 82.9914 81.8309 83.1095 83.8359 83.2926 85.4452 83.3605 86.9097 81.7305 90.1401 77.8476 88.395 72.4145 87.2198 68.0591 86.6027 65.7943 86.1745 63.5147 85.2975 61.3562 85.4481 61.3208 85.5957 61.2824 85.7463 61.2411 86.4816 63.9547 87.2375 66.6624 88.0259 69.3613 88.7434 71.8209 89.2484 74.6143 90.5151 76.8643 92.2041 79.7167 94.714 80.2807 97.5162 78.5445 99.1284 77.7059 100.333 77.7767 102.099 77.9952 103.885 78.2167 106.038 77.9834 106.927 76.1734 107.883 74.2334 106.292 71.5552 107.857 69.9341 108.533 69.2284 109.478 68.8681 110.098 68.0856 110.748 67.2648 111.013 66.2342 110.951 65.1978 110.491 60.0836 102.932 57.5884 98.653 56.7233 102.415 57.2666 106.014 58.9379 109.856 58.9172 112.95 58.9054 117.238 57.1337 117.232 53.5402 117.211 52.9555 116.907 52.238 117.081 51.6622 117.253 51.0952 117.885 50.6996 118.277 50.3009 120.005 48.5499 119.928 46.4446 118.567 44.4573 117.817 43.3589 116.621 42.4406 116.225 41.1354 115.824 39.8067 116.798 38.5222 116.39 37.158 115.741 34.9759 113.296 34.4739 111.326 34.4208 107.579 34.3145 103.696 34.8991 100.363 36.6797 102.598 34.6098 104.922 32.0674 105.604 28.9906 106.029 27.3223 105.002 26.1027 104.107 24.8389 103.661 24.0417 103.611 23.2001 103.499 22.3114 103.233 20.1617 102.291 18.3871 100.242 17.4688 95.4463 15.3693 93.3882 20.9413 89.7356 19.5889 88.7021 19.1784 87.8133 18.7769 86.6765 18.9599 80.8683 20.2149 81.89 28.8872 81.5799 33.4286 81.4648 36.9661 81.5061 40.5065 81.701 44.044 81.3792 44.0558 81.3792 44.0351 81.0602 44.0882 81.4028 40.2998 80.4224 36.5704 79.95 33.0182 79.6842 31.0339 79.4067 29.0496 79.1114 27.0713 78.8191 25.0899 78.6832 22.9875 78.0897 21.0712 77.2187 18.2542 74.3397 16.4973 71.8682 18.6824 71.3633 19.1282 70.9558 19.6922 70.4213 20.1086 68.0384 21.833 65.0295 19.0928 62.3484 19.5771 58.6869 20.0613 59.2597 24.3754 56.6406 26.1205 54.0392 27.6382 52.0106 28.8961 52.7518 32.3213 53.7764 36.6442 58.1495 39.1039 61.5747 41.3717 65.2539 43.8018 69.1014 46.48 73.1556 48.2901 72.8751 48.6858 72.63 49.1139 72.4145 49.5716 66.7923 47.4131 60.9044 45.7271 54.9427 44.8146 50.3334 43.8963 45.6208 46.0105 46.9938 51.3876 47.3009 52.6691 47.7881 53.9093 47.4544 55.2351 47.1503 56.4634 46.3885 57.5323 46.1523 58.7843 45.8097 60.5885 46.8196 63.0334 48.3078 64.12 49.1907 64.7637 50.2862 64.7608 51.2193 65.2598 52.421 65.9065 52.4712 67.4065 53.3364 68.3662 57.113 72.1339 63.2342 66.2815 66.4085 63.9813 68.2805 62.5255 70.0876 60.993 71.88 59.4399 69.0276 63.5856 65.6584 67.9292 64.5571 72.8692 63.9665 75.5799 63.7185 79.6872 66.6476 81.1252 67.9292 81.6567 69.2668 81.1547 70.5719 81.4412 72.0601 81.7689 73.1999 82.8615 74.4932 83.638 69.3465 106.877 68.3603 131.157 71.1388 154.783 68.6142 150.548 66.063 146.329 63.4911 142.124 63.2844 141.785 62.8917 141.714 62.5757 141.95 61.9852 142.39 63.5059 153.696 63.6122 154.96 63.7066 156.103 63.6033 157.514 63.9163 158.613 62.0472 152.087 60.1692 145.567 58.2351 139.062 59.4782 135.247 61.8611 132.026 63.8838 128.47 65.5197 125.594 66.9518 120.71 62.9478 118.968 57.7922 116.981 55.3414 125.701 55.3473 129.406 54.3965 126.262 53.4398 123.117 52.4712 119.978 53.49 118.768 54.8542 117.769 56.0441 116.842 58.0225 115.295 59.8828 113.565 61.4773 111.619 63.6978 108.905 65.8622 103.909 62.0265 101.44 58.3266 99.0635 55.2498 103.59 53.7675 106.434 52.3413 109.171 51.5441 112.115 50.9594 115.109 50.0145 112.082 49.0637 109.059 48.0952 106.038 48.7448 103.986 49.92 102.146 51.3344 100.525 52.8551 98.7062 54.5412 97.0054 55.8109 94.9916 57.7774 91.8764 59.0678 86.7296 55.5215 84.1518 51.6031 81.3053 47.9239 86.0298 46.5686 89.2425 45.606 91.525 45.1424 93.9049 44.9475 96.3203 43.8934 93.1077 42.8245 89.9009 41.7349 86.7001 42.2546 85.2798 43.0046 83.9599 43.7841 82.6695 44.977 80.6852 46.2556 78.7777 47.1149 76.6163 48.3639 73.4657 50.3393 67.3209 46.3944 65.1889 42.6207 63.1486 40.1906 68.5197 39.4907 71.2747 38.9504 73.4125 38.6699 75.5651 38.6197 77.7177 37.1846 73.6664 35.7112 69.627 34.1934 65.6083 35.2682 63.5826 36.2899 61.5245 37.3234 59.4753 38.2447 57.6475 39.1275 55.799 39.4996 53.7705 40.0163 50.9446 40.3293 45.8304 37.409 44.0499 33.9336 41.9268 31.8312 46.734 31.1727 49.294 30.6028 51.5027 30.4197 53.7232 30.4345 55.9526 29.3302 53.2035 28.2435 50.4427 27.0476 47.732 26.8705 47.3334 26.7022 46.9318 26.5309 46.5302 26.3892 46.1995 26.1559 45.8304 26.1559 45.4613 26.1559 45.1483 26.4335 44.9328 26.5841 44.6759 28.0516 42.417 29.5693 40.1787 30.5526 37.6511 32.0969 34.0989 34.2289 25.2523 29.3744 23.4187 22.6657 21.83 22.4324 33.9424 22.8517 38.1738 21.2838 34.7338 19.6597 31.3174 17.9648 27.9394 19.332 24.021 21.5761 20.4599 22.8429 16.4766 23.5131 14.3624 24.1185 9.2334 20.7257 8.91745 15.9067 8.79048 15.3841 19.828 15.5406 23.2267 14.7847 21.7946 14.014 20.3714 13.2285 18.957 13.9018 17.2827 13.6715 15.0504 13.6744 13.3024 13.6744 11.1645 13.5474 9.0208 13.1961 6.90955 12.8506 4.84554 11.5336-0.995093 8.23536 0.144687 5.30618 1.15454 4.82192 5.55422 5.28846 8.09953 6.0621 12.0947 8.88497 15.5347 11.3417 18.6381 12.5524 20.8822 13.7246 23.144 14.8673 25.4266 13.0573 23.7878 10.8102 22.4885 8.62808 21.6824 6.1743 20.7729 1.53546 20.767 0.259846 23.5929-0.233271 24.6825-0.0177168 25.837 0.841548 26.6756 2.05515 27.8567 3.9538 27.7858 5.52174 27.898 7.65661 28.0545 9.79148 28.2081 11.9234 28.3616 13.4589 28.5152 15.0593 28.4266 16.5504 28.84 18.4609 32.7908 20.2769 36.786 22.0249 40.8165 19.0987 37.4445 8.66647 29.2002 6.00599 36.4907 4.8042 40.4091 8.30622 43.415 11.699 44.4131 14.0258 45.0952 16.4973 45.3698 18.9009 45.606 20.4422 45.7566 22.4619 46.1434 24.2071 45.9426 26.1618 50.6435 28.0309 55.3857 29.8321 60.1456 28.1668 58.4802 26.0732 57.1957 23.8822 56.2272 20.4127 54.6917 15.7148 53.4073 13.0248 57.119 10.6242 60.4261 15.2069 64.3002 17.9855 65.2716 20.1883 66.0423 22.6155 66.0807 24.9246 66.122 27.3104 66.1339 29.6579 66.2018 32.0526 66.0955 34.1166 71.7117 36.1216 77.3368 38.0675 82.9973 34.1107 78.5681 27.8331 74.6822 21.7297 74.7206 18.3664 74.8741 16.1902 77.8683 17.268 81.1282 18.5052 84.8723 22.7838 85.9826 26.2533 86.3015 28.8695 86.5406 31.4857 86.7001 34.0724 87.1962 35.3568 87.4442 36.6413 87.707 37.8933 88.0879 38.6108 88.3094 39.3018 88.6549 40.0252 88.7582 41.5016 93.1549 42.9455 97.5605 44.3599 101.978 42.3609 99.7692 39.662 98.2249 36.7948 97.1205 33.5615 95.8744 26.4098 93.0368 24.4167 97.7318 22.6421 101.913 27.5703 105.368 31.0871 105.943 33.8686 106.398 36.6236 105.89 39.411 105.899 41.8205 105.905 43.8668 106.758 46.0873 107.429 47.233 111.067 48.361 114.707 49.4742 118.354 47.8147 116.358 45.7359 114.722 43.353 113.63 40.5537 112.348 35.5192 110.721 33.9454 114.56 33.3223 116.08 33.6412 117.858 34.6452 119.137 37.285 122.234 41.8235 120.941 45.3875 121.466 47.3688 121.646 49.2556 122.308 50.9683 123.294 52.3177 127.776 53.6494 132.265 54.9634 136.759 53.8473 135.285 52.7222 133.824 51.5677 132.377 50.2242 130.697 48.8009 129.014 46.9702 127.841 44.3481 126.167 38.4779 125.47 37.6895 129.663 36.9484 133.594 42.166 135.879 45.1276 136.661 49.1523 137.722 53.1829 138.011 56.2331 141.12 57.4674 145.366 58.6928 149.615 59.9212 153.864 61.3621 158.949 62.7618 164.043 64.7785 168.933 65.8799 178.813 66.7657 188.775 68.0473 198.664 66.2697 195.354 64.4153 192.088 62.4724 188.876 60.0747 184.907 57.6682 180.691 54.1602 177.611 56.9063 177.493 57.6564 175.249 58.1997 173.318 58.8818 170.89 59.2597 168.31 58.932 165.794 58.6721 163.801 58.0373 161.624 56.1386 160.626 54.1366 159.578 51.6356 160.077 49.8669 161.362 50.1622 155.365 43.852 153.141 39.0951 155.226 33.783 157.34 32.7997 165.404 35.3657 169.898 33.1275 168.871 30.6737 168.643 28.4886 170.427 25.1697 173.131 25.0575 178.488 25.4472 182.386 25.7898 185.79 27.2661 190.724 31.2672 191.309 33.6678 191.622 36.4877 190.432 37.9848 188.548 37.8578 190.246 38.0114 191.961 38.5754 193.677 40.2673 198.496 45.3284 197.669 48.4436 194.716 50.1622 193.208 51.4437 191.276 52.5864 189.313 54.6268 186.053 55.7193 182.976 53.9329 179.297 56.7941 182.232 58.8375 186.012 60.869 189.502 63.6122 194.22 66.2106 199.019 68.629 203.911 70.2973 214.884 71.3721 226.022 73.9351 236.862 72.3524 234.954 70.6162 233.183 68.626 231.662 65.9508 229.621 62.9448 228.071 60.0718 226.332 50.3511 220.149 41.165 213.139 31.6097 206.696 30.6707 206.043 29.8174 207.413 30.464 208.181 34.5123 213.003 36.848 218.921 39.2663 224.658 46.6542 243.954 62.7558 257.437 83.1124 261.092 82.5662 265.663 82.0672 270.24 81.6183 274.823 78.2876 261.302 68.9065 255.107 55.8109 261.845 51.0687 264.137 46.542 266.853 41.8087 269.174 36.1039 271.968 30.2721 274.495 24.3399 276.766 23.7907 276.976 23.7966 277.994 24.4935 277.9 34.4503 276.565 44.4101 282.255 54.2488 279.113 56.5609 278.378 58.7076 277.232 60.9133 276.234 63.5413 275.044 66.2874 274.173 69.1368 273.707 71.6467 273.296 74.5818 272.871 76.9795 273.94 78.7393 274.723 80.4785 276.104 81.326 277.885 80.7413 283.705 80.3811 289.554 79.8703 295.371L79.8762 295.363C79.8732 295.374 79.8673 295.386 79.8644 295.398L79.8673 295.377C75.8102 311.892 73.7284 328.788 72.0247 345.667 71.9952 345.977 72.2166 346.251 72.5267 346.287 72.8337 346.322 73.1143 346.098 73.1497 345.788 74.6763 332.178 76.4509 318.592 79.3122 305.201 78.6714 316.968 78.326 328.75 78.2787 340.532 78.2492 347.893 78.1281 355.29 78.8634 362.613 78.9106 363.079 79.575 363.094 79.5986 362.613 80.0061 349.771 79.4982 336.897 80.0474 324.046 80.3811 314.624 80.7266 305.178 81.5238 295.791 83.0888 289.723 84.9284 283.732 87.1046 277.87 86.4786 284.523 85.1263 291.152 84.391 297.81 83.7355 303.713 83.2394 309.628 82.8556 315.548 82.0819 327.389 81.7719 339.247 81.4795 351.097 81.4707 351.33 81.6567 351.525 81.89 351.531 82.1233 351.537 82.3181 351.354 82.3241 351.12 82.9382 330.085 83.6115 308.999 86.7769 288.173 86.644 308.275 87.081 328.638 91.6342 348.283 91.7199 348.631 92.3045 348.566 92.272 348.194 91.3242 337.281 89.8301 326.426 89.2188 315.48 88.4777 302.237 88.6106 288.955 89.3163 275.715 89.3724 273.937 89.6942 272.189 90.1519 270.473 90.1549 270.473 90.1578 270.473 90.1608 270.473 94.2799 294.43 96.0989 318.778 101.012 342.596 101.083 342.917 101.609 342.85 101.591 342.519 99.6127 317.842 95.9689 293.275 92.2455 268.808 92.2661 268.799 92.2838 268.782 92.3075 268.784 95.5703 282.488 108.58 286.498 121.106 287.464 126.002 288.013 130.895 288.494 135.796 287.738 136.614 287.612 136.431 286.484 135.796 286.256 130.221 284.384 128.261 282.128 124.525 277.885 117.35 269.759 105.722 263.198 94.8853 267.214 93.8754 267.134 92.8478 267.181 92.0063 267.444 91.9945 267.385 91.9827 267.326 91.9738 267.264 95.1422 259.454 103.507 255.485 111.253 253.442 121.106 250.389 129.923 251.806 139.162 256.07 141.77 257.245 144.404 259.073 147.182 259.802 148.254 260.083 149.037 258.745 148.26 257.954 137.807 246.783 124.865 232.474 108.134 240.275 117.055 229.208 128.435 219.975 141.625 214.509 142.446 214.893 143.485 214.692 144.365 214.669 146.707 214.604 149.051 214.544 151.393 214.485 152.869 214.447 153.856 215.147 155.19 215.672 156.498 216.189 157.86 216.567 159.247 216.8 163.473 217.512 170.695 217.288 172.328 212.259 173.335 209.129 170.45 205.931 168.189 204.289 169.358 203.888 170.258 203.572 170.734 203.386 174.085 201.989 178.99 198.216 177.032 194.085 174.891 190.376 169.479 191.203 166.151 192.673 166.316 190.349 164.536 188.02 162.088 188.158 160.975 188.2 159.941 188.716 158.988 189.289 157.662 190.086 156.439 191.023 155.258 192.021 153.805 193.261 152.444 194.607 151.177 196.039 149.976 197.406 148.91 198.847 147.525 200.126 146.987 200.344 146.559 200.793 146.264 201.198 143.955 204.337 142.151 207.88 141.209 211.671 140.905 213.6 141.194 213.617 139.195 214.267 128.346 218.87 118.661 225.987 110.582 234.532 113.423 227.333 115.239 219.898 116.807 212.356 116.954 211.642 118.142 210.573 118.59 209.982 120.533 207.437 122.535 204.936 124.582 202.473 127.263 199.243 130.035 196.098 132.817 192.957 132.944 192.812 133.08 192.661 133.266 192.605 134.597 193.343 135.962 193.653 136.623 193.834 138.705 194.403 140.89 194.764 143.031 195.029 154.337 196.568 154.883 184.018 145.461 185.542 141.991 186.325 138.988 188.477 135.696 189.806 138.882 186.328 142.136 182.914 145.402 179.507L163.054 182.548C165.038 183.029 168.203 183.425 170.002 181.636 172.066 179.716 171.54 176.013 169.556 174.177 165.153 170.155 155.964 171.655 150.705 174 152.855 171.773 155.007 169.544 157.154 167.312 157.154 167.312 164.143 167.825 167.816 168.779 171.07 169.559 176.941 171.389 179.95 169.305 182.111 167.76 182.046 164.217 180.372 162.295 176.728 158.14 168.501 158.772 163.517 160.635 163.877 160.499 164.356 159.741 164.624 159.451 165.918 158.069 167.205 156.681 168.481 155.285 168.906 154.818 169.316 154.334 169.756 153.885 170.261 153.368 170.459 153.59 171.147 153.711 173.108 154.059 175.133 153.649 177.109 153.563 179.43 153.454 181.754 153.365 184.078 153.271 185.885 153.194 188.138 153.103 190.016 152.001 193.969 149.651 193.701 144.162 188.669 143.305 187.24 143.084 185.84 143.361 184.535 143.689 181.219 144.619 178.6 145.555 175.745 147.108 177.965 144.528 180.141 141.912 182.262 139.245 182.264 139.242 182.27 139.242 182.273 139.242 182.273 139.242 194.191 137.55 199.869 135.838 201.673 135.235 203.749 134.559 204.552 132.663 205.022 131.55 204.862 130.13 203.973 129.309 203.111 128.515 201.821 128.435 200.649 128.482 195.797 128.674 191.082 130.316 187.042 132.988 188.749 130.655 190.405 128.281 191.997 125.869 192.638 125.899 193.089 125.875 193.636 125.872 198.254 125.429 202.801 124.083 206.968 122.039 209.879 120.681 213.532 117.947 212.383 114.3" fill="#A2C8C4" transform="matrix(1 0 0 1.00143 875.227 860.162)"/></g></svg>