<svg width="248" height="362" xmlns="http://www.w3.org/2000/svg" xmlns:xlink="http://www.w3.org/1999/xlink" xml:space="preserve" overflow="hidden"><defs><clipPath id="clip0"><rect x="751" y="55" width="248" height="362"/></clipPath><clipPath id="clip1"><rect x="872" y="128" width="127" height="286"/></clipPath></defs><g clip-path="url(#clip0)" transform="translate(-751 -55)"><path d="M60.8251 92.1356C60.8251 92.1356 60.8279 92.1499 60.8337 92.1728 60.8422 92.1413 60.8537 92.1098 60.868 92.0811 60.8337 92.1155 60.8251 92.1356 60.8251 92.1356" fill="#A2C8C4" transform="matrix(1 0 0 1.00279 751.222 55.0735)"/><path d="M73.3137 108.795C71.9274 108.723 71.8099 110.877 73.1992 110.952 74.5884 111.023 74.703 108.869 73.3137 108.795" fill="#A2C8C4" transform="matrix(1 0 0 1.00279 751.222 55.0735)"/><path d="M65.2047 128.633C63.8183 128.559 63.7009 130.716 65.093 130.787 66.4793 130.862 66.5939 128.705 65.2047 128.633" fill="#A2C8C4" transform="matrix(1 0 0 1.00279 751.222 55.0735)"/><path d="M60.023 138.773C58.6367 138.699 58.5221 140.856 59.9113 140.927 61.2977 140.999 61.4123 138.845 60.023 138.773" fill="#A2C8C4" transform="matrix(1 0 0 1.00279 751.222 55.0735)"/><path d="M91.5541 193.231C90.1677 193.159 90.0503 195.313 91.4395 195.388 92.8288 195.459 92.9433 193.305 91.5541 193.231" fill="#A2C8C4" transform="matrix(1 0 0 1.00279 751.222 55.0735)"/><path d="M79.0626 211.537C77.6762 211.466 77.5616 213.62 78.9508 213.694 80.3372 213.766 80.4518 211.612 79.0626 211.537" fill="#A2C8C4" transform="matrix(1 0 0 1.00279 751.222 55.0735)"/><path d="M76.0492 215.842C74.6629 215.768 74.5454 217.925 75.9346 217.996 77.321 218.071 77.4384 215.914 76.0492 215.842" fill="#A2C8C4" transform="matrix(1 0 0 1.00279 751.222 55.0735)"/><path d="M92.5194 206.668C91.133 206.596 91.0185 208.75 92.4077 208.825 93.794 208.896 93.9086 206.742 92.5194 206.668" fill="#A2C8C4" transform="matrix(1 0 0 1.00279 751.222 55.0735)"/><path d="M71.7727 123.93C69.8564 123.827 70.014 120.851 71.9303 120.951 73.8494 121.054 73.689 124.03 71.7727 123.93ZM71.9847 119.931C68.5159 119.751 68.2266 125.139 71.7011 125.319 75.167 125.503 75.4563 120.115 71.9847 119.931" fill="#A2C8C4" transform="matrix(1 0 0 1.00279 751.222 55.0735)"/><path d="M62.5007 112.882C59.5762 112.728 59.8197 108.193 62.7385 108.345 65.663 108.5 65.4195 113.037 62.5007 112.882ZM62.8187 106.841C57.9635 106.586 57.5597 114.131 62.4234 114.386 67.2756 114.641 67.6795 107.099 62.8187 106.841" fill="#A2C8C4" transform="matrix(1 0 0 1.00279 751.222 55.0735)"/><path d="M59.1752 126.651C56.2506 126.497 56.4941 121.962 59.4129 122.114 62.3374 122.269 62.094 126.806 59.1752 126.651ZM59.4817 120.785C55.0906 120.553 54.7239 127.379 59.1236 127.611 63.5147 127.843 63.8813 121.017 59.4817 120.785" fill="#A2C8C4" transform="matrix(1 0 0 1.00279 751.222 55.0735)"/><path d="M106.059 44.7129C104.209 44.6155 104.057 47.4914 105.907 47.5888 107.758 47.6862 107.913 44.8103 106.059 44.7129" fill="#A2C8C4" transform="matrix(1 0 0 1.00279 751.222 55.0735)"/><path d="M119.379 14.1873C117.299 14.0756 117.124 17.3094 119.21 17.4183 121.289 17.5271 121.461 14.2961 119.379 14.1873" fill="#A2C8C4" transform="matrix(1 0 0 1.00279 751.222 55.0735)"/><path d="M128.96 12.2681C127.112 12.1707 126.958 15.0437 128.811 15.1411 130.659 15.2385 130.813 12.3655 128.96 12.2681" fill="#A2C8C4" transform="matrix(1 0 0 1.00279 751.222 55.0735)"/><path d="M133.772 26.8306C132.154 26.7447 132.019 29.2596 133.64 29.3455 135.259 29.4315 135.393 26.9166 133.772 26.8306" fill="#A2C8C4" transform="matrix(1 0 0 1.00279 751.222 55.0735)"/><path d="M93.7253 0.00286438C91.8749-0.0945243 91.7202 2.77845 93.5735 2.87584 95.4239 2.97322 95.5757 0.100253 93.7253 0.00286438" fill="#A2C8C4" transform="matrix(1 0 0 1.00279 751.222 55.0735)"/><path d="M127.227 62.9246C125.609 62.8416 125.474 65.3565 127.092 65.4396 128.711 65.5255 128.848 63.0106 127.227 62.9246" fill="#A2C8C4" transform="matrix(1 0 0 1.00279 751.222 55.0735)"/><path d="M114.366 70.6155C112.748 70.5296 112.61 73.0445 114.231 73.1304 115.85 73.2164 115.987 70.7014 114.366 70.6155" fill="#A2C8C4" transform="matrix(1 0 0 1.00279 751.222 55.0735)"/><path d="M111.57 303.005C111.447 300.625 109.416 298.798 107.036 298.921 104.653 299.047 102.825 301.078 102.951 303.461 103.075 305.841 105.108 307.669 107.489 307.543 109.869 307.416 111.696 305.386 111.57 303.005Z" stroke="#A2C8C4" stroke-width="1.43884" stroke-miterlimit="10" fill="none" transform="matrix(1 0 0 -1.00279 751.222 416.853)"/><path d="M134.674 314.219C134.551 311.836 132.518 310.009 130.137 310.135 127.757 310.258 125.93 312.292 126.053 314.672 126.179 317.052 128.21 318.88 130.593 318.754 132.973 318.631 134.8 316.6 134.674 314.219Z" stroke="#A2C8C4" stroke-width="1.43884" stroke-miterlimit="10" fill="none" transform="matrix(1 0 0 -1.00279 751.222 416.853)"/><path d="M89.2941 200.504C88.4033 200.455 87.6414 201.142 87.5927 202.033 87.5468 202.927 88.2343 203.689 89.1251 203.737 90.0159 203.783 90.7807 203.096 90.8265 202.205 90.8724 201.314 90.1849 200.549 89.2941 200.504ZM89.0478 205.173C87.3664 205.084 86.0688 203.643 86.1547 201.959 86.2435 200.274 87.6872 198.977 89.3714 199.066 91.0528 199.154 92.3504 200.598 92.2616 202.279 92.1728 203.964 90.732 205.261 89.0478 205.173" fill="#A2C8C4" transform="matrix(1 0 0 1.00279 751.222 55.0735)"/><path d="M84.4075 214.654C83.4164 214.602 82.5686 215.367 82.517 216.358 82.4654 217.346 83.2302 218.194 84.2184 218.248 85.2095 218.3 86.0574 217.535 86.1089 216.547 86.1633 215.556 85.3986 214.708 84.4075 214.654ZM84.144 219.683C82.3595 219.589 80.9874 218.065 81.0791 216.281 81.1736 214.499 82.7003 213.124 84.4848 213.219 86.2665 213.31 87.6414 214.837 87.5468 216.621 87.4523 218.403 85.9256 219.778 84.144 219.683" fill="#A2C8C4" transform="matrix(1 0 0 1.00279 751.222 55.0735)"/><path d="M59.4101 91.872 59.4072 91.8864C59.4645 91.7174 59.5275 91.5484 59.5905 91.3794 59.4903 91.5484 59.4387 91.7145 59.4101 91.872" fill="#A2C8C4" transform="matrix(1 0 0 1.00279 751.222 55.0735)"/><path d="M44.839 339.455C43.2893 339.371 41.6423 339.154 39.9266 338.738 33.94 337.295 29.7781 334.161 27.3405 331.787 27.0655 331.517 26.9968 331.128 27.1428 330.876 27.3348 330.538 27.9134 330.409 28.3459 330.755 29.4429 331.827 30.9983 333.147 33.0435 334.379 35.0256 335.573 37.4288 336.656 40.2617 337.341 45.81 338.675 50.5763 337.888 53.5982 336.988 54.1253 336.951 54.5263 337.338 54.5206 337.719 54.5148 337.985 54.3086 338.246 54.005 338.369 49.8831 339.251 46.6006 339.546 44.839 339.455" fill="#A2C8C4" transform="matrix(1 0 0 1.00279 751.222 55.0735)"/><path d="M109.425 153.416C104.157 192.919 101.256 214.674 85.7766 222.751 74.491 228.64 57.5196 226.481 47.944 217.939 28.6724 200.744 39.9065 159.603 45.9418 137.499 48.2533 129.043 53.3777 113.189 58.4075 98.9442 59.0148 97.2112 59.6363 95.4697 60.2665 93.7339 61.249 94.6304 63.2541 95.7476 67.1897 97.1425 72.1537 98.9041 78.8592 100.608 86.0745 101.952 92.4678 103.141 98.589 103.917 103.562 104.177 104.2 104.212 104.822 104.238 105.423 104.255 109.33 104.364 111.57 104.086 112.862 103.653 113.091 103.573 113.295 103.49 113.469 103.404 113.372 105.635 113.263 107.864 113.143 110.081 112.235 126.852 110.914 142.242 109.425 153.416ZM63.0593 231.187C58.187 230.565 53.942 227.211 51.9655 222.597 57.004 225.53 62.9733 227.208 68.9542 227.523 70.7272 227.615 72.4945 227.589 74.2418 227.44 72.2482 229.19 68.2782 231.846 63.0593 231.187ZM49.7829 301.315C49.1642 304.38 47.8752 310.753 49.4191 318.754 50.4216 323.95 52.4496 328.948 55.4458 333.608 55.8038 334.15 56.517 334.216 56.8837 333.878 57.1844 333.603 57.2503 333.058 56.9581 332.637 54.5721 328.928 52.8306 325.001 51.7622 320.925 58.8171 322.864 65.1331 325.588 70.0197 328.862 76.5562 333.242 79.7357 338.022 78.9823 342.319 78.8649 342.986 78.6529 343.631 78.355 344.252 78.3293 344.292 78.3092 344.335 78.2892 344.378 76.6106 347.701 72.3313 350.331 65.9609 351.9 58.1211 353.828 48.1244 353.888 37.8126 352.069 27.5009 350.25 18.1258 346.776 11.4203 342.285 4.88663 337.905 1.7043 333.124 2.4605 328.828 3.21956 324.528 7.84553 321.128 15.482 319.243 20.6092 317.983 26.6616 317.525 33.1151 317.863 33.7853 317.897 34.4556 317.946 35.1287 317.997 32.6768 321.014 29.7466 323.692 26.3895 325.983 25.957 326.258 25.8023 326.783 25.9742 327.155 26.1833 327.607 26.865 327.825 27.4006 327.47 31.9779 324.345 35.7961 320.532 38.7436 316.138 43.2836 309.37 44.584 303 45.2142 299.938 46.6493 292.914 51.7908 267.352 58.1211 231.178 59.5962 231.909 61.1946 232.396 62.876 232.61 63.2369 232.656 63.592 232.688 63.9415 232.705 64.2193 232.719 64.4915 232.728 64.7636 232.722 56.4512 268.63 51.2007 294.269 49.7829 301.315ZM75.0238 351.161C72.5346 354.266 67.9402 356.598 61.355 358.099 49.3733 360.826 39.0787 358.397 32.926 356.944 30.7491 356.429 22.9637 354.392 14.1844 349.698 13.9381 349.566 13.56 349.362 13.073 349.087L13.0415 349.067C9.48968 347.031 5.46237 344.719 3.12504 340.403 2.14255 338.589 1.76446 337 1.62983 336.215 1.46083 335.241 1.40641 334.238 1.46083 333.236 2.65528 336.71 5.77745 340.231 10.6211 343.476 17.487 348.082 27.0569 351.637 37.5634 353.487 41.1869 354.126 44.7702 354.535 48.2447 354.716 54.8471 355.065 61.0428 354.59 66.3046 353.298 70.8046 352.19 74.3421 350.545 76.7625 348.483 76.2669 349.44 75.6854 350.336 75.0238 351.161ZM60.868 92.0811C61.0886 91.8577 62.3632 90.9927 68.7622 91.1932 69.2778 91.2075 69.8049 91.2276 70.3491 91.2562 75.2587 91.5169 81.3283 92.2902 87.6528 93.4646 94.6763 94.7708 101.224 96.4264 106.097 98.1307 112.851 100.5 113.157 101.797 113.163 101.866 113.131 101.923 112.384 103.029 105.226 102.808 100.07 102.648 93.3615 101.84 86.3352 100.534 79.3118 99.2278 72.7638 97.5722 67.8943 95.8679 61.6385 93.6766 60.9167 92.3962 60.8337 92.1728 60.8279 92.1499 60.8251 92.1356 60.8251 92.1356 60.8251 92.1356 60.8337 92.1155 60.868 92.0811ZM66.0354 78.292C72.274 82.8836 79.4951 86.2235 86.9826 87.9822 90.4885 88.8043 93.8571 89.2454 97.0222 89.4115 103.802 89.7696 109.654 88.873 113.988 87.8046 113.899 91.9064 113.773 96.034 113.604 100.162 112.579 99.2793 110.579 98.1937 106.801 96.8561 101.834 95.0973 95.1317 93.3902 87.9135 92.0496 80.701 90.7062 73.8293 89.8842 68.5646 89.7438 65.0529 89.6464 62.8817 89.8641 61.544 90.2222 63.0077 86.2235 64.5115 82.2363 66.0354 78.292ZM92.3819 77.9999C99.7519 79.6096 106.712 82.4798 113.088 86.5386 106.89 87.9965 97.7383 89.0306 87.3091 86.5815 80.2398 84.9202 73.4083 81.8066 67.4561 77.5473 75.6826 76.0779 84.2614 76.2297 92.3819 77.9999ZM115.449 86.7677 115.457 86.3724 115.131 86.1519C108.271 81.5631 100.72 78.3493 92.6855 76.5992 83.8432 74.6657 74.4652 74.617 65.5627 76.4416L65.176 76.5219 65.0357 76.8885C63.1796 81.6691 61.3578 86.5185 59.5905 91.3765L59.5905 91.3794C59.5275 91.5484 59.4645 91.7174 59.4072 91.8864 58.608 94.0805 57.8232 96.2717 57.0498 98.4601 52.0114 112.739 46.8727 128.633 44.5583 137.121 38.4371 159.523 27.0512 201.223 46.9873 219.013 47.9296 219.852 48.935 220.634 49.9977 221.359 51.089 225.103 53.412 228.211 56.4569 230.227 50.0808 266.717 44.8963 292.516 43.4497 299.58 42.8482 302.527 41.5936 308.665 37.2512 315.136 36.9075 315.646 36.5523 316.15 36.1828 316.645 28.4719 315.964 21.1849 316.362 15.1411 317.851 6.91174 319.876 1.90768 323.68 1.04263 328.578L1.00253 328.561C0.0343725 331.136-0.240608 333.872 0.211964 336.464 0.363776 337.332 0.779111 339.094 1.85612 341.084 4.39109 345.765 8.78791 348.288 12.3254 350.316L12.3598 350.336C12.8582 350.623 13.2506 350.829 13.5313 350.981 22.4367 355.744 30.371 357.824 32.5938 358.345 36.2115 359.199 41.227 360.382 47.1906 360.697 51.5703 360.926 56.4597 360.685 61.6758 359.499 68.682 357.904 73.4111 355.472 76.1437 352.064 77.7936 350.004 78.968 347.586 79.6497 344.868 80.0078 344.135 80.2599 343.364 80.3973 342.568 81.2624 337.676 77.8595 332.382 70.8217 327.668 65.6315 324.187 58.8916 321.323 51.3783 319.332 51.3096 319.026 51.2466 318.719 51.1864 318.413 49.7084 310.762 50.9487 304.621 51.5416 301.668 52.9709 294.593 58.2643 268.753 66.6397 232.587 72.0506 231.834 75.6826 228.156 76.5705 227.168 80.0679 226.641 83.425 225.601 86.4441 224.026 102.582 215.602 105.518 193.583 110.851 153.605 112.347 142.394 113.67 126.964 114.581 110.158 114.999 102.39 115.294 94.5187 115.449 86.7677" fill="#A2C8C4" transform="matrix(1 0 0 1.00279 751.222 55.0735)"/><path d="M78.355 344.252C78.3293 344.292 78.3092 344.335 78.2892 344.378 78.2978 344.333 78.3121 344.29 78.3235 344.244L78.355 344.252" fill="#A2C8C4" transform="matrix(1 0 0 1.00279 751.222 55.0735)"/><path d="M141.967 110.376C140.589 110.207 140.323 112.349 141.704 112.518 143.084 112.687 143.348 110.548 141.967 110.376" fill="#A2C8C4" transform="matrix(1 0 0 1.00279 751.222 55.0735)"/><path d="M144.133 132.343C142.755 132.171 142.488 134.314 143.869 134.483 145.25 134.654 145.513 132.512 144.133 132.343" fill="#A2C8C4" transform="matrix(1 0 0 1.00279 751.222 55.0735)"/><path d="M142.938 143.606C141.56 143.437 141.294 145.576 142.675 145.748 144.052 145.917 144.319 143.775 142.938 143.606" fill="#A2C8C4" transform="matrix(1 0 0 1.00279 751.222 55.0735)"/><path d="M196.047 178.749C194.669 178.577 194.402 180.719 195.783 180.888 197.164 181.057 197.427 178.918 196.047 178.749" fill="#A2C8C4" transform="matrix(1 0 0 1.00279 751.222 55.0735)"/><path d="M203.004 190.633C201.856 190.49 201.635 192.277 202.786 192.417 203.935 192.558 204.156 190.773 203.004 190.633" fill="#A2C8C4" transform="matrix(1 0 0 1.00279 751.222 55.0735)"/><path d="M192.415 202.239C191.266 202.096 191.045 203.881 192.194 204.024 193.345 204.164 193.566 202.38 192.415 202.239" fill="#A2C8C4" transform="matrix(1 0 0 1.00279 751.222 55.0735)"/><path d="M191.412 207.352C190.263 207.212 190.043 208.996 191.191 209.14 192.343 209.28 192.564 207.496 191.412 207.352" fill="#A2C8C4" transform="matrix(1 0 0 1.00279 751.222 55.0735)"/><path d="M132.32 118.872C129.249 118.494 129.839 113.73 132.904 114.105 135.975 114.483 135.385 119.247 132.32 118.872ZM133.116 112.378C128.063 111.757 127.09 119.611 132.151 120.232 137.207 120.851 138.18 113 133.116 112.378" fill="#A2C8C4" transform="matrix(1 0 0 1.00279 751.222 55.0735)"/><path d="M146.347 124.97C144.133 124.698 144.557 121.261 146.771 121.533 148.985 121.805 148.561 125.242 146.347 124.97ZM146.725 120.373C143.05 119.92 142.342 125.632 146.023 126.084 149.698 126.537 150.408 120.825 146.725 120.373" fill="#A2C8C4" transform="matrix(1 0 0 1.00279 751.222 55.0735)"/><path d="M135.236 131.678C133.222 131.429 133.609 128.304 135.62 128.553 137.633 128.8 137.25 131.925 135.236 131.678ZM135.963 127.287C132.056 126.809 131.306 132.876 135.216 133.357 139.123 133.835 139.876 127.768 135.963 127.287" fill="#A2C8C4" transform="matrix(1 0 0 1.00279 751.222 55.0735)"/><path d="M197.155 191.057C194.718 190.756 195.184 186.975 197.619 187.273 200.057 187.574 199.59 191.355 197.155 191.057ZM197.759 186.13C193.855 185.652 193.102 191.719 197.015 192.2 200.922 192.678 201.672 186.611 197.759 186.13" fill="#A2C8C4" transform="matrix(1 0 0 1.00279 751.222 55.0735)"/><path d="M198.799 206.602C196.118 206.272 196.634 202.113 199.312 202.44 201.993 202.769 201.477 206.931 198.799 206.602ZM199.449 201.308C195.313 200.801 194.517 207.226 198.662 207.736 202.795 208.243 203.591 201.815 199.449 201.308" fill="#A2C8C4" transform="matrix(1 0 0 1.00279 751.222 55.0735)"/><path d="M213.554 333.511C212.113 334.09 210.529 334.582 208.796 334.932 202.761 336.146 197.665 335.058 194.454 333.929 194.09 333.8 193.867 333.477 193.89 333.184 193.924 332.798 194.391 332.437 194.932 332.571 196.379 333.078 198.344 333.623 200.718 333.878 203.018 334.124 205.654 334.095 208.512 333.522 214.106 332.397 218.097 329.673 220.457 327.585 220.921 327.327 221.448 327.51 221.603 327.857 221.711 328.1 221.634 328.427 221.411 328.664 218.042 331.202 215.192 332.852 213.554 333.511" fill="#A2C8C4" transform="matrix(1 0 0 1.00279 751.222 55.0735)"/><g clip-path="url(#clip1)"><path d="M193.747 137.579C205.611 175.624 212.144 196.577 201.512 210.426 193.755 220.517 177.457 225.713 165.171 221.998 140.452 214.525 133.308 172.479 129.467 149.887 128 141.245 125.97 124.709 124.526 109.671 124.351 107.844 124.182 106.005 124.019 104.166 125.288 104.561 127.577 104.73 131.736 104.338 136.977 103.842 143.777 102.565 150.887 100.743 157.186 99.1275 163.066 97.2514 167.686 95.3952 168.279 95.1575 168.855 94.9169 169.405 94.6791 172.994 93.1324 174.907 91.9351 175.899 90.9984 176.073 90.8323 176.222 90.6719 176.343 90.5172 177.196 92.5824 178.035 94.6476 178.863 96.7128 185.105 112.304 190.389 126.815 193.747 137.579ZM184.463 227.644C179.783 229.136 174.521 227.881 170.786 224.53 176.586 225.066 182.71 224.072 188.267 221.837 189.911 221.176 191.507 220.408 193.028 219.534 191.956 221.963 189.473 226.045 184.463 227.644ZM201.967 296.841C202.698 299.877 204.216 306.202 208.988 312.807 212.084 317.098 216.028 320.776 220.712 323.741 221.262 324.081 221.938 323.841 222.13 323.38 222.287 323.002 222.115 322.48 221.674 322.22 217.945 319.862 214.711 317.035 212.027 313.793 219.242 312.575 226.117 312.386 231.929 313.294 239.7 314.514 244.601 317.508 245.723 321.721 245.898 322.377 245.978 323.05 245.97 323.741 245.967 323.789 245.967 323.835 245.964 323.884 245.841 327.605 243.068 331.789 237.952 335.897 231.657 340.95 222.617 345.218 212.494 347.913 202.377 350.608 192.412 351.405 184.437 350.156 176.666 348.938 171.768 345.942 170.642 341.726 169.52 337.51 172.281 332.474 178.416 327.55 182.535 324.248 187.829 321.28 193.824 318.868 194.445 318.619 195.073 318.378 195.709 318.144 194.755 321.91 193.225 325.574 191.146 329.065 190.871 329.498 190.951 330.039 191.263 330.306 191.644 330.626 192.352 330.538 192.69 329.988 195.525 325.227 197.381 320.16 198.203 314.933 199.47 306.884 197.966 300.556 197.247 297.514 195.588 290.54 189.481 265.193 179.98 229.717 181.627 229.757 183.283 229.525 184.898 229.013 185.245 228.904 185.58 228.781 185.904 228.649 186.162 228.549 186.411 228.437 186.654 228.32 194.245 264.385 200.286 289.852 201.967 296.841ZM245.861 331.411C244.913 335.275 241.725 339.323 236.386 343.462 226.67 350.981 216.309 353.118 210.119 354.392 207.928 354.842 200.008 356.274 190.066 355.716 189.788 355.701 189.361 355.676 188.803 355.63L188.768 355.627C184.686 355.274 180.061 354.876 176.122 351.946 174.466 350.714 173.455 349.431 173 348.778 172.438 347.965 171.966 347.079 171.593 346.149 174.14 348.795 178.456 350.674 184.214 351.577 192.383 352.857 202.557 352.052 212.869 349.302 216.421 348.354 219.844 347.217 223.072 345.917 229.207 343.45 234.627 340.411 238.852 337.02 242.467 334.121 244.982 331.139 246.311 328.249 246.262 329.326 246.113 330.383 245.861 331.411ZM123.87 102.41C123.976 102.115 124.764 100.795 130.656 98.2797 131.128 98.0763 131.615 97.8729 132.119 97.6695 136.682 95.8363 142.511 93.9802 148.741 92.3819 155.665 90.606 162.301 89.3485 167.434 88.8415 174.558 88.1455 175.383 89.1939 175.42 89.254 175.414 89.317 175.2 90.6375 168.617 93.4503 163.871 95.4783 157.449 97.5722 150.529 99.3481 143.608 101.121 136.972 102.379 131.836 102.886 125.239 103.536 124.045 102.676 123.876 102.507 123.861 102.49 123.853 102.479 123.853 102.479 123.853 102.479 123.853 102.456 123.87 102.41ZM122.744 87.7302C130.338 89.2626 138.295 89.2511 145.825 87.6929 149.352 86.9596 152.594 85.9399 155.533 84.7569 161.832 82.2248 166.764 78.948 170.241 76.1523 171.891 79.9104 173.515 83.7057 175.099 87.5211 173.799 87.1516 171.53 87.0112 167.537 87.3893 162.293 87.8877 155.493 89.1623 148.383 90.987 141.277 92.8087 134.697 94.957 129.865 97.048 126.637 98.4401 124.761 99.5514 123.701 100.439 123.343 96.1973 123.025 91.9494 122.744 87.7302ZM146.516 76.3643C153.88 74.7173 161.402 74.3879 168.892 75.3847 163.885 79.3175 156.023 84.1124 145.53 86.2836 138.418 87.7559 130.911 87.8104 123.721 86.4526 130.561 81.6548 138.407 78.1803 146.516 76.3643ZM171.132 74.597 170.969 74.2332 170.582 74.1731C162.427 72.9013 154.227 73.1677 146.201 74.9636 137.37 76.9372 128.843 80.8413 121.538 86.2493L121.22 86.4842 121.246 86.8794C121.579 91.9952 121.971 97.1597 122.412 102.31L122.415 102.313C122.429 102.493 122.444 102.674 122.464 102.848 122.661 105.177 122.873 107.494 123.094 109.806 124.54 124.878 126.577 141.457 128.055 150.131 131.939 173.026 139.183 215.642 164.756 223.376 165.968 223.739 167.208 224.026 168.477 224.238 171.043 227.171 174.461 229.01 178.07 229.554 187.663 265.333 193.83 290.918 195.494 297.932 196.19 300.857 197.639 306.955 196.425 314.652 196.33 315.262 196.218 315.866 196.095 316.471 188.811 319.1 182.372 322.532 177.52 326.43 170.909 331.732 167.973 337.295 169.253 342.098L169.207 342.101C169.416 344.845 170.319 347.44 171.82 349.6 172.324 350.325 173.444 351.746 175.26 353.098 179.528 356.274 184.58 356.71 188.642 357.062L188.682 357.065C189.255 357.113 189.699 357.136 190.017 357.156 200.103 357.721 208.172 356.263 210.406 355.804 214.049 355.051 219.096 354.011 224.636 351.783 228.703 350.147 233.037 347.87 237.268 344.593 242.948 340.196 246.216 336 247.256 331.758 247.883 329.194 247.932 326.508 247.405 323.755 247.419 322.939 247.325 322.134 247.116 321.355 245.838 316.551 240.519 313.185 232.152 311.873 225.979 310.905 218.658 311.146 211.007 312.506 210.815 312.257 210.629 312.005 210.446 311.753 205.883 305.437 204.416 299.345 203.715 296.417 202.027 289.4 195.941 263.735 188.298 227.406 192.89 224.447 194.634 219.577 195.024 218.306 197.971 216.358 200.578 213.998 202.655 211.299 213.74 196.86 207.129 175.652 195.119 137.149 191.756 126.353 186.454 111.802 180.195 96.1743 177.305 88.9532 174.254 81.692 171.132 74.597" fill="#A2C8C4" transform="matrix(1 0 0 1.00279 751.222 55.0735)"/></g><path d="M245.97 323.741C245.967 323.789 245.967 323.835 245.964 323.884 245.956 323.838 245.947 323.792 245.938 323.746L245.97 323.741" fill="#A2C8C4" transform="matrix(1 0 0 1.00279 751.222 55.0735)"/><path d="M95.3351 16.4157C96.4407 15.8114 97.555 15.2242 98.6921 14.6771 100.153 13.9724 98.9986 11.7354 97.5378 12.44 96.3806 12.9985 95.2434 13.5915 94.1206 14.2102 92.8173 11.8471 91.5169 9.48395 90.2136 7.12084 89.4345 5.70298 87.1917 6.84873 87.9765 8.27519 89.297 10.6698 90.6146 13.0644 91.9351 15.459 90.9469 16.0462 89.9644 16.6478 89.0019 17.2837 87.6643 18.1659 88.8014 20.4144 90.1563 19.5207 91.1388 18.8734 92.1384 18.2604 93.1467 17.6618 94.1636 19.5064 95.1804 21.3482 96.1973 23.1929 96.9764 24.6107 99.2192 23.4621 98.4343 22.0385 97.4003 20.1624 96.3691 18.2891 95.3351 16.4157" fill="#A2C8C4" transform="matrix(1 0 0 1.00279 751.222 55.0735)"/><path d="M121.785 29.2911C120.857 29.8611 119.937 30.4426 119.015 31.0183 118.482 29.1193 117.929 27.2202 117.351 25.3326 116.878 23.7944 114.412 24.3186 114.89 25.8739 115.558 28.0451 116.191 30.2249 116.798 32.4133 115.457 33.264 114.123 34.1176 112.793 34.9826 111.45 35.8591 112.59 38.1077 113.951 37.2226 115.122 36.4578 116.302 35.7045 117.482 34.954 117.918 36.601 118.345 38.2538 118.746 39.9122 119.127 41.4819 121.59 40.952 121.206 39.3709 120.734 37.4202 120.232 35.481 119.711 33.5447 120.785 32.8687 121.859 32.1927 122.939 31.5282 124.311 30.6861 123.168 28.4375 121.785 29.2911" fill="#A2C8C4" transform="matrix(1 0 0 1.00279 751.222 55.0735)"/><path d="M148.441 10.6211C147.372 10.3576 146.298 10.1256 145.221 9.91075 145.74 7.78824 146.238 5.66001 146.702 3.52605 147.043 1.95637 144.654 1.14575 144.313 2.72975 143.823 4.97829 143.296 7.2211 142.746 9.45531 141.712 9.28345 140.675 9.12877 139.633 9.00274 138.023 8.8051 137.897 11.32 139.501 11.5148 140.383 11.6236 141.263 11.7525 142.139 11.8958 141.457 14.5482 140.735 17.192 139.965 19.8244 139.51 21.3797 141.898 22.176 142.354 20.6207 143.159 17.8737 143.912 15.1153 144.62 12.3455 145.631 12.546 146.642 12.7637 147.647 13.0129 149.211 13.3996 150.016 11.0135 148.441 10.6211" fill="#A2C8C4" transform="matrix(1 0 0 1.00279 751.222 55.0735)"/></g></svg>